<svg xmlns="http://www.w3.org/2000/svg" viewBox="0 0 16.954 9.813">
  <defs>
    <style>
      .cls-1 {
        fill: #126276;
      }
    </style>
  </defs>
  <g id="bathtub" transform="translate(0)">
    <path id="Path_428" data-name="Path 428" class="cls-1" d="M16.954,62.184a.422.422,0,0,0-.422-.422H2.554V60.034H3.881v.789a.422.422,0,1,0,.845,0V59.611a.422.422,0,0,0-.422-.422H2.131a.422.422,0,0,0-.422.422v2.151H.422A.422.422,0,0,0,0,62.184a6.518,6.518,0,0,0,3.873,5.951l-.13.054a.422.422,0,1,0,.326.779l1.029-.43a6.506,6.506,0,0,0,1.412.155h3.936a6.5,6.5,0,0,0,1.662-.215l1.174.491a.422.422,0,1,0,.326-.779l-.338-.141a6.517,6.517,0,0,0,3.685-5.864Zm-6.509,5.665H6.509A5.672,5.672,0,0,1,.86,62.606H16.094A5.672,5.672,0,0,1,10.445,67.849Z" transform="translate(0 -59.189)"/>
  </g>
</svg>
