<svg id="bed_2_" data-name="bed (2)" xmlns="http://www.w3.org/2000/svg" viewBox="0 0 18.484 12.494">
  <defs>
    <style>
      .cls-1 {
        fill: #126276;
      }
    </style>
  </defs>
  <g id="Group_59" data-name="Group 59" transform="translate(0 0)">
    <path id="Path_439" data-name="Path 439" class="cls-1" d="M16.685,65.443v-3A1.715,1.715,0,0,0,14.847,60.6H3.578A1.7,1.7,0,0,0,1.74,62.439v3A1.883,1.883,0,0,0,0,67.5v2.333a.709.709,0,0,0,.712.712H.949v1.839a.709.709,0,0,0,.712.712h.672a.709.709,0,0,0,.712-.712V70.524h12.4v1.858a.709.709,0,0,0,.712.712h.672a.709.709,0,0,0,.712-.712V70.524h.237a.709.709,0,0,0,.712-.712V67.5A1.964,1.964,0,0,0,16.685,65.443Zm-14.273-3h.04a1.011,1.011,0,0,1,1.127-1.127H14.847a1.011,1.011,0,0,1,1.127,1.127v2.985H15.44v-1.7a.709.709,0,0,0-.712-.712H10.379a.709.709,0,0,0-.712.712v1.7h-.83v-1.7a.709.709,0,0,0-.712-.712H3.776a.709.709,0,0,0-.712.712v1.7H2.412Zm12.316,1.285v1.7H10.379v-1.7Zm-6.563,0v1.7H3.815v-1.7ZM2.313,72.382H1.641V70.524h.672Zm14.471,0h-.672V70.524h.672Zm.929-2.55H.692V68.784H17.713Zm0-1.759H.692V67.5a1.243,1.243,0,0,1,1.364-1.364H16.349A1.235,1.235,0,0,1,17.713,67.5v.573Z" transform="translate(0 -60.6)"/>
  </g>
</svg>
