<svg xmlns="http://www.w3.org/2000/svg" viewBox="0 0 20.292 16.758">
  <defs>
    <style>
      .cls-1 {
        fill: #126276;
      }
    </style>
  </defs>
  <g id="child" transform="translate(0 -29.157)">
    <path id="Path_3181" data-name="Path 3181" class="cls-1" d="M2.594,39.634a8.007,8.007,0,0,0,5.277,4.894,2.56,2.56,0,0,0,4.55,0A8.008,8.008,0,0,0,17.7,39.634a2.625,2.625,0,0,0,0-5.249,8.036,8.036,0,0,0-6.225-5.115.512.512,0,0,0-.154-.034l-.109,0a8.013,8.013,0,0,0-8.615,5.152,2.625,2.625,0,0,0,0,5.249Zm5.97,1.5c0-.279.631-.7,1.582-.7s1.582.421,1.582.7a.3.3,0,0,1-.061.154,2.545,2.545,0,0,0-3.042,0A.3.3,0,0,1,8.564,41.138Zm2.089,3.7a1.595,1.595,0,1,1,1.031-1.136A1.569,1.569,0,0,1,10.653,44.842ZM2.625,35.367a1.7,1.7,0,0,1,.243.02l.418.062.123-.4a6.958,6.958,0,0,1,3.908-4.313A1.975,1.975,0,0,0,8.4,33.2c1.161.546,3.039.617,3.831-.571a1.245,1.245,0,0,0-.392-1.579,2.192,2.192,0,0,0-2.2-.3c-.581.231-.328,1.181.261.947a1.345,1.345,0,0,1,1.225.043c.562.309.044.662-.349.775a2.8,2.8,0,0,1-2.385-.475c-.723-.649.208-1.385.784-1.586a5.415,5.415,0,0,1,1.972-.243,7.031,7.031,0,0,1,5.741,4.831l.123.4.418-.062a1.679,1.679,0,0,1,.243-.02,1.643,1.643,0,1,1-.242,3.266l-.419-.062-.123.4A6.971,6.971,0,0,1,12.708,43.4c0-.015,0-.03,0-.045a2.541,2.541,0,0,0-.376-1.329,1.294,1.294,0,0,0,.376-.884c0-.943-1.126-1.681-2.564-1.681s-2.564.738-2.564,1.681a1.294,1.294,0,0,0,.375.884,2.544,2.544,0,0,0-.375,1.329c0,.015,0,.03,0,.045A6.971,6.971,0,0,1,3.41,38.975l-.123-.4-.419.062a1.68,1.68,0,0,1-.243.02,1.643,1.643,0,0,1,0-3.286Z"/>
    <path id="Path_3182" data-name="Path 3182" class="cls-1" d="M123.384,154.4a.655.655,0,0,0,0-1.309A.655.655,0,0,0,123.384,154.4Z" transform="translate(-115.311 -116.421)"/>
    <path id="Path_3183" data-name="Path 3183" class="cls-1" d="M191.786,153.049a.655.655,0,0,0,0-1.309A.655.655,0,0,0,191.786,153.049Z" transform="translate(-179.567 -115.153)"/>
  </g>
</svg>
