<svg xmlns="http://www.w3.org/2000/svg" viewBox="0 0 22.463 12.741">
  <defs>
    <style>
      .cls-1 {
        fill: #126276;
      }
    </style>
  </defs>
  <g id="Group_494" data-name="Group 494" transform="translate(-221.158 -1185.213)">
    <path id="Path_430" data-name="Path 430" class="cls-1" d="M26.44,14.444v2.74a.322.322,0,0,0,.322.322h1.084v3.772a.325.325,0,0,0,.007.065.9.9,0,0,0,1.489.624.9.9,0,0,0,1.488-.624.309.309,0,0,0,.006-.065V17.506H31.6a.323.323,0,0,0,.322-.322v-2.74A2.746,2.746,0,0,0,30.54,12.07a1.651,1.651,0,0,0,.306-.957,1.666,1.666,0,1,0-3.331,0,1.651,1.651,0,0,0,.306.957A2.745,2.745,0,0,0,26.44,14.444Zm2.741-4.352a1.019,1.019,0,1,1,0,2.038,1.045,1.045,0,0,1-.328-.053,1.014,1.014,0,0,1-.693-.964A1.023,1.023,0,0,1,29.181,10.092Zm-.862,2.445c.014.008.028.014.042.021.03.017.061.032.092.047s.082.039.124.055.086.032.13.045c.026.008.053.014.08.02a1.5,1.5,0,0,0,.789,0l.081-.021c.044-.013.087-.028.13-.045s.084-.035.124-.055.062-.03.093-.048c.013-.008.028-.013.041-.021a2.1,2.1,0,0,1,1.233,1.907v2.418h-.762a.322.322,0,0,0-.322.322v4.095a.264.264,0,0,1-.528,0,.322.322,0,0,0-.645,0,.264.264,0,0,1-.528,0V17.184a.322.322,0,0,0-.322-.322H27.084V14.444A2.1,2.1,0,0,1,28.318,12.537Z" transform="translate(200.401 1175.766)"/>
    <path id="Path_431" data-name="Path 431" class="cls-1" d="M57.058,21.342a.324.324,0,0,0,.007-.065V17.5h.762a.323.323,0,0,0,.322-.322v-2.74a2.747,2.747,0,0,0-1.38-2.375,1.649,1.649,0,0,0,.306-.957,1.666,1.666,0,1,0-3.331,0,1.649,1.649,0,0,0,.305.957,2.747,2.747,0,0,0-1.38,2.375v2.74a.322.322,0,0,0,.322.322h1.084v3.773a.342.342,0,0,0,.007.065.9.9,0,0,0,1.488.624.9.9,0,0,0,.586.22A.908.908,0,0,0,57.058,21.342ZM55.408,10.09a1.02,1.02,0,1,1-1.021,1.021A1.022,1.022,0,0,1,55.408,10.09Zm.747,11.451a.264.264,0,0,1-.264-.264.322.322,0,0,0-.645,0,.264.264,0,0,1-.528,0V17.182a.322.322,0,0,0-.322-.322H53.312V14.442a2.1,2.1,0,0,1,1.233-1.907c.013.008.028.014.041.021.03.017.061.032.092.047s.081.038.123.054.086.032.13.046l.077.02a1.667,1.667,0,0,0,.4.053,1.69,1.69,0,0,0,.4-.054l.076-.019c.045-.014.088-.029.132-.046s.082-.034.122-.054.063-.031.093-.048c.014-.008.028-.013.041-.021A2.1,2.1,0,0,1,57.5,14.442V16.86h-.762a.323.323,0,0,0-.322.322v4.095A.261.261,0,0,1,56.156,21.541Z" transform="translate(179.81 1175.768)"/>
    <path id="Path_433" data-name="Path 433" class="cls-1" d="M57.058,21.342a.324.324,0,0,0,.007-.065V17.5h.762a.323.323,0,0,0,.322-.322v-2.74a2.747,2.747,0,0,0-1.38-2.375,1.649,1.649,0,0,0,.306-.957,1.666,1.666,0,1,0-3.331,0,1.649,1.649,0,0,0,.305.957,2.747,2.747,0,0,0-1.38,2.375v2.74a.322.322,0,0,0,.322.322h1.084v3.773a.342.342,0,0,0,.007.065.9.9,0,0,0,1.488.624.9.9,0,0,0,.586.22A.908.908,0,0,0,57.058,21.342ZM55.408,10.09a1.02,1.02,0,1,1-1.021,1.021A1.022,1.022,0,0,1,55.408,10.09Zm.747,11.451a.264.264,0,0,1-.264-.264.322.322,0,0,0-.645,0,.264.264,0,0,1-.528,0V17.182a.322.322,0,0,0-.322-.322H53.312V14.442a2.1,2.1,0,0,1,1.233-1.907c.013.008.028.014.041.021.03.017.061.032.092.047s.081.038.123.054.086.032.13.046l.077.02a1.667,1.667,0,0,0,.4.053,1.69,1.69,0,0,0,.4-.054l.076-.019c.045-.014.088-.029.132-.046s.082-.034.122-.054.063-.031.093-.048c.014-.008.028-.013.041-.021A2.1,2.1,0,0,1,57.5,14.442V16.86h-.762a.323.323,0,0,0-.322.322v4.095A.261.261,0,0,1,56.156,21.541Z" transform="translate(185.472 1175.768)"/>
    <path id="Path_432" data-name="Path 432" class="cls-1" d="M3.488,22.185a.907.907,0,0,0,.9-.844.323.323,0,0,0,.006-.065V17.5h.762a.322.322,0,0,0,.322-.322v-2.74A2.746,2.746,0,0,0,4.1,12.067a1.649,1.649,0,0,0,.305-.957,1.666,1.666,0,1,0-3.331,0,1.65,1.65,0,0,0,.306.957A2.747,2.747,0,0,0,0,14.442v2.74a.323.323,0,0,0,.322.322H1.407v3.773a.341.341,0,0,0,.006.065.9.9,0,0,0,1.488.624A.9.9,0,0,0,3.488,22.185ZM2.74,10.09a1.019,1.019,0,1,1,0,2.037,1.044,1.044,0,0,1-.328-.053,1,1,0,0,1-.3-.158A1.02,1.02,0,0,1,2.74,10.09ZM2.315,21.541a.264.264,0,0,1-.264-.264V17.182a.322.322,0,0,0-.322-.322H.645V14.442a2.1,2.1,0,0,1,1.233-1.907c.014.008.028.014.042.021.03.017.061.032.091.047s.082.039.124.055.086.032.13.045c.026.008.053.014.08.02a1.658,1.658,0,0,0,.395.053,1.69,1.69,0,0,0,.395-.053l.081-.021c.044-.013.086-.028.129-.045s.084-.035.125-.055.061-.03.091-.047c.014-.008.028-.013.042-.021a2.1,2.1,0,0,1,1.233,1.907V16.86H4.074a.323.323,0,0,0-.322.322v4.095a.264.264,0,0,1-.528,0,.322.322,0,0,0-.645,0A.263.263,0,0,1,2.315,21.541Z" transform="translate(221.158 1175.768)"/>
  </g>
</svg>
