<svg xmlns="http://www.w3.org/2000/svg" viewBox="0 0 142.276 109.449">
  <defs>
    <style>
      .cls-1 {
        fill: #f2f0f0;
      }
    </style>
  </defs>
  <g id="Group_503" data-name="Group 503" transform="translate(0 -0.089)">
    <path id="Path_1886" data-name="Path 1886" class="cls-1" d="M54.317.545C56.9,1.558,59.153,3.47,59.378,6.338a2.738,2.738,0,0,0,.056.675l-3.262.169h3.262a5.671,5.671,0,0,1-.956,3.88,8.456,8.456,0,0,1-4.386,3.205,6.553,6.553,0,0,1-3.318-.112,32.255,32.255,0,0,1-3.374-1.8,7.011,7.011,0,0,0,4.049,2.193A7.344,7.344,0,0,0,60,8.643a6.91,6.91,0,0,0,.112-1.518h6.523l9.448-.169-9.616-.169c-1.181-.056-2.418,0-3.6.056L60,7.012A7.292,7.292,0,0,0,53.98.208a7.212,7.212,0,0,0-4.5.619C49.481.77,52.855-.017,54.317.545Z" transform="translate(-20.744 0)"/>
    <path id="Path_1887" data-name="Path 1887" class="cls-1" d="M32.785,13.281c1.631.056,9-.112,9-.112S35.316,13,33.91,13s-4.949.112-4.949.112l-3.262.112C25.643,13.225,31.155,13.225,32.785,13.281Z" transform="translate(-11.247 -5.65)"/>
    <path id="Path_1888" data-name="Path 1888" class="cls-1" d="M37.674,20.167l-5.174.169h7.929l7.2-.056-7.254-.112A21.611,21.611,0,0,0,37.674,20.167Z" transform="translate(-14.223 -8.768)"/>
    <path id="Path_1889" data-name="Path 1889" class="cls-1" d="M193.2,115.2v.337a.207.207,0,0,0,.056-.169C193.312,115.312,193.256,115.256,193.2,115.2Z" transform="translate(-84.553 -50.377)"/>
    <path id="Path_1890" data-name="Path 1890" class="cls-1" d="M100.481,184.154l-.281.394a13.52,13.52,0,0,0,2.193,0c.675-.112,1.968-.281,1.912-.731-.112-.506-1.912-.337-1.912-.337S100.706,183.648,100.481,184.154Z" transform="translate(-43.852 -80.248)"/>
    <path id="Path_1891" data-name="Path 1891" class="cls-1" d="M92.768,184.442c-1.687.169-1.968.562-1.968.562s.112.562,2.193.281c2.137-.281,2.193-.844,2.193-.844A8.444,8.444,0,0,0,92.768,184.442Z" transform="translate(-39.738 -80.648)"/>
    <path id="Path_1892" data-name="Path 1892" class="cls-1" d="M162.843,188.642a8.987,8.987,0,0,0-2.474,0c-1.687.169-1.968.562-1.968.562s.112.562,2.193.281C162.73,189.2,162.843,188.642,162.843,188.642Z" transform="translate(-69.323 -82.486)"/>
    <path id="Path_1893" data-name="Path 1893" class="cls-1" d="M93.531,188.861a3.682,3.682,0,0,0-1.631.394,5.66,5.66,0,0,0,1.968.169,4.125,4.125,0,0,0,1.687-.562A9.391,9.391,0,0,0,93.531,188.861Z" transform="translate(-40.22 -82.593)"/>
    <path id="Path_1894" data-name="Path 1894" class="cls-1" d="M107.536,187.684a19.924,19.924,0,0,0-3.43.281s.169-.337-1.237-.225A7.3,7.3,0,0,0,100,188.809s.731.112,2.081.169c1.293.056.844-.112,2.081-.45a26.909,26.909,0,0,1,4.386-.394S108.435,187.8,107.536,187.684Z" transform="translate(-43.764 -82.091)"/>
    <path id="Path_1895" data-name="Path 1895" class="cls-1" d="M119.411,189.786c-1.068.112-.056.337-1.8.45a9.471,9.471,0,0,0-2.812.562,22.374,22.374,0,0,0,3.262-.169,8.52,8.52,0,0,0,2.474-.506S120.424,189.673,119.411,189.786Z" transform="translate(-50.242 -83.012)"/>
    <path id="Path_1896" data-name="Path 1896" class="cls-1" d="M133.723,189.481c-1.125.112-1.125.394-1.125.394s-.112.506,1.462.281c1.518-.225,1.406-.675,1.406-.675A13.819,13.819,0,0,0,133.723,189.481Z" transform="translate(-58.03 -82.875)"/>
    <path id="Path_1897" data-name="Path 1897" class="cls-1" d="M147.667,188.581c-2.249.056-2.474.731-2.474.731s-.281.281,2.193,0a22.277,22.277,0,0,0,3.88-.731S149.973,188.524,147.667,188.581Z" transform="translate(-63.538 -82.481)"/>
    <path id="Path_1898" data-name="Path 1898" class="cls-1" d="M138.21,185.248s-.844-.281-4.668-.169c-3.768.112-4.33,1.125-4.443,1.125,0,0,.506.281,4.33,0S138.21,185.248,138.21,185.248Z" transform="translate(-56.5 -80.948)"/>
    <path id="Path_1899" data-name="Path 1899" class="cls-1" d="M154.973,182.2c2.193-.337,3.543-.506,2.868-.956a2.061,2.061,0,0,0-1.518-.225s-4.33-.113-2.531-.675,1.462-.9,1.012-1.181a8.329,8.329,0,0,0-4.161.225c-1.068.394-.225,1.012-.225,1.012s.787-.056.844.281.056.281-.844.506A17.756,17.756,0,0,0,148,182.428C148,182.372,152.724,182.54,154.973,182.2Z" transform="translate(-64.771 -78.297)"/>
    <path id="Path_1900" data-name="Path 1900" class="cls-1" d="M172.18,181.965s-.112-.394-1.968-.281c-1.856.169-1.912.506-1.912.506s.112.675,1.743.394A4.936,4.936,0,0,0,172.18,181.965Z" transform="translate(-73.656 -79.465)"/>
    <path id="Path_1901" data-name="Path 1901" class="cls-1" d="M183.212,178.755c-1.012.169-1.012.619-1.012.619l2.081-.337S184.224,178.53,183.212,178.755Z" transform="translate(-79.739 -78.167)"/>
    <path id="Path_1902" data-name="Path 1902" class="cls-1" d="M190.5,180.323s-.844.169.506.225a6.986,6.986,0,0,0,2.474-.394,8.1,8.1,0,0,0-1.912-.169C190.272,179.873,190.5,180.323,190.5,180.323Z" transform="translate(-83.256 -78.723)"/>
    <path id="Path_1903" data-name="Path 1903" class="cls-1" d="M183.934,171.8c-2.474.056-1.8.281-1.8.281s-.394.337,1.518.169a10.88,10.88,0,0,0,2.193-.281S186.408,171.8,183.934,171.8Z" transform="translate(-79.673 -75.148)"/>
    <path id="Path_1904" data-name="Path 1904" class="cls-1" d="M172.874,171.4c-2.137,0-2.249.506-2.249.506l-.225.45a3.252,3.252,0,0,0,2.362.45,2.616,2.616,0,0,0,2.137-1.181S175.011,171.4,172.874,171.4Z" transform="translate(-74.575 -74.973)"/>
    <path id="Path_1905" data-name="Path 1905" class="cls-1" d="M177.84,175.081a28.334,28.334,0,0,0-3.037,0c-2.812.056-2.418.562-2.418.562s-.281.562,2.362.394C177.334,175.924,177.84,175.081,177.84,175.081Z" transform="translate(-75.435 -76.573)"/>
    <path id="Path_1906" data-name="Path 1906" class="cls-1" d="M165.756,179.1c1.181-.112,1.8-.619,1.012-.9a19.235,19.235,0,0,0-4.049,0s-.281-.281-.225.394S164.575,179.215,165.756,179.1Z" transform="translate(-71.111 -77.896)"/>
    <path id="Path_1907" data-name="Path 1907" class="cls-1" d="M128.628,181.781s-.225-.506-2.137-.394a7.114,7.114,0,0,0-2.643.619s-.281-.112-.169.337.337.394,2.531.225C128.459,182.4,128.628,181.781,128.628,181.781Z" transform="translate(-54.116 -79.337)"/>
    <path id="Path_1908" data-name="Path 1908" class="cls-1" d="M121.517,185.217s-4.555-.337-4.611-.675.956-.281,1.012-.562-.112-.337-1.631-.619a5.971,5.971,0,0,0-2.587.337v.337c0,.337,1.125.112,1.293.562.225.394-.562.337-.562.506.056.169-.281.731,4.049.787S121.517,185.217,121.517,185.217Z" transform="translate(-49.76 -80.186)"/>
    <path id="Path_1909" data-name="Path 1909" class="cls-1" d="M81.3,186.9a3.871,3.871,0,0,0-1.8.281s.169.169,1.687.112a9.5,9.5,0,0,0,1.631-.112S82.93,186.839,81.3,186.9Z" transform="translate(-34.793 -81.752)"/>
    <path id="Path_1910" data-name="Path 1910" class="cls-1" d="M67.568,184.761c-2.7.169-2.7.619-2.868.619,0,0,.225.225,2.7,0a10.791,10.791,0,0,0,3.318-.619A16.789,16.789,0,0,0,67.568,184.761Z" transform="translate(-28.316 -80.799)"/>
    <path id="Path_1911" data-name="Path 1911" class="cls-1" d="M55.774,181.3c-3.037.056-3.262.619-3.374.675,0,0-.112.45,3.093.112,3.262-.337,3.712-.787,3.712-.787Z" transform="translate(-22.932 -79.306)"/>
    <path id="Path_1912" data-name="Path 1912" class="cls-1" d="M44.143,176.486c-2.756.112-2.643.675-2.643.675a7.936,7.936,0,0,0,2.587.169,7.621,7.621,0,0,0,2.924-.506S46.9,176.373,44.143,176.486Z" transform="translate(-18.162 -77.191)"/>
    <path id="Path_1913" data-name="Path 1913" class="cls-1" d="M51.422,174.793a11.363,11.363,0,0,0,2.98-.394s.619-.731-2.812-.45c-3.374.281-2.081.844-2.081.844S49.173,174.85,51.422,174.793Z" transform="translate(-21.561 -76.061)"/>
    <path id="Path_1914" data-name="Path 1914" class="cls-1" d="M41.55,174.616c.731-.056,1.462-.169,1.293-.562s-1.237-.506-2.643.169A2.269,2.269,0,0,0,41.55,174.616Z" transform="translate(-17.593 -75.996)"/>
    <path id="Path_1915" data-name="Path 1915" class="cls-1" d="M49.9,170.7a13.4,13.4,0,0,0,1.968.337c.562,0,1.575-.112,1.575-.337s-.169-.562-1.575-.506A4.284,4.284,0,0,0,49.9,170.7Z" transform="translate(-21.838 -74.443)"/>
    <path id="Path_1916" data-name="Path 1916" class="cls-1" d="M46.643,167.657c1.462.056,1.743-.337,1.743-.337a4.827,4.827,0,0,0-1.912-.225c-1.237.056-1.575.394-1.575.394A7.373,7.373,0,0,0,46.643,167.657Z" transform="translate(-19.65 -73.085)"/>
    <path id="Path_1917" data-name="Path 1917" class="cls-1" d="M48.612,163.7a6.1,6.1,0,0,0,1.631-.45s-.337-.281-1.631-.169a3.988,3.988,0,0,0-1.912.619A6.128,6.128,0,0,0,48.612,163.7Z" transform="translate(-20.438 -71.32)"/>
    <path id="Path_1918" data-name="Path 1918" class="cls-1" d="M37.887,171.7c-1.462-.056-1.687.45-1.687.45S39.349,171.753,37.887,171.7Z" transform="translate(-15.843 -75.101)"/>
    <path id="Path_1919" data-name="Path 1919" class="cls-1" d="M77.743,193.186c-2.756.112-2.643.675-2.643.675a7.936,7.936,0,0,0,2.587.169,7.622,7.622,0,0,0,2.924-.506S80.5,193.073,77.743,193.186Z" transform="translate(-32.867 -84.5)"/>
    <path id="Path_1920" data-name="Path 1920" class="cls-1" d="M109.731,189.761a3.682,3.682,0,0,0-1.631.394,5.66,5.66,0,0,0,1.968.169,4.126,4.126,0,0,0,1.687-.562A9.629,9.629,0,0,0,109.731,189.761Z" transform="translate(-47.309 -82.987)"/>
    <path id="Path_1921" data-name="Path 1921" class="cls-1" d="M75.05,191.416c.731-.056,1.462-.169,1.293-.562s-1.237-.506-2.643.169A2.269,2.269,0,0,0,75.05,191.416Z" transform="translate(-32.254 -83.348)"/>
    <path id="Path_1922" data-name="Path 1922" class="cls-1" d="M71.387,188.5c-1.462-.056-1.687.45-1.687.45S72.849,188.553,71.387,188.5Z" transform="translate(-30.504 -82.453)"/>
    <path id="Path_1923" data-name="Path 1923" class="cls-1" d="M62.742,177.458c.169-.731-1.968-.731-4.443-.675a8.994,8.994,0,0,0-3.6.787l3.88.506S62.573,178.133,62.742,177.458Z" transform="translate(-23.939 -77.319)"/>
    <path id="Path_1924" data-name="Path 1924" class="cls-1" d="M70.9,179.246a12.293,12.293,0,0,0,2.081.619c.675.056,1.743-.225,1.743-.619s-.394-.394-1.912-.45C71.35,178.74,70.9,179.246,70.9,179.246Z" transform="translate(-31.029 -78.208)"/>
    <path id="Path_1925" data-name="Path 1925" class="cls-1" d="M135.478,178.13c-.056-.45-.281-.281-1.125-.337a13.158,13.158,0,0,0-2.249.169.669.669,0,0,0-.112.562c.056.394,1.406,1.293,1.8,1.575a8.644,8.644,0,0,0,4.5,0c1.012-.506.281-.731,0-.9s-3.824.056-3.768-.281C134.578,178.524,135.59,178.58,135.478,178.13Z" transform="translate(-57.76 -77.767)"/>
    <path id="Path_1926" data-name="Path 1926" class="cls-1" d="M142.67,178.349c.506.619.394.787,1.518.844s1.406-.169,1.237-.675c-.112-.506-1.575-.337-.225-.844,1.35-.562,1.012-.956.844-1.125-.169-.225-.844.225-2.531.056a9.339,9.339,0,0,0-2.98.169.671.671,0,0,0-.337.619c.112.394.787.562.787.562S142.164,177.731,142.67,178.349Z" transform="translate(-61.353 -77.199)"/>
    <path id="Path_1927" data-name="Path 1927" class="cls-1" d="M158.129,175.445c2.474-.112,4.386-.731,4.274-1.012s.056-.225-4.443-.169-4.5.956-4.5.956-.112-.281,0,.225S155.711,175.558,158.129,175.445Z" transform="translate(-67.14 -76.207)"/>
    <path id="Path_1928" data-name="Path 1928" class="cls-1" d="M175.112,178.693c-1.068.056-1.012.337-1.012.337s.225.281,1.012.337,1.068-.169,1.068-.337S176.18,178.637,175.112,178.693Z" transform="translate(-76.193 -78.161)"/>
    <path id="Path_1929" data-name="Path 1929" class="cls-1" d="M186.29,175.689s1.8,0,1.8-.225c-.056-.225-.225-.169-1.068-.169C186.122,175.239,186.29,175.689,186.29,175.689Z" transform="translate(-81.523 -76.675)"/>
    <path id="Path_1930" data-name="Path 1930" class="cls-1" d="M199.281,174.263c-.956-.169-1.181.169-1.181.169s1.743.394,1.912.225C200.124,174.544,200.181,174.432,199.281,174.263Z" transform="translate(-86.697 -76.206)"/>
    <path id="Path_1931" data-name="Path 1931" class="cls-1" d="M179.925,183a2.29,2.29,0,0,0-1.125.281s2.024.225,2.081,0C180.993,183.056,180.6,183,179.925,183Z" transform="translate(-78.251 -80.05)"/>
    <path id="Path_1932" data-name="Path 1932" class="cls-1" d="M54.349,160.2c-1.125-.056-.956.281-.956.281h.956C54.349,160.532,55.474,160.251,54.349,160.2Z" transform="translate(-23.363 -70.067)"/>
    <path id="Path_1933" data-name="Path 1933" class="cls-1" d="M38.781,167c-1.012.056-1.181.562-1.181.562a4.309,4.309,0,0,1,1.012,0,1.311,1.311,0,0,0,1.012-.281S39.793,166.939,38.781,167Z" transform="translate(-16.455 -73.043)"/>
    <path id="Path_1934" data-name="Path 1934" class="cls-1" d="M102.453,180c.562.112,1.237-.056,1.35-.337s-.169-.562-1.125-.562-.787.562-.787.562S101.891,179.887,102.453,180Z" transform="translate(-44.587 -78.343)"/>
    <path id="Path_1935" data-name="Path 1935" class="cls-1" d="M79.9,180.26s1.462.281,1.406,0a.615.615,0,0,0-.619-.562C80.181,179.641,79.9,180.26,79.9,180.26Z" transform="translate(-34.968 -78.603)"/>
    <path id="Path_1936" data-name="Path 1936" class="cls-1" d="M87.685,171.95c.844.169,2.531-1.181,2.531-1.181L90.1,170.6a6.09,6.09,0,0,1-1.012-2.98v-.281h0V167h0v-.562H82.9s-.281,2.137-.394-.225a5.446,5.446,0,0,0-.337-2.024c2.7-.056,6.355-.225,6.017-.281-.225-.056-3.374-.056-6.411-.056a7.339,7.339,0,0,0-.731-.169,1.177,1.177,0,0,0-.956.169c-2.137,0-3.88,0-3.993.056,0,0,2.081.225,3.43.281h.225v.056a2.551,2.551,0,0,1,.562-.056h.112c.337,0,.787.056.9.337.225.506-.169,7.367-.169,7.367a.961.961,0,0,1,1.462,0v-.225a6.172,6.172,0,0,0,2.756,0C86,171.275,86.785,171.781,87.685,171.95Z" transform="translate(-33.305 -71.587)"/>
    <path id="Path_1937" data-name="Path 1937" class="cls-1" d="M54.2,189.137s1.125.169,2.587.225c1.462.112,1.462-.225,1.462-.225a5.046,5.046,0,0,0-2.081-.337A4.157,4.157,0,0,0,54.2,189.137Z" transform="translate(-23.72 -82.588)"/>
    <path id="Path_1938" data-name="Path 1938" class="cls-1" d="M172.693,191.29s-1.687.169-1.912.675l-.281.394a13.525,13.525,0,0,0,2.193,0c.675-.113,1.968-.281,1.912-.731C174.493,191.178,172.693,191.29,172.693,191.29Z" transform="translate(-74.618 -83.672)"/>
    <path id="Path_1939" data-name="Path 1939" class="cls-1" d="M163.068,192.242c-1.687.169-1.968.562-1.968.562s.112.562,2.193.281c2.137-.281,2.193-.844,2.193-.844A8.446,8.446,0,0,0,163.068,192.242Z" transform="translate(-70.505 -84.062)"/>
    <path id="Path_1940" data-name="Path 1940" class="cls-1" d="M185.568,184.942c-1.687.169-1.968.562-1.968.562s.112.562,2.193.281c2.137-.281,2.193-.844,2.193-.844A8.444,8.444,0,0,0,185.568,184.942Z" transform="translate(-80.352 -80.867)"/>
    <path id="Path_1941" data-name="Path 1941" class="cls-1" d="M174,187.4a3.872,3.872,0,0,0-1.8.281s.169.169,1.687.112a9.5,9.5,0,0,0,1.631-.112S175.687,187.339,174,187.4Z" transform="translate(-75.362 -81.97)"/>
    <path id="Path_1942" data-name="Path 1942" class="cls-1" d="M150.7,154.025h5.792s-1.125-.169-2.474-.225C152.612,153.8,150.7,154.025,150.7,154.025Z" transform="translate(-65.953 -67.271)"/>
    <path id="Path_1943" data-name="Path 1943" class="cls-1" d="M156.8,152.481s1.237.169,1.631.169h2.924s-1.237-.112-1.743-.169C159.049,152.424,156.8,152.481,156.8,152.481Z" transform="translate(-68.623 -66.682)"/>
    <path id="Path_1944" data-name="Path 1944" class="cls-1" d="M163.374,150.881c-.787-.056-2.474,0-2.474,0l3.374.281C164.33,151.162,164.162,150.993,163.374,150.881Z" transform="translate(-70.417 -65.982)"/>
    <path id="Path_1945" data-name="Path 1945" class="cls-1" d="M63.721,162.09s.506-1.181-1.293-1.293-1.631,2.137-1.631,2.137v6.13l.45.056.225-6.3s-.112-1.35.844-1.575c1.012-.225,1.068,1.237,1.068,1.237l5.792-.337,10.066-1.293Z" transform="translate(-26.606 -70.331)"/>
    <path id="Path_1946" data-name="Path 1946" class="cls-1" d="M74.916,168.974a25.4,25.4,0,0,0-.337-3.6v1.856a8.58,8.58,0,0,1-1.012-.056h0c.169-.225-.056-.45-1.406-.562s-7.367-.506-7.367-.506,1.406.225,2.024.394a10.179,10.179,0,0,0-1.968.169,8.965,8.965,0,0,0-.337-1.968l-.112,6.073s.112-.506.225-1.293v1.237a1.132,1.132,0,0,0,1.406.056c.844-.506,1.912-.675,2.474.169.619.844,1.968.225,3.037-.225.956-.394,2.643.731,2.98.956v.45A13.588,13.588,0,0,0,74.916,168.974Z" transform="translate(-28.184 -72.041)"/>
    <path id="Path_1947" data-name="Path 1947" class="cls-1" d="M69.7,165.786s1.181.281,1.912.394a47.271,47.271,0,0,0,4.949,0C76.336,166.123,69.869,165.674,69.7,165.786Z" transform="translate(-30.504 -72.508)"/>
    <path id="Path_1948" data-name="Path 1948" class="cls-1" d="M143.043,157.361l3.149-1.406s.619-.281.281-.394a.779.779,0,0,0-.562,0l-4.611,1.912Z" transform="translate(-61.839 -68.019)"/>
    <path id="Path_1949" data-name="Path 1949" class="cls-1" d="M147.3,157.712l3.6-.056-3.318-.056Z" transform="translate(-64.465 -68.934)"/>
    <path id="Path_1950" data-name="Path 1950" class="cls-1" d="M145.268,156.181l.675-.281c-1.293.056-2.474.112-2.643.169C143.3,156.012,144.144,156.125,145.268,156.181Z" transform="translate(-62.714 -68.19)"/>
    <path id="Path_1951" data-name="Path 1951" class="cls-1" d="M150.869,155.691c0,.112-.056.169-.169.281,1.687-.056,3.824-.169,3.824-.169a21.39,21.39,0,0,0-2.868-.112Z" transform="translate(-65.953 -68.093)"/>
    <path id="Path_1952" data-name="Path 1952" class="cls-1" d="M200.094,166.975c-1.125-.394-8.435-.675-8.435-.675H178.78c-2.98,0-3.88,1.406-3.88,1.406s3.712-.056,5.567-.056,5.455.394,5.455.394a12.326,12.326,0,0,1,2.193-.337c1.687-.169,8.267-.281,8.548-.281s-7.817,0-8.21-.394,6.467-.169,6.467-.169S201.274,167.368,200.094,166.975Z" transform="translate(-76.544 -72.741)"/>
    <path id="Path_1953" data-name="Path 1953" class="cls-1" d="M187.617,162.319a39.542,39.542,0,0,0-5-.225,12.383,12.383,0,0,0-3.712.45s7.817.675,8.717.281c.956-.394,7.2-.337,7.2-.337s6.242.225,6.973.337.844-.45.844-.45-3.318-.225-7.536-.225C190.878,162.094,187.617,162.319,187.617,162.319Z" transform="translate(-78.295 -70.897)"/>
    <path id="Path_1954" data-name="Path 1954" class="cls-1" d="M191.9,153.543a31.779,31.779,0,0,0-7.2.956l6.58-.394a34.248,34.248,0,0,0,6.13.281c2.474-.169,1.406.956,1.406.956s-3.487-.225-6.917-.056a14.1,14.1,0,0,0-4.892.956s3.318-.506,6.355-.619a57.514,57.514,0,0,1,7.7.506,1.839,1.839,0,0,0,1.35.787c.956.112.225-.787.225-.787s-2.193-3.093-4.218-3.936-8.829-1.293-8.829-1.293,1.687.281,1.912.9-5.736.731-5.736.731,9.616.337,10.685.956C197.522,154.049,194.822,153.656,191.9,153.543Z" transform="translate(-80.833 -66.001)"/>
    <path id="Path_1955" data-name="Path 1955" class="cls-1" d="M57.923,154.188a68.448,68.448,0,0,0,8.6.169s-4.668-.506-7.985-.562-8.941.225-8.941.225A76.824,76.824,0,0,1,57.923,154.188Z" transform="translate(-21.707 -67.265)"/>
    <path id="Path_1956" data-name="Path 1956" class="cls-1" d="M58.928,157.416h7.761a88.937,88.937,0,0,0-9.954-.619c-4.443.056-9.335.45-9.335.45S55.61,157.416,58.928,157.416Z" transform="translate(-20.744 -68.581)"/>
    <path id="Path_1957" data-name="Path 1957" class="cls-1" d="M90.112,157.831c-1.687.337-1.912.394-1.912.394h3.88S91.8,157.493,90.112,157.831Z" transform="translate(-38.6 -68.996)"/>
    <path id="Path_1958" data-name="Path 1958" class="cls-1" d="M66.873,151.57a42.916,42.916,0,0,0,9.054.281s-4.949-.394-9.673-.787a58.886,58.886,0,0,0-9.054,0l.956.337A42.728,42.728,0,0,1,66.873,151.57Z" transform="translate(-25.033 -65.997)"/>
    <path id="Path_1959" data-name="Path 1959" class="cls-1" d="M35.3,151.362a23.769,23.769,0,0,1,3.768.112,5.6,5.6,0,0,1,1.181.225c.337-.169,1.631-.956,2.7-1.518a17.367,17.367,0,0,1,3.6-1.181H37.1s6.636.112,5.848.394-7.086.619-7.086.619,4.33.225,4.049.562C39.686,150.856,35.3,151.362,35.3,151.362Z" transform="translate(-15.449 -65.17)"/>
    <path id="Path_1960" data-name="Path 1960" class="cls-1" d="M44.212,153.756l-.056-.056a.055.055,0,0,0-.056.056Z" transform="translate(-19.3 -67.227)"/>
    <path id="Path_1961" data-name="Path 1961" class="cls-1" d="M96.231,148.972c.225.45-.337.844-.337.844h.619a75.731,75.731,0,0,1,7.929-.844c2.024.056,5.624.619,5.624.619a5.91,5.91,0,0,1,2.362-.506,5.766,5.766,0,0,0,2.474-.506s-14.621-.112-15.521,0a8.1,8.1,0,0,1-2.868-.056,4.952,4.952,0,0,0-1.912,0S95.95,148.522,96.231,148.972Z" transform="translate(-41.401 -64.917)"/>
    <path id="Path_1962" data-name="Path 1962" class="cls-1" d="M85.205,147.4s-12.6.844-10.235.956,10.91,1.35,10.91,1.35l.337-.225s-5.511-.956-7.536-1.125C76.6,148.075,85.205,147.4,85.205,147.4Z" transform="translate(-32.681 -64.47)"/>
    <path id="Path_1963" data-name="Path 1963" class="cls-1" d="M58.1,146.162s2.7.056,5.286,0c2.531-.056,7.2-.562,7.2-.562H64.4A37.439,37.439,0,0,0,58.1,146.162Z" transform="translate(-25.427 -63.682)"/>
    <path id="Path_1964" data-name="Path 1964" class="cls-1" d="M95.719,146.981h-.281l-.337.337s11.078.169,13.553,0,14.9-.619,14.9-.619H108.372C106.685,146.756,97.406,146.981,95.719,146.981Z" transform="translate(-41.62 -64.163)"/>
    <path id="Path_1965" data-name="Path 1965" class="cls-1" d="M203.162,146.466a5.124,5.124,0,0,0-3.262.9l8.885-.9A36.011,36.011,0,0,1,203.162,146.466Z" transform="translate(-87.485 -64.042)"/>
    <path id="Path_1966" data-name="Path 1966" class="cls-1" d="M196.3,144.6l.506.619h2.98c.844,0,4.5-.619,4.5-.619H196.3Z" transform="translate(-85.91 -63.244)"/>
    <path id="Path_1967" data-name="Path 1967" class="cls-1" d="M193.187,142.919s3.149.056,3.88,0,4.724-.619,4.724-.619H192.4Z" transform="translate(-84.203 -62.238)"/>
    <path id="Path_1968" data-name="Path 1968" class="cls-1" d="M216.992,148.889c-1.406-.112-1.293.506-1.293.506l3.205.225C218.9,149.564,218.4,149,216.992,148.889Z" transform="translate(-94.398 -65.115)"/>
    <path id="Path_1969" data-name="Path 1969" class="cls-1" d="M205.9,150.7l6.017.619a17.739,17.739,0,0,0-2.531-.619,12.454,12.454,0,0,0-3.205-.056A.984.984,0,0,1,205.9,150.7Z" transform="translate(-90.111 -65.853)"/>
    <path id="Path_1970" data-name="Path 1970" class="cls-1" d="M55.566,142.5l-11.866.562s8.379.281,11.135.225C57.534,143.231,55.566,142.5,55.566,142.5Z" transform="translate(-19.125 -62.325)"/>
    <path id="Path_1971" data-name="Path 1971" class="cls-1" d="M52.1,139.6c-2.7.056-15.8.619-15.8.619s11.922-.056,14.79,0,7.423-.281,7.423-.281A62.549,62.549,0,0,0,52.1,139.6Z" transform="translate(-15.886 -61.052)"/>
    <path id="Path_1972" data-name="Path 1972" class="cls-1" d="M176.3,52.4h0Z" transform="translate(-77.157 -22.893)"/>
    <path id="Path_1973" data-name="Path 1973" class="cls-1" d="M159.976,50.824c-.844-.056-9.11-1.068-9.785-1.068S139,48.8,139,48.8l.956.506,10.966,1.012C150.922,50.375,159.132,50.768,159.976,50.824Z" transform="translate(-60.833 -21.318)"/>
    <path id="Path_1974" data-name="Path 1974" class="cls-1" d="M85.5,77.356a8.791,8.791,0,0,0,1.406-.056A9.429,9.429,0,0,1,85.5,77.356Z" transform="translate(-37.419 -33.791)"/>
    <path id="Path_1975" data-name="Path 1975" class="cls-1" d="M75.711,109.962c-.45,0-5.511-.562-5.511-.562l4.386.731,5.68.337C80.21,110.468,76.161,109.962,75.711,109.962Z" transform="translate(-30.723 -47.839)"/>
    <path id="Path_1976" data-name="Path 1976" class="cls-1" d="M221.4,136.965h2.98a9.291,9.291,0,0,0-1.406-.281A3.638,3.638,0,0,0,221.4,136.965Z" transform="translate(-96.894 -59.771)"/>
    <path id="Path_1977" data-name="Path 1977" class="cls-1" d="M234.8,134a1.509,1.509,0,0,0-.9.337h2.418A9.289,9.289,0,0,0,234.8,134Z" transform="translate(-102.365 -58.605)"/>
    <path id="Path_1978" data-name="Path 1978" class="cls-1" d="M13.5,73.456a4.78,4.78,0,0,1,1.912.112c.337.056,7.929.506,7.929.506s-2.024-.225-3.262-.337S14.734,72.95,14,72.893a15.238,15.238,0,0,0-4.443.619C8.323,74.074,0,75.087,0,75.087s6.8-.787,8.154-.844A38.888,38.888,0,0,0,13.5,73.456Z" transform="translate(0 -31.859)"/>
    <path id="Path_1979" data-name="Path 1979" class="cls-1" d="M15.534,77.4c-.562,0-12.034.562-12.034.562s9.11-.225,9.785-.225,10.235-.281,10.235-.281S16.041,77.4,15.534,77.4Z" transform="translate(-1.532 -33.835)"/>
    <path id="Path_1980" data-name="Path 1980" class="cls-1" d="M1.6,79.431s11.247-.169,12.034-.225,7.142-.45,7.142-.45-2.868,0-4.161-.056c-1.293,0-3.824.169-4.668.225S1.6,79.431,1.6,79.431Z" transform="translate(-0.7 -34.403)"/>
    <path id="Path_1981" data-name="Path 1981" class="cls-1" d="M18.739,81.225c.619-.112,3.43-.225,3.43-.225h-2.98s-4.218.056-7.254.169S1.7,81.675,1.7,81.675l16.252-.225C17.9,81.394,18.121,81.337,18.739,81.225Z" transform="translate(-0.744 -35.41)"/>
    <path id="Path_1982" data-name="Path 1982" class="cls-1" d="M14.96,83.081c-2.7.056-10.46.619-10.46.619s7.086-.056,10.347-.225,7.929-.394,7.929-.394S17.659,83.024,14.96,83.081Z" transform="translate(-1.969 -36.31)"/>
    <path id="Path_1983" data-name="Path 1983" class="cls-1" d="M17.823,92.669a17.372,17.372,0,0,0-2.587-.169c-1.575,0-5.736.337-5.736.337s5.174.169,6.017,0A15.025,15.025,0,0,1,17.823,92.669Z" transform="translate(-4.158 -40.443)"/>
    <path id="Path_1984" data-name="Path 1984" class="cls-1" d="M10.2,101.425h2.081c1.012,0,1.068-.225,1.068-.225l-3.149.169Z" transform="translate(-4.464 -44.25)"/>
    <path id="Path_1985" data-name="Path 1985" class="cls-1" d="M15.375,103.669c.844,0,.787-.169.787-.169l-2.362.169Z" transform="translate(-6.039 -45.257)"/>
    <path id="Path_1986" data-name="Path 1986" class="cls-1" d="M211.4,80.144l3.88-.45h1.462c1.462,0-3.318.787-3.318.787s4.386-.562,6.8-.619c2.474-.056,6.355.337,6.355.337l7.2.731S224.9,79.3,219.723,79.3A38.83,38.83,0,0,0,211.4,80.144Z" transform="translate(-92.518 -34.666)"/>
    <path id="Path_1987" data-name="Path 1987" class="cls-1" d="M233.763,83.281S225.047,83,221.335,83c-3.712.056-9.335.225-9.335.225l9.335-.056Z" transform="translate(-92.781 -36.285)"/>
    <path id="Path_1988" data-name="Path 1988" class="cls-1" d="M223.629,85.213c1.8-.112,9.9,0,9.9,0s-4.274-.169-5.9-.225-4.33.056-4.33.056-2.024-.056-4.161-.056-6.13.281-6.13.281,3.768-.056,5-.112C219.242,85.156,221.829,85.325,223.629,85.213Z" transform="translate(-93.218 -37.148)"/>
    <path id="Path_1989" data-name="Path 1989" class="cls-1" d="M222.8,87.367a44.33,44.33,0,0,0-7.2.225s4.5.056,5.567,0,14.79,0,14.79,0l-8.379-.225C227.578,87.311,227.241,87.48,222.8,87.367Z" transform="translate(-94.356 -38.178)"/>
    <path id="Path_1990" data-name="Path 1990" class="cls-1" d="M222.8,89.581h-2.812c-1.575,0-4.386.225-4.386.225s7.142.112,9.448,0c2.249-.112,11.585,0,11.585,0s-5.792-.225-8.154-.225C226.06,89.524,222.8,89.581,222.8,89.581Z" transform="translate(-94.356 -39.154)"/>
    <path id="Path_1991" data-name="Path 1991" class="cls-1" d="M223.967,92.616s.956-.056,2.193-.112,7.311.056,7.311.056-1.237-.112-4.949-.169a27.277,27.277,0,0,0-4.5.112s-.45-.056-3.543-.056c-2.306,0-3.936.056-4.668.112l-.112.056h8.267Z" transform="translate(-94.4 -40.39)"/>
    <path id="Path_1992" data-name="Path 1992" class="cls-1" d="M215.494,92.481l.619-.281-1.012.337C215.156,92.481,215.269,92.481,215.494,92.481Z" transform="translate(-94.137 -40.312)"/>
    <path id="Path_1993" data-name="Path 1993" class="cls-1" d="M223.761,91.826H221.68c-1.125,0-3.824.112-4.555.169H216.9s6.073.112,7.76,0,11.135,0,11.135,0-4.33-.169-7.929-.225A20.371,20.371,0,0,0,223.761,91.826Z" transform="translate(-94.925 -40.107)"/>
    <path id="Path_1994" data-name="Path 1994" class="cls-1" d="M218.7,94.744h0l4.892.056v-.056s-.281,0-2.362-.056A13.563,13.563,0,0,0,218.7,94.744Z" transform="translate(-95.713 -41.394)"/>
    <path id="Path_1995" data-name="Path 1995" class="cls-1" d="M231.2,94.769l10.572.056s-2.418-.225-5.848-.225A40.357,40.357,0,0,0,231.2,94.769Z" transform="translate(-101.183 -41.362)"/>
    <path id="Path_1996" data-name="Path 1996" class="cls-1" d="M224.3,99.7l10.572.056s-2.418-.169-5.849-.169A36.277,36.277,0,0,0,224.3,99.7Z" transform="translate(-98.164 -43.541)"/>
    <path id="Path_1997" data-name="Path 1997" class="cls-1" d="M223.4,97.681l4.78.056s-.394-.056-2.474-.056A17.1,17.1,0,0,0,223.4,97.681Z" transform="translate(-97.77 -42.699)"/>
    <path id="Path_1998" data-name="Path 1998" class="cls-1" d="M235.643,97.7c-1.012,0-1.518.056-1.518.056H233.9v.056h2.98v-.056A6.972,6.972,0,0,0,235.643,97.7Z" transform="translate(-102.365 -42.719)"/>
    <path id="Path_1999" data-name="Path 1999" class="cls-1" d="M137.672,66.659a2.243,2.243,0,0,0,.394-.394l4.049-.169-3.768-.225a.517.517,0,0,0,.056-.562c-.225-.562-.619-.619-1.35-.787a1.219,1.219,0,0,0-1.293.337,1.525,1.525,0,0,1-1.518-.169c-.394-.337-.169-.562-.281-1.068-.112-.562-.731-.675-1.631-.225s-.787.112-.787.112.787-1.912-1.181-1.968c-2.024-.112-1.856.506-2.418.281-.562-.169.112-.787-.956-.787s-1.125.225-1.35.619-.562-.394-1.181-.506-.675,1.293-.956,1.575c-.225.281-.562-.169-.844-.337-.337-.169-1.406.562-1.8.169s-.619.619-1.181.169c-.562-.394-.394.394-1.181.675.169-.112.225-.394.225-.787.056-.562-.225-.562.169-.844.394-.337.112-.844.112-1.35-.056-.506.169-.394.394-.731.281-.337.337-.281.169-.731s.281-.675.45-1.293-.337-.394-.225-1.068c.056-.675-.056-.394-.281-.675-.169-.281.281-.281.281-.675-.056-.394-.281-.169-.506-.562s.225.394.337-.619c.056-1.012-.169-1.35-.337-1.406-.225-.056-.562-.619-.506-1.35s0-1.012-.337-1.237c-.337-.169-.394-.844-.394-1.181s-.169-.956-.562-1.012c-.394,0-.169-.619-.112-1.068a.536.536,0,0,0-.731-.562c-.281.169-.394-.675-.394-1.068s-.562-.506-.731-.506-.675-.562-.675-.562-.112-.45-.337-.45v-8.21l1.631-.281.056-.112.056.112,1.35-.056s.394-.056.394-.394c.056-.394-4.668-4.892-4.668-4.892s-10.01-10.122-11.36-11.36C100.669,17.228,90.884,7.78,90.884,7.78S90.659,7.5,90.49,7.5C90.322,7.443,85.6,9.58,85.6,9.58s-.281.506-.619.562a3.888,3.888,0,0,0-.844.112c-.731.169-4.5,1.912-4.668,1.968-.169.112-.112.394-.337.394-.225.056-.562-.169-.731-.056-.225.112-4.611,1.8-4.892,2.081s-.112.562-.225.562a2.8,2.8,0,0,0-1.012-.056c-.337.112-3.936,1.743-3.936,1.743s0,.394-.225.394c-.225.056-.225-.225-.506-.112s-1.912.844-1.912.844-.056.225-.169.281c-.112.112-.45-.112-.45-.112l-2.643,1.181s.169.112-.056.225-.506-.112-.506-.112-1.968.9-2.249,1.125a2.87,2.87,0,0,0-.506.562,9.928,9.928,0,0,0-1.912.225,4.5,4.5,0,0,0-1.012.844,3.753,3.753,0,0,0-1.237.112,12.631,12.631,0,0,0-2.137,1.068.981.981,0,0,0-.394.675,2.314,2.314,0,0,0-.956-.112,8.847,8.847,0,0,0-2.531,1.237c-.225.281-.112.337-.112.337a3.527,3.527,0,0,0-1.012-.056,4.407,4.407,0,0,0-1.631.787.949.949,0,0,0-.225.394,2.917,2.917,0,0,0-1.181.056c-.506.169-3.43,2.081-3.43,2.081s-.112.731-.281.731a2.616,2.616,0,0,1-.675,0s-1.687,1.237-1.743,1.237c-.056.056.056.394-.225.506-.225.112-.675.281-.675.281l-.787.787v.394l-.337.337-1.237.731s.112.506-.112.562a3.275,3.275,0,0,1-.787.169l-1.462,1.012s.169.506-.056.562a2.84,2.84,0,0,1-.844.112l-2.474,1.631v1.012h1.462l-.112-.337s7.536-2.193,9.9-2.868c2.362-.619,20.751-5.848,20.751-5.848L62.71,29.6l2.98,1.237h1.181l4.218-3.318c1.181.169,6.073.844,6.861.9.9.056,3.88,0,3.88,0l-10.179-1.35,2.418-1.856L82.9,26.226v2.081a.84.84,0,0,0,.731.787l11.247.731h.056a.548.548,0,0,0,.506-.225.722.722,0,0,0,.225-.562v-1.35l6.8.787-5.68-1.237-1.125-.112V25.27l1.125.112,2.137-.169-3.318-.337V22.908l1.237.169-1.237-.169V21a.84.84,0,0,0-.731-.787L83.63,19.646a.769.769,0,0,0-.787.787V21l-1.8-.281-1.012-.169,9.448-7.367L111.86,35.336v.112L65.409,31.512l-3.768-.675-30.423,8.21-.225.45h-.225v.562h0v.9c-.056-.337-.169-.675-.225-.9-.169-.506-.675-.9-1.125-.169s-1.125.506-1.125,1.631-.112,1.743-.45,1.687c-.337-.112-1.012.562-.787,1.687.225,1.181-.281.9-.281.9s-.337-.225-.562-.112a.525.525,0,0,1-.056.956V46.7c.45,1.575-.225,1.125-.225,1.125s-.225.9-.394.787c-.225-.056-.225-.956-.619-.787a.694.694,0,0,0-.281.45.34.34,0,0,1,.169.337.423.423,0,0,1-.281.394v.45s-.394-.337-.112.956.056.619-.45,1.237c-.562.619.337.394.281,1.8s-.281,1.125-.675,1.35.225.731.112,1.068c-.056.394-.675,0-.844.619-.112-.169-.225-.337-.45-.337-.394,0-.169-.562-.112-.956a.525.525,0,0,0-.731-.506c-.281.169-.45-.562-.45-.956,0-.337-.562-.45-.731-.45a6.625,6.625,0,0,1-.619-1.068s-.169-.675-.45-.337c-.225.225-.337-.112-.45-.45,1.631-.112,2.924-.225,2.924-.225s-1.293,0-2.98.056c0-.112-.056-.169-.056-.281a.449.449,0,0,0-.844-.112,1.714,1.714,0,0,1-.562.394c-1.518,0-3.149.056-4.443.056C9.68,51.419,4,51.981,4,51.981s7.367-.225,9.448-.281c.787,0,2.193-.112,3.6-.169-.056.056-.056.169-.056.337,0,.675-.056,1.068-.337,1.012h-.169l-2.868-.112a14.767,14.767,0,0,1-2.137.225c-.844,0-7.479.281-7.479.281s7.592.056,8.267-.056c.394-.056,2.531-.169,4.105-.225a.885.885,0,0,0-.281.956.836.836,0,0,1,.056.337c-1.012-.056-3.768-.112-4.5-.056-.956.112-6.748.169-6.748.169H4.45s6.636.225,7.873,0a29.446,29.446,0,0,1,3.768-.169c0,.337-.281.225-.281.225s-.787-.45-.45.562c.337.956-.169.675-.169.675s-.169.562-.337.506-.169-.562-.506-.506c-.225.056-.281.45-.281.731H12.66c-1.068.056-7.2.225-7.2.225s7.367.169,8.1.056a1.583,1.583,0,0,0,.45-.056c-.056,0-.112.169,0,.619a3.584,3.584,0,0,0,.112.394,4.034,4.034,0,0,0-.731.056c-1.406.056-5.792.337-5.792.337s4.443.056,5.9-.112a4.871,4.871,0,0,0,.562-.112,3.057,3.057,0,0,0-.45.225c-.281.225-.112.281.056.506H13c-2.474.112-6.3.506-6.3.506s5.342,0,7.142-.112v.225c-.056.844-.225.675-.506.844-.337.169.169.45.112.675s-.562,0-.619.394c-.056.45.731.844.731,1.125.056.337-.731.169-.731.169L13,63c.169.619-.506.281-.675.562s.45.956.45.956-.844.281-.112.787.45.281.169.787-.619.562-.281.731-.056.562-.281.787.281.731.9.9c.619.112-.169.225-.169.675,0,.506,1.687.619,1.968.731s-.056.787.337.844c.281.056.225.337.337.506L8.049,71.5s3.655,0,7.873.056c0,.056.056.112.112.169.281.45.337-.506.562-.056.112.281.169.056.169-.112H17.5c1.293,0,2.587.056,3.88.056A27.319,27.319,0,0,0,24.245,72a1.1,1.1,0,0,1,.45-.056.618.618,0,0,0,.506-.225h.506l.225.225.169.169h.225a.561.561,0,0,1,.225.281,5.187,5.187,0,0,1-.45-.281c-.619-.056-1.237-.056-1.856-.112a3.622,3.622,0,0,0-1.293.956c-.675.619-.675-.506-1.237-.619-.506-.112-.562-.337-.731.112s-1.406-.112-1.293,0a1.092,1.092,0,0,1-1.293.337s-.169-.731-.45-.394c-.337.337-.394,1.068-.731.956-.337-.056-.506-.675-.9-.225a1.176,1.176,0,0,0-.225.337h-.9c-.225-.281-.337-.169-.506,0-2.756.112-4.836.112-4.836.112h4.724c-.112.169-.281.337-.45.169-.45-.337-.9.619-1.237.45a.2.2,0,0,1-.112-.056c-.394,0-.45.619-.112.787a3.637,3.637,0,0,0,.731.225c.169,0,.281.225.281.394,0,0,.787.056.45.281-.281.169.056.562.056.562,0,.056,1.125-.112,1.012.056-.169.225,1.068.337,1.518.281a2.169,2.169,0,0,1,1.181.169c.112.169.394.337,1.012.394.562.056.787-.675,1.125-.394.281.225.731.675.9.394a5,5,0,0,1,2.081-.619c.337,0,.731.225,1.181.281a1.823,1.823,0,0,0,1.012-.337l2.531-.394a.2.2,0,0,0,.112-.056c3.318.056,7.254.169,11.022.281,1.912.169,4.161.337,6.017.45a33.639,33.639,0,0,0,4.218-.112c1.968.112,3.262.169,3.318.225.394.394-8.941.45-11.36.731s-18.558,0-18.558,0,33.291.619,33.91,1.068c.619.506-4.443.281-5.117.394s-29.074.787-29.074.787,33.123.281,33.741.619-10.516.844-10.516.844,31.436-.169,35.035-.112,6.636.281,6.636.281-14.115.112-18.67.394-28.793,1.181-28.793,1.181,48.7-1.125,49.656-.675c.956.394-.675.619-.675.619L47.808,84.373s17.489.112,20.751.225,24.294-.844,24.294-.844l-3.543-3.6V78.975H104.1v-.787H89.309v-.619H103.2v-.787H89.309v-.562H101.85v-.787H89.2v-.675h11.528V73.97H89.2v-.675H99.6v-.844H89.2v-.675h9.673l-.056-.056h.056V67.446l1.068.9V70.6h-.169v1.35h0v1.068h1.406v1.462H102.3v1.462h1.237v1.406h1.293v1.687h.787v.731h.9l2.924,2.643,15.465-.562s-12.2-.394-13.665-.675,14-.844,14-.844a61.446,61.446,0,0,1-6.973-.562c-1.687-.394,13.5-.675,13.5-.675s-8.6-.731-9.448-.844c-.787-.169,15.127-.619,15.127-.619s-4.78-.562-7.648-.562H121.87v.675h0V76.107h15.577s-9.054-.956-10.235-.956h-5.286V73.52a38.483,38.483,0,0,0,4.33.394h4.386a34.115,34.115,0,0,0,4.105.506h5.624s-8.66-1.068-9.9-1.125c-1.181-.056-8.548-.225-8.548-.225v-.506c1.35,0,8.042-.056,10.01,0,2.193.112,7.817.225,7.817.225s-8.042-1.237-10.46-.844c-2.137.337-6.3-.394-7.311-.562v-.675c1.068,0,8.717-.056,10.347,0,1.743.056,6.748.394,6.748.394s-8.323-1.406-9.279-1.068a2.426,2.426,0,0,1-1.912-.281,18.12,18.12,0,0,1-3.768.45c-.9-.112-2.362-.281-2.98-.394h0s4.218-.281,5.849-.281a3.4,3.4,0,0,0,.844-.112l11.36.394s-4.274-1.293-5.174-.731c-.844.562-1.687-.394-1.687-.394h-3.487a.348.348,0,0,0,.112-.225l.112-.337,12.6-.281a70.625,70.625,0,0,0-7.2-.45,30.818,30.818,0,0,1-4.949-.562l.112-.337ZM116.415,33.93h0l-1.575-1.518C115.74,33.311,116.415,33.93,116.415,33.93ZM83.573,20.321c0-.056,0-.056.056-.112l.056-.056h0l11.247.562a.121.121,0,0,1,.112.112v8.1c0,.056,0,.056-.056.112a.2.2,0,0,1-.112.056L83.63,28.363a.121.121,0,0,1-.112-.112V20.321ZM14.01,56.761Zm1.181,2.587c0,.506-.112.562-.112.562s-.394.056-.281-.225-.281-.562-.112-.675-.337-.506,0-.731.169-.956.45-.787.45.787.169,1.012a.272.272,0,0,0,0,.45S15.191,58.786,15.191,59.348Zm.337,1.912c-.169,0-.281-.169-.281-.394s.112-.394.281-.394.281.169.281.394A.306.306,0,0,1,15.528,61.26Zm.675-5.117c.169-.225-.112-.619.056-.675s-.225-.562.169-.675c.337-.112.394-.844.619-.619s.225.9-.056,1.012-.112.394-.112.394-.112-.112-.225.337c-.112.506-.225.506-.225.506S16.034,56.312,16.2,56.143Zm.45,1.743c-.169,0-.337-.169-.337-.45,0-.225.169-.45.337-.45s.337.169.337.45A.341.341,0,0,1,16.653,57.886Zm.112,13.328c.056-.056.394-.225.506,0ZM17.89,53.162a.438.438,0,0,0,.394,0c.169-.112.281-.562.506-.506s.169.112.169.562a1.411,1.411,0,0,0,.225.956c.112.112.169-.562.337-.506s0,.787.337.844.619-.056.731.506c.112.619.056,1.125.281,1.237s1.012-.225.956.337.281,1.181-.112,1.125.112.394.337.844a.492.492,0,0,1-.169.675s.45.506.45.169.506-.056.506.281a5.014,5.014,0,0,0,.112.619c-.225.056-.506,0-.675.225v.056a.2.2,0,0,1-.112.056c-.281.281-.787-.056-.506-.281s.675-.169.394-.506-.731-.337-.675-.619.506-.506.056-.9c-.394-.337-.619.056-.562.225s-.225.337-.394.112.281-.45.225-.562.506-.337.169-.675c-.169-.169-.056-.337.056-.45-.112.056-.281,0-.45-.281-.337-.562.225-.169-.337-.562-.562-.337-.337.169-.675.281-.394.112.337-.675.225-1.012-.112-.281.056-.731-.225-.787s-.45.45-.619,0c-.225-.337.112-.731-.225-.731s-.394.056-.731-.225A.321.321,0,0,1,17.89,53.162Zm0,2.587c.169,0,.337.169.337.45a.49.49,0,0,1-.337.45h-.056c-.169,0-.337-.225-.337-.45C17.553,55.918,17.721,55.749,17.89,55.749Zm-.169,2.924c.112,0,.169.112.169.225s-.056.225-.169.225-.169-.112-.169-.225C17.553,58.73,17.609,58.674,17.721,58.674Zm-.169,3.768a.286.286,0,1,1,.281.337A.315.315,0,0,1,17.553,62.441Zm.9,8.717c.112-.112.169-.281.225-.169.056.056.112.112.112.169Zm.225-5.848c-.169.281-.337-.281-.45,0a.835.835,0,0,1-.281.394s-.281-.787.112-.956.506.112.787.112C19.184,64.916,18.9,65.028,18.677,65.309ZM19.746,71.1a.776.776,0,0,1,.225-.169c.056.056.169.112.225.169Zm.169-10.516c-.562.056,0,.731,0,.731s.225.619-.225.506-.169-.169-.169-.169.169-.675,0-.787-.337-.787.056-.787.169-.675.675-.394C20.7,59.911,20.477,60.529,19.915,60.586Zm2.249,4.668a.5.5,0,0,0-.45,0s.169-.45,0-.619-.562-.169-.45-.45c.056-.281.337-.562.506-.337s0,.506.169.506C22.164,64.353,22.389,65.366,22.164,65.253Zm.112-1.968c-.337.169-.394-.45-.394-.45s.056-.169-.281-.169.112-.225-.281-.394c-.394-.112-.394.056-.562-.169a.729.729,0,0,1-.169-.394s.112-.337.394-.394c.225-.056.337.225.337.225s.169-.45.337-.169a1.616,1.616,0,0,1,.281.844c-.056.112.112.169.281.337a.6.6,0,0,0,.169.562C22.445,63.229,22.389,63.285,22.277,63.285Zm.619,7.7a.394.394,0,1,1,.394-.394C23.345,70.82,23.176,70.989,22.9,70.989Zm.9-12.316c-.056-.281-.112-.45-.337-.562a1.158,1.158,0,0,1-.394-.956c.281.45.787.9.844,1.237A.33.33,0,0,1,23.795,58.674ZM16.034,73.52c0,.056,0,.056-.112.056a.207.207,0,0,1-.169-.056Zm.506,2.193c-.225.112.056.337-.169.45s-.225-.281-.394-.225-.337.056-.337-.225c-.056-.281,0-.619.225-.562a.387.387,0,0,1,.281.225s.337-.394.562-.169A.343.343,0,0,1,16.541,75.713Zm6.242-.844c-.281.337-.337-.506-.506-.281s-.056.506-.225.675-.45-.169-.45-.169a.424.424,0,0,1,.056-.506s-1.181.506-1.125.337,1.125-1.068.956-1.012-.337-.45,0-.506.731.056.562.225c-.169.225.675.169.675.169a.518.518,0,0,0,.056.562C22.951,74.532,23.064,74.532,22.783,74.869ZM82.055,36.854l14,.956v.619c-3.43-.225-11.135-.731-13.721-.731h-.281Zm0,1.406c2.306.169,4.5.281,5.4.281,1.687.056,6.186,0,8.66,0v.506l-10.4-.562a.722.722,0,0,0-.562.225.652.652,0,0,0-.225.562v1.068l-2.868-.112Zm13.384,8.717v-.394c.056,0,.056,0,.112-.056l.562.056v.45Zm.619.675v2.193l-.619-.056V47.6Zm-.394-2.193V40.509a.266.266,0,0,0-.281-.281L91.615,40a.266.266,0,0,0-.281.281v4.949l-.956-.056V40.228a.266.266,0,0,0-.281-.281l-3.768-.225a.266.266,0,0,0-.281.281v5l-.562-.056v-5.68c0-.056,0-.056.056-.056,0,0,.056-.056.056,0l10.4.562v5.68Zm-.281-1.125v.225L93.7,44.446v.844h-.281v-.844l-1.687-.112v-.225l1.631.112V42.14l-1.687-.112V41.8l1.631.112V40.284h.281v1.631l1.687.112v.225l-1.687-.112v2.081ZM93.977,46.92v-.394l1.012.056v.394Zm1.012.731v2.193l-1.012-.056V47.6Zm-2.531-.787v-.45l1.068.056v.394Zm1.068.731v2.193l-1.068-.056V47.539Zm-2.474-.787V46.3h.394a.207.207,0,0,0,.169.056h.394v.45Zm1.012.731v2.193l-1.012-.056V47.483ZM88.072,46.7v-.506l1.068.056v.506Zm1.068.731v2.137l-1.068-.056V47.37Zm-.787-3.262v.9h-.281v-.9l-1.687-.112v-.225l1.631.112V41.859l-1.687-.112v-.225l1.631.112V40h.281v1.631l1.687.112v.225l-1.687-.112V43.94l1.687.112v.225Zm-1.8,2.474v-.562l1.068.056v.506Zm1.068.731v2.137l-1.068-.056V47.314Zm1.968.056,1.012.056v2.193L89.59,49.62Zm0-.675v-.506h.562c.056,0,.112,0,.112-.056H90.6V46.7Zm-3.936-.112a.121.121,0,0,1-.112-.112v-.506l.562.056V46.7Zm.506.675v2.081l-1.012-.056V47.033a.713.713,0,0,0,.506.225Zm-4.105-6.58a6.534,6.534,0,0,0,.731.056l2.081.056v1.687L82,42.478V40.734Zm0,2.137c.619.112,1.181.225,1.181.225l1.687-.056V44.9l-2.868-.169ZM84.7,45.964v3.374l-1.068-.056V45.908ZM82.055,45.8l1.125.056v3.43l-1.125-.056Zm0,3.993,14,.675v.562l-14-.675Zm0,2.081,14,.675v.506l-14-.675Zm0,1.068,14,.675v2.249l-10.4-.562a.722.722,0,0,0-.562.225.837.837,0,0,0-.225.506L82,55.918v-2.98Zm3.487,8.379V59.067h0v-.45h0V56.03c0-.056,0-.056.056-.056,0,0,.056-.056.056,0l10.4.562v7.311l-10.4-.394a.121.121,0,0,1-.112-.112v-1.8h0Zm-3.487-4.724,2.868.169v1.856L82.055,58.5Zm0,2.362,2.868.112v2.249H82.055Zm0,2.362c.281,0,1.181.056,2.868.112v1.8a.7.7,0,0,0,.675.731l10.46.394v.506L83.123,64.3l-1.068-1.181Zm14,4.161V66.6l-11.135-.337L83.63,64.859C86.835,65.028,93.3,65.366,96.058,65.478Zm-14,.112.619.675h-.619Zm0,.956a7.341,7.341,0,0,1,.956.056l3.88,4.218H82.055V66.546Zm-3.993.9h-.225V65.366l1.125.056v-.056l-1.125-.112v-.562h1.575V70.2H77.837V67.615l1.125.056v-.056Zm-3.88-3.824V54.4a1.248,1.248,0,0,1,.056-.506l5.117.337v9.448Zm2.137,3.824V65.253l1.012.056v2.137Zm1.068.169V70.2H76.375V67.559ZM76.319,65.2v-.506h1.012V65.2Zm-.394.056v2.193h-.844V67.5l.844.056v2.7H74.857V64.634h1.068v.506h-.844V65.2Zm-1.237,7.929h.787V77.4h-.787Zm0,4.668H86.61V72.732H74.688v-.45H87.06v5.961H74.688Zm1.237-.394V73.239h1.068v4.274H75.925Zm1.462,0V73.182H78.4v4.274Zm1.518,0V73.182h1.068v4.274Zm1.518,0V73.182h1.068v4.274Zm1.462,0V73.182h1.181v4.274Zm1.631,0V73.182H84.81v4.274Zm1.687,0V73.182h.956v4.274ZM74.688,71.664v-.45H87.172v.45ZM70.7,44.165v-.394h5.174l3.543-.225v1.068Zm6.692,1.406V49l-1.012-.056v-3.43Zm-1.462-.056v3.43l-1.068-.056v-3.43ZM74.407,45.4v3.487l-1.068-.056V45.346Zm-1.518-.056v3.487l-1.012-.056V45.289Zm-1.462-.112V48.72l-1.068-.056V46.358c.056,0,.056-.056.112-.056a.722.722,0,0,0,.225-.562v-.562Zm6.355.337,1.575.112v3.43l-1.575-.056Zm2.812,7.311V36.742l1.068.056V49.732h0V70.82H80.593ZM64.453,35.673l14.9,1.012V37.7H74.013s2.418.169,5.342.394v2.081l-1.912-.112s1.068.281,1.912.45v1.912l-1.293-.056s.619.112,1.293.225v.956l-8.717-.112v-1.35l3.993.225s-2.249-.394-2.587-.506c-.056,0-.562-.056-1.406-.112V39.835l2.756.225s-1.068-.337-1.912-.562c-.112,0-.394-.056-.787-.112V38.26a.84.84,0,0,0-.731-.787l-.9-.056,6.411-.225a28.239,28.239,0,0,1-5.117-.394,16.558,16.558,0,0,0-3.88-.337L64.453,36.4v-.731Zm0,1.406,4.443.337-4.443-.225Zm0,.787,5.455.281a.121.121,0,0,1,.112.112v5.848l-.675-.056v-5.23a.356.356,0,0,0-.281-.337L65.016,38.2a.324.324,0,0,0-.337.337v5.23H64.4v-5.9Zm2.868,7.873v-.45l1.012.056v.45Zm1.068.731v2.137l-1.012-.056V46.414Zm-1.237-3.43v.9h-.281v-.9l-1.687-.112V42.7l1.631.112V40.734l-1.687-.112V40.4l1.631.112V38.879h.281v1.631l1.687.112v.225l-1.687-.112v2.081l1.687.112v.225Zm-1.293,2.643v-.45l1.068.056v.45Zm1.068.731v2.137l-1.068-.056V46.358Zm1.912.056,1.068.056h.056v2.137L68.9,48.607V46.47Zm1.068-.619L68.84,45.8v-.45h.225a.356.356,0,0,0,.337-.281l.562.056-.056.731ZM64.453,44.84h.281a.356.356,0,0,0,.281.337h.45v.45l-.956-.056V44.84Zm0,1.462.956.056v2.137l-.956-.056Zm0,2.643,3.936.169h.45l10.572.506v.562l-14.9-.675v-.562Zm0,2.081,14.9.731v.562l-14.9-.731Zm0,3.093L69.4,54.4a.121.121,0,0,1,.112.112v7.367c0,.056,0,.056-.056.112H69.4l-4.892-.169v-7.7Zm0,8.323,4.892.169H69.4a.907.907,0,0,0,.506-.169.722.722,0,0,0,.225-.562V61.2l3.43.112v1.856l-9.11-.112Zm9.11-3.205v1.406h-3.43V59.123Zm-3.43-.956V56.424l3.43.169v1.8C73,58.336,71.708,58.336,70.133,58.28Zm3.43,6.355v1.293h-.225V64.634ZM71.82,65.928v-1.35h1.012v1.293Zm1.068.337V70.82H71.876V66.265Zm-2.531-.337v-1.35h1.068v1.35Zm1.068.337V70.82H70.358V66.209Zm-2.587-.281V64.578h1.068v1.35Zm1.068.225V70.82H68.84V66.209Zm-2.587-.225V64.522h1.012v1.406Zm1.068.225V70.82H67.377V66.153Zm-2.531-.225V64.522h1.068v1.462Zm1.068.169V70.82H65.859V66.153Zm-2.474-1.631h.956V66.04h-.956Zm0,1.631h.956V70.82h-.956ZM62.879,35.561l1.181.056V62.441h0V70.82H62.879ZM61.81,31.737h.731a6.789,6.789,0,0,1-.112,1.631c-.169.787-.619.956-.619.956V31.737ZM31.443,39.891l.562-.112V39.5h.169v.281l7.254-1.631V40c-.394.056-.844.112-1.237.169h-.112l-4.724.675a.8.8,0,0,0-.337.112,6.453,6.453,0,0,1-.787.112v-1.35l-.169.056v1.35a1.8,1.8,0,0,1-.394.056,2.353,2.353,0,0,0,.394-.056v1.293l-.169-.337s-.169-.787-.45-.675V39.891Zm7.029,21.145c.112-.956-.112-.562-.337-1.012s.394-.45.337-.956-.337-.225-.675-.787l1.631.112v6.3c0-.056-.056-.169-.056-.225-.225-.619-.787-.956-.562-1.856C38.979,61.654,38.36,61.991,38.472,61.035Zm-.731-2.812c-.281-.506.337.619.45-.844v-.731h1.237v1.575Zm.45-1.968c-.056-.619-.281-.844-.45-.9a1.96,1.96,0,0,1-.619-1.462h2.306V56.2A9.112,9.112,0,0,0,38.191,56.255Zm-2.081.169c-.281-.225-1.012-.281-.844-.731s.675-.844,1.012-.506-.056.787.337.787c.394-.056.844,1.518.337,1.35a.99.99,0,0,0-.787,0S36.392,56.649,36.11,56.424Zm.506,2.587s.056-.169.394-.281c.394-.169.394.112.619.562.169.45-.619.562-1.012.225S36.617,59.011,36.617,59.011Zm.45-5.174v-.45c.056-.844,0-1.293-.225-1.575h2.587v1.8C38.472,53.725,37.629,53.781,37.067,53.837Zm-.394-2.193h0c-.394-.281-.506-1.181-.506-1.743a.713.713,0,0,0-.056-.337h3.318v1.912C38.472,51.532,37.516,51.588,36.673,51.644Zm-.619-2.362c-.112-.394-.337-.787-.675-.844-.45-.056-.281-.675-.169-1.293h4.218v1.968C38.472,49.17,37.235,49.226,36.054,49.282Zm-1.462-4.836v1.012h-.169V44.446l-.787.056c0-.056,0-.112-.056-.112l.787-.056V43.1l-.731.112V43.1l.9-.112v-.9H34.7v.9l.844-.112V41.634a.206.206,0,0,0-.225-.225l-1.575.225c-.056,0-.112.112-.112.225v2.362l-.112-.112.056-2.587,4.555-.675v5.286l-2.924.281c0-.056-.056-.056-.056-.112l.281-.056c.112,0,.169-.112.169-.225V44.333Zm.619,2.587h0l2.812-.281a.607.607,0,0,0,.394-.169.713.713,0,0,0,.225-.506V44.952l.787-.056v1.8A27.729,27.729,0,0,1,35.211,47.033Zm3.655-2.418h-.225V42.646l.787-.056v2.024Zm-.225-2.249V40.791a.639.639,0,0,0-.169-.45c.337-.056.619-.056.956-.112v2.024C39.147,42.309,38.866,42.309,38.641,42.365Zm-5.68-1.35a.639.639,0,0,0-.169.45l-.056,2.362a4.608,4.608,0,0,1-.506-.956V41.128C32.4,41.072,32.68,41.072,32.961,41.016Zm-3.712.562c.787-.112.169-.731.169-.731s.169-.562.619,0,.281.844-.225,1.012-.281.506-.281.506-.056.45-.394.281-.225-.281-.225-.281S28.406,41.69,29.25,41.578Zm-.956,2.137a.207.207,0,0,1,.169.056c.056-.056.169-.169.225-.169,0-.056,0-.112.056-.112.281-.225.394-.337.675-.169.281.225-.056.45.112.731.112.281.169.45,0,.675-.112.225.506.394.506.394s.619,0,.506-.394c-.112-.45.169-.731.45-.45a.774.774,0,0,1,.281.9c-.056.45.225.562.225.562s.281.337.731-.112c.225-.225.394,0,.45.281v.619a.309.309,0,0,0-.281.394c0,.45.281.9.506.9s.394.112.337-.619l.506-.056a2.2,2.2,0,0,1,.225.281s-.169.562.112.787a.72.72,0,0,1,.394.731c0,.281-.394.225-.394.562,0,.281.056.731-.506.562-.619-.169.394.45.394.45s-.281.45,0,.394c.281-.112.675-.45.844.112s-.45.844-.45.844-.45.169,0,.562.731.45.787-.112c.112-.506.731.281.731.281s.225.337-.45.731.675.506.675.506.337.281-.281.506c-.619.169-.731-.619-.731-.619s0-.281-.394-.394c-.45-.056-.112.675-.112.675s0,.281-.506.056-.337-.562-.337-.562-.394,0-.337-.337c0-.337.619-.394.619-.394s.169-.562-.337-.506-.169.337-.731.337-.562.056-.675-.394.225-.394.45-.675.281-.337-.056-.619a.624.624,0,0,1-.112-.731s-.169.225-.281-.169.169-.169,0-.562c-.225-.337-.394-.506-.506-.337s-.506-.169-.45-.394.787-.337.394-.731c-.394-.45-.281.169-.562-.225s.337-.562.112-.787c-.225-.281-.169-.394-.281-.619a.6.6,0,0,0-.787-.056c-.169.169.169.337.225.619,0,.225.056.619-.281.731s-.562-.112-.562-.506.337-.112.337-.45.112-.337-.056-.619-.281-.169-.506-.45c-.225-.225-.056-.225-.225-.619a.916.916,0,0,0-.169-.337h-.056c-.112,0-.169,0-.225-.056-.169.056-.281.337-.562.281s-.506-.619-.506-.619A1,1,0,0,1,28.294,43.715Zm5.567,14.171s.281.619-.281.506-.225-.169-.225-.169.225-.675,0-.787-.394-.787.112-.787.225-.675.787-.394c.619.281.337.956-.337.956C33.186,57.155,33.861,57.886,33.861,57.886ZM32.4,62.722c-.45-.281-.619-.562-.337-.787s.281.056.787.169.675.056.675.45a.581.581,0,0,1-.506.675c-.394.169-.506,0-.506,0S32.849,63,32.4,62.722Zm-4.386,10.8v-.281a12.236,12.236,0,0,1,3.262.337c.337.169-.956.337-2.98.562C28.35,73.913,28.181,73.745,28.013,73.52Zm-.45-19.682c.169-.169.225.056.45-.169.169-.169,0-.45-.056-.731-.225-.112-.394-.45-.225-.619a1.079,1.079,0,0,1,.45-.281s.562-.844.787-.506a.607.607,0,0,1-.169.844l-.056.056a1.4,1.4,0,0,1,.394.169s.619-.731.956.112a.643.643,0,0,1-.45.956s-.9.056-.9.394c0,.394-.506.506-.844.619s-.056.675,0,.731h-.619s-.956.056-.844-.675.787-.45,1.068-.45S27.394,53.95,27.563,53.837Zm-.225-4.105s-.112-1.012.225-1.012a1.059,1.059,0,0,1,.844.562c.169.337,0,.956-.394.844A1,1,0,0,1,27.338,49.732ZM32.4,56.593c-.394.225-.787.169-.787-.112a.773.773,0,0,1,.112-.337c.225-.225.619-.787.844-.337C32.793,56.2,32.793,56.424,32.4,56.593Zm.394,4.443a.444.444,0,0,1,.45.45.414.414,0,0,1-.45.45.45.45,0,0,1,0-.9Zm-.675-7.423a.578.578,0,0,1-.562,0s-.731-.394-.45-.619c.281-.169.506-.562.731-.281C32.118,52.994,32.4,53.444,32.118,53.612Zm-1.237,2.137-.281-.506s-.169-.956.281-.731.731.506.619.731A2.972,2.972,0,0,1,30.881,55.749Zm.337,3.543a.564.564,0,0,1-.562.562.531.531,0,0,1-.562-.562.564.564,0,0,1,.562-.562A.531.531,0,0,1,31.218,59.292Zm-.337-8.154c-.337-.112-.337.956-.787.956s-.394-.956-.394-.956-.506.169-.562-.281.337-.394.787-.394c.45-.056.281-.562.9-.394C31.5,50.126,31.218,51.25,30.881,51.138Zm-3.543,5.511a.6.6,0,0,1,.619.337s.337-.619.619-.225A2.815,2.815,0,0,1,29.137,58c-.056.225.169.225.562.562.337.337.619.675,0,.956-.619.225-.731-.675-.731-.675s.169-.281-.506-.281c-.619,0,.225-.337-.506-.562-.731-.169-.675.112-1.012-.281a1.621,1.621,0,0,1-.337-.562A1.161,1.161,0,0,1,27.338,56.649Zm2.812,4.668a.619.619,0,1,1-.619-.619A.624.624,0,0,1,30.15,61.317Zm1.012,3.43c-.394-.056-.169.506-.562.394-.394-.056-.112-.562-.45-.619s-.506-.169-.394-.562.394-.731.675-.506a.546.546,0,0,1,.225.506s.731-.225.956.169C31.837,64.578,31.555,64.8,31.162,64.747Zm.45-5.455a.444.444,0,0,1-.45-.45.484.484,0,0,1,.45-.45.45.45,0,1,1,0,.9ZM27.394,46.527c.787-.112.169-.731.169-.731s.169-.562.619,0a.862.862,0,0,1,.281.619.705.705,0,0,1,.619.562c.056.394-.394.562-.394.562h-.169a2.144,2.144,0,0,1-.506-.45.421.421,0,0,1-.056-.281c-.394.169-.225.45-.225.45s-.056.45-.394.281-.225-.281-.225-.281S26.55,46.639,27.394,46.527Zm-.337,4.218c.506.056.506.225.506.562s-.169.506-.562.394a1.188,1.188,0,0,1-.619-.506A.66.66,0,0,1,27.057,50.744Zm-1.575-1.462c.337,0,.619.169.619.394s-.281.394-.619.394-.619-.169-.619-.394C24.863,49.507,25.145,49.282,25.482,49.282Zm.619,2.924a.506.506,0,1,1-.506-.506A.5.5,0,0,1,26.1,52.206Zm-1.293,10.46c-.056-.281-.281-.112-.506-.45s.169.225.281-.337a.435.435,0,0,1,.394.45A.273.273,0,0,1,24.807,62.666Zm.731-7.929a.506.506,0,1,1-.506.506A.5.5,0,0,1,25.538,54.737Zm.731,9.954a.746.746,0,0,1-.619.281s-.844-.169-.394-.562C25.651,64.016,26.607,64.353,26.269,64.691Zm-.225-5.9a.45.45,0,1,1,.9,0,.484.484,0,0,1-.45.45C26.269,59.292,26.044,59.067,26.044,58.786Zm.731,3.655a.555.555,0,0,1,.506-.562.519.519,0,0,1,.506.562.555.555,0,0,1-.506.562A.6.6,0,0,1,26.775,62.441Zm1.181,13.272-.169-.169c-.169-.225-.225-.394-.112-.562a26.314,26.314,0,0,1,4.049.281C32.062,75.432,30.262,75.6,27.956,75.713Zm5.624-9.391c0,.506.169.619-.562.619-.675.056.169-.956-.337-.956s-.619.45-1.012.394c-.337-.056-.337-.731-.337-.731a.652.652,0,0,1,.619-.506s.45.281.675.225.112-1.012-.169-1.181.112-.844.562-.562c.506.337.844.956.394.956-.45-.056.675,1.012.675,1.012A.87.87,0,0,0,33.58,66.322ZM35.042,65.2a.48.48,0,0,1-.394,0,.441.441,0,0,1-.056-.844h0c.619-.225.562-.112.675.225C35.436,64.8,35.323,65.028,35.042,65.2Zm.394-1.575c.225-.394-.506-.787-.169-1.012.281-.225-.619-.731,0-1.068s.337-1.462.844-1.181c.562.225.787,1.181.281,1.518s-.056.619-.056.619-.225-.169-.225.619c-.056.787-.225.844-.225.844S35.211,64.016,35.436,63.622Zm2.137,3.768a.99.99,0,0,0-.787,0s.281-.675,0-.9-1.012-.281-.844-.731.675-.844,1.012-.506-.056.787.337.787C37.629,66.04,38.079,67.559,37.573,67.39Zm.225-2.531a.441.441,0,0,1-.056-.844h0c.619-.225.562-.112.675.225a.475.475,0,0,1-.225.675A1.1,1.1,0,0,1,37.8,64.859Zm.844,4.049h-.45c0-.112.056-.225.281-.45.506-.45.169-1.237.112-1.912-.056-.731.225-.619.562-1.068.112-.169.225-.281.281-.394v3.037c-.056,0-.112.056-.225.112A.873.873,0,0,0,38.641,68.908Zm3.037,3.43c-.112-.281-.169-.562-.281-.787a.207.207,0,0,1,.169-.056.444.444,0,0,1,.45.45A.411.411,0,0,1,41.678,72.339Zm.281-1.575c-.506,0-.281-.787-1.012-.619-.056,0-.112,0-.112.056a3.626,3.626,0,0,0-.619-.9,1.348,1.348,0,0,0-1.068-.337c0-.169.056-.281.337-.281.562,0,1.125.506,1.462.675.281.225,1.293.112.956-.675s.112-.844.562-.619c.506.225.9.056.9-.675s1.012-.675,1.237-.225.675.675.956.169c.281-.562.731.169.731.169s.562-.506.956-.169.787.619.619,1.125-.675,1.462-1.012,1.125-.056-1.518-.45-1.406-.337.787-.562.844-1.068.844-1.012.112.112-1.181-.394-.787-1.293.225-1.35.619.225.112.225.619-.394.956-.844.562C42.071,69.7,42.465,70.764,41.959,70.764Zm1.012,2.474c-.281,0-.506-.112-.506-.281s.225-.281.506-.281.506.112.506.281A.527.527,0,0,1,42.971,73.239ZM43.2,72A.506.506,0,1,1,43.7,71.5.5.5,0,0,1,43.2,72Zm.506-1.856a.444.444,0,0,1,.45-.45.414.414,0,0,1,.45.45.45.45,0,0,1-.9,0Zm.45,1.35c.056-.225.394-.337.731-.225s.562.337.506.562-.394.337-.731.225C44.321,72,44.1,71.72,44.152,71.5Zm1.181,3.993a.562.562,0,0,1,0-1.125.6.6,0,0,1,.562.562A.53.53,0,0,1,45.333,75.488Zm.619-1.912a.45.45,0,1,1,.45-.45A.484.484,0,0,1,45.952,73.576Zm.9-2.868c-.619.45-.956.731-.956.731a4.259,4.259,0,0,0-.562-.731c-.169-.112-.562-.45.281-.731.787-.281.281-.225.731,0S47.47,70.258,46.851,70.708Zm.787,1.631a.506.506,0,1,1,.506-.506A.5.5,0,0,1,47.639,72.339Zm.956,1.237a.45.45,0,1,1,.45-.45A.484.484,0,0,1,48.595,73.576Zm1.068,1.912c-.337,0-.619-.112-.619-.281s.281-.281.619-.281.619.112.619.281C50.226,75.375,49.944,75.488,49.663,75.488Zm.675-1.35a.506.506,0,1,1,.506-.506A.5.5,0,0,1,50.338,74.138Zm.506-1.462c.394-.337-.225-.562-.619-.337s-1.687.281-1.181-.337.225-1.012-.45-1.012c-.675-.056-.619.056-.675-.619s-.169-.056-.281-.394c-.056-.281.112-.281.169-.281-.056-.787.169-1.8.787-1.575.731.281.169,1.518.45,1.462a4.429,4.429,0,0,1,.9-.45v-.169c-.056-.787-.112-.394-.337-.619s-.112-1.293-.619-.787-.281.281-.844-.112c-.619-.394-.844-.956-1.8-.619s-.787.337-1.462-.112c-.619-.506-1.912-.675-2.024.225-.169.9-.787.112-1.237.562-.281.337-.225.562-.394.619V62.835l5,.787H50.9s-4.105-.337-5.455-.394c-1.181-.056-3.487-.337-4.161-.45v-4.33l1.575.056v1.687h0a.732.732,0,0,0,.619.731l6.636.45h.056a.639.639,0,0,0,.45-.169.652.652,0,0,0,.225-.562V53.05a.691.691,0,0,0-.619-.731h0l-6.523.562h0a.639.639,0,0,0-.45.169,1.176,1.176,0,0,0-.225.337c-.506.056-1.012.056-1.631.112v.394h1.575V56.03c-.45,0-1.012.056-1.575.056V51.644h1.8l9.11-.844V69.133l-.675-.169.056,1.181c0-.056-.056-.112-.056-.225-.056-.675-.112-1.012-.619-1.012a1.234,1.234,0,0,0-.675.281l.056.056c.281.506.787.281.787.675s-.506.337-.787.619-.394.844,0,.9c.281.056.9-.225,1.293-.225l.056,1.968C50.676,72.845,50.451,73.014,50.844,72.676ZM41.172,58.224V56.537c0,.056.056.056.056.112h1.518v1.575Zm2.193,2.024.056-6.636c0-.056,0-.056.056-.056h0L50,52.994v7.648c0,.056,0,.056-.056.056l-6.58-.394C43.421,60.3,43.365,60.3,43.365,60.248ZM41.172,49.113V42.421l1.631-.112V44.39l-1.575.112v.337l1.575-.112v1.518h0a.907.907,0,0,0,.169.506H41.284v.394c1.856-.056,6.3-.225,8.6-.337h-3.88l4.218-.337a.639.639,0,0,0,.45-.169.652.652,0,0,0,.225-.562V43.884l1.181-.112-1.181.056V41.24l1.35-.225v9.841c-.619.056-6.073.394-7.423.337-.45,0-1.856.056-3.543.112V49.62c1.518,0,2.812,0,3.318-.056,1.856-.112,6.748-.45,6.748-.45Zm0-6.973V40.06a4.2,4.2,0,0,0,.619-.112,8.574,8.574,0,0,1,1.068-.169L42.8,42.028C42.3,42.028,41.734,42.084,41.172,42.14Zm2.249,4.105.112-6.523h0c0-.056,0-.056.056-.056h.056l6.58-1.181v7.254c0,.056,0,.056-.056.056h0l-6.692.506C43.421,46.3,43.421,46.3,43.421,46.245Zm8.492,30.2c.112-.056.281-.056.394-.112l.844.394A6.719,6.719,0,0,0,51.913,76.444ZM54.05,35V69.7l-.9-.225v-34.3l-.225.056a4.341,4.341,0,0,1-.112.844c-.112.731-.45.9-.45.9V35.336l-.225.056v5.624c-.112,0-.619.112-1.35.169V38.6c.675-.112,1.125-.169,1.125-.169s-.45.056-1.125.112v-.056a.691.691,0,0,0-.619-.731h-.056l-6.636,1.181a.639.639,0,0,0-.45.169.486.486,0,0,0-.169.337c-.394.056-.787.112-1.125.169-.169.056-.394.056-.619.112V37.754l-.225.056V56.087h0V68.121h-.056a2.823,2.823,0,0,1-.675-.112V37.979l-.731-.056V37.3h1.8v.45l10.966-2.362V34.38h1.012v.787L54.05,35v-.562h.281V35l7.2.506v.9l-5.567-.169.675.337,4.836.337v.112L58.6,36.854a.769.769,0,0,0-.787.787V38.2c-1.687-.169-2.868-.225-2.868-.225v.562l2.868.225v2.024c-1.687-.112-2.868-.169-2.868-.169v.562l2.868.169v1.912l-2.812-.056v.562h2.868v.562l-3.543.45V34.942h-.112Zm7.479,15.858v.562l-6.861.394V49.563l6.861-.731v.562l-6.636.675V51.25Zm0,7.929v.225h-.112v1.8h-.281v-1.8L59.448,58.9v-.225l1.631.112V56.705l-1.687-.112v-.225l1.631.112V54.849H61.3V56.48h.112v.225H61.3v2.081ZM59.5,54.456a.315.315,0,0,0-.337.281V60.7a.266.266,0,0,0,.281.281l2.081.112v.562l-2.812-.112a.121.121,0,0,1-.112-.112V53.95c0-.056,0-.056.056-.112,0,0,.056-.056.056,0l2.812.169v.619Zm-.731-1.237a.769.769,0,0,0-.787.787v1.856l-3.037.056,3.037.112v2.137a29.842,29.842,0,0,0-3.037.056l2.306.562h.731V60.7h-2.7l2.7.112v.731a.7.7,0,0,0,.675.731l2.868.112v.731L57.48,63.06l-3.149-.281v-10.4l7.2-.394v1.35ZM61.529,64.41v6.467h-.506V64.41Zm-.844-.112V70.82H59.448V64.185Zm-6.355-15.24V45.4l.056.337,1.068-.112V49Zm1.462-.169V45.514l1.012-.112v3.374Zm2.418-2.98v2.756l-1.068.112V45.4l.787-.112h0A.533.533,0,0,0,58.211,45.908Zm.394.169.956.056v2.418l-1.068.112V46.077Zm-.056-.787v-.056l1.012-.112v.337L58.6,45.4S58.548,45.4,58.548,45.289Zm2.418.9v2.193l-1.068.112V46.133ZM59.9,45.458v-.394l1.068-.112h0v.562Zm1.35,2.868V46.133h.281V48.27Zm0-2.812v-.562h.281v.562Zm.112-1.631V42.7l-1.687-.112v-.225l1.631.112V40.4l-1.687-.112V40.06l1.631.112V38.541h.169v5.342Zm-1.968-5.9a.324.324,0,0,0-.337.337v5.9l-.506.056V37.641c0-.056,0-.056.056-.112a.2.2,0,0,1,.112-.056l2.868.169v.394Zm-4.33,31.942-.731-.169V63.678l.731.056Zm.281-6.13,1.012.112v6.411l-1.012-.281Zm.9,14.34,1.518.675Zm1.518-7.479-1.068-.281V63.9l1.068.112Zm1.406.169H58.83v.112l-.787-.225H58.1V64.016l1.068.112Zm13.946,1.968H60.742V77.85H73.057v.45H69.233L60.4,78.243V73.126h-.056v-.844H73.113Zm-.337.394V77.4H71.82V73.182Zm-1.406,0V77.4H70.3V73.182Zm-1.518,0V77.4H68.84V73.182Zm-1.462,0V77.4H67.321V73.182Zm-1.518,0V77.4H65.8V73.182Zm-1.518.056v4.218H64.341V73.239Zm-1.462,0v4.218H62.822V73.239Zm-1.518,0v4.218H61.248V73.239Zm10.741-1.575H59.673V78.75h13.44v.45H59.223V71.27H73.17v.394Zm.169-.844V66.265h.225v3.487a1.7,1.7,0,0,0,.281,1.068Zm.562-17.489c-.281.225-.281.844-.281,1.068v1.237l-3.43.056V54.568a.84.84,0,0,0-.731-.787L64.453,53.5V52.094l14.9.731v.787l-5.23-.394A.363.363,0,0,0,73.845,53.331Zm.562,16.927h-.169c0-.112-.056-.281-.056-.506V64.634h.225v5.624Zm11.247,9.448a13.8,13.8,0,0,1-3.037.506s-1.125-.337-2.081-.619h5.4C85.823,79.649,85.766,79.649,85.654,79.706ZM77.5,79.2H74.688v-.45H87.172v.45Zm9.616.45Zm2.024-8.66v.225h0V70.82l-3.824-4.161c3.374.169,8.435.337,10.8.45v3.824h.056Zm9.335-.169-1.125-.731v-3.88l1.125.956Zm0-25.194h0V65.309l-1.125-.956V38.541h0v-.619l1.125.056Zm20.245,14.059c-.169.225-.281.506-.45.281a1.556,1.556,0,0,1-.225-.394s.281-.731.45-.562S118.889,59.461,118.721,59.686Zm-3.43-.169c-.225-.225-.337-.45-.169-.619s.169,0,.394.112c.281.112.337,0,.337.394,0,.337-.056.45-.281.562s-.225,0-.225,0A.34.34,0,0,0,115.29,59.517Zm.45-5c-.225.169-.394.112-.394-.112s.056-.281.056-.281c.112-.169.337-.619.45-.281S115.965,54.343,115.74,54.512Zm.056,3.936c0,.225-.112.337-.225.337s-.225-.169-.225-.337c0-.225.112-.337.225-.337S115.8,58.28,115.8,58.449Zm-.45-2.531c.112,0,.225.169.225.394s-.112.394-.225.394-.225-.169-.225-.394S115.234,55.918,115.346,55.918Zm-.112-2.531a1.274,1.274,0,0,1-.337.394l-.169-.394s-.112-.787.169-.562C115.178,52.994,115.346,53.219,115.234,53.387Zm.281,11.191c.281.169.562.506.844.394a.507.507,0,0,1,.281-.056c.225.394.169.506-.506.45C115.4,65.366,115.178,64.916,115.515,64.578Zm1.912-5.736s-.112-.112-.112.506-.112.675-.112.675-.394.056-.225-.225c.112-.337-.225-.675-.112-.844.169-.169-.337-.562,0-.9.337-.281.169-1.181.45-.956a1.1,1.1,0,0,1,.169,1.237C117.146,58.617,117.427,58.842,117.427,58.842Zm-.506,4.78h-.337a.457.457,0,0,1-.45-.394,3.825,3.825,0,0,1,.731-.225h0C116.752,63.116,116.865,63.566,116.921,63.622Zm-.506-2.812c.337-.169.281-.056.337.169s.056.45-.112.562-.394-.112-.394-.112S116.134,60.979,116.415,60.81Zm.45-5.286a.245.245,0,0,1,0-.394s0-.112.225-.225.225.056.337.45C117.483,55.693,117.09,55.749,116.865,55.524Zm-.337-.619c-.337,0,0,.562,0,.562s.169.506-.169.394c-.281-.056-.112-.169-.112-.169s.112-.562,0-.675-.225-.675.056-.675c.225,0,.112-.562.394-.337C117.033,54.343,116.865,54.906,116.527,54.906Zm-.281,1.631c.337-.169.394.112.619.169.225,0,0,.169-.169.45s-.281-.281-.337,0a.958.958,0,0,1-.225.394S115.909,56.649,116.246,56.537Zm.394,9.56a.394.394,0,1,1-.394.394A.423.423,0,0,1,116.64,66.1Zm.337-4.386c0-.169-.056-.337.056-.506.225-.337.506.056.506.056s.337-.562.506.056c.169.675-.225.787-.225.787a.984.984,0,0,0-.281.056A6.459,6.459,0,0,0,116.977,61.71Zm2.474-3.88a.52.52,0,0,0-.281.506c0,.394.056.506-.281.506s.056-.787-.169-.787-.337.394-.506.337-.169-.619-.169-.619.056-.394.337-.394c0,0,.225.225.337.169a1.179,1.179,0,0,0-.112-.956c-.169-.112.056-.731.281-.45s.45.787.225.787C118.833,56.986,119.452,57.83,119.452,57.83ZM114.559,45.8c.056-.056.169-.056.281.056.225.281.337.394.225.787-.056.394.169.506.169.506s.225.281.619-.112.506.787.506.787-.394-.056-.337.337c0,.394.225.731.45.731.169,0,.337.112.281-.562s.619.225.619.225-.169.506.112.675c.281.225.337.337.337.619s-.337.225-.337.45c0,.281.056.619-.45.45s.337.394.337.394-.225.394,0,.337.562-.394.731.056c.169.506-.394.731-.394.731s-.394.169,0,.45c.394.337.619.394.675-.056s.619.225.619.225.169.281-.394.619.562.45.562.45.281.281-.225.45-.619-.506-.619-.506a.361.361,0,0,0-.337-.337c-.394-.056-.112.562-.112.562s0,.225-.394.056-.281-.45-.281-.45-.337,0-.281-.281c0-.281.506-.337.506-.337s.112-.45-.281-.45c-.45.056-.169.281-.619.281s-.45.056-.562-.337c-.056-.394.169-.337.394-.562.169-.225.225-.281-.056-.562a.55.55,0,0,1-.112-.619s-.169.225-.225-.112c-.112-.337.169-.169,0-.45s-.337-.45-.45-.281c-.056.169-.45-.169-.394-.337.056-.225.619-.281.337-.675-.337-.337-.225.169-.45-.225s.281-.45.056-.675c-.169-.225-.112-.337-.225-.506-.056-.112-.169-.112-.281-.112Zm0,5.961c.112.225.281.562.112.675-.056.056-.056.056-.112.056Zm0,2.193c.056.056.112.169.225.281.169.281.337.562,0,.787-.112.056-.169,0-.225-.056Zm0,2.362a.422.422,0,0,1,0,.675Zm0,4.218c.112,0,.281-.056.337.169.112.337-.056.506-.225.45a.121.121,0,0,0-.112.112Zm-.056,9.954V70.6H113.1V35.673l1.068-.169V70.483ZM80.255,13.46a24.579,24.579,0,0,1,3.374-1.743s.619.225-2.137,2.249-3.374,1.181-3.374,1.181S79.356,14.135,80.255,13.46Zm-4.274,1.575c.675-.281,2.531-1.068,2.531-1.068a13.105,13.105,0,0,1-2.643,2.418,11.6,11.6,0,0,1-2.362.675s.056-.506-.112-.506c-.169-.056-.675-.169-.675-.169S75.307,15.316,75.981,15.035Zm-.337,2.249c.844-.281,1.8-.675,1.912-.675s-.506.787-1.575,1.518a5.432,5.432,0,0,1-1.575.844,9.239,9.239,0,0,0-1.012.225,6.133,6.133,0,0,0-1.518.844s.169-.337.394-.844c.225-.562-2.193.731-2.193.731a2.936,2.936,0,0,1,1.406-1.237A33.033,33.033,0,0,1,75.644,17.284Zm-3.6,3.43a16.024,16.024,0,0,1-1.8,1.406,4.389,4.389,0,0,0-1.237.956s-.112-.675-.506-.731a3.608,3.608,0,0,1-.787-.225,10.4,10.4,0,0,1,2.137-.844C71.089,20.939,72.045,20.715,72.045,20.715ZM68.84,17.79a5.441,5.441,0,0,1,2.193-.562s-1.575,1.125-1.968,1.293a13.017,13.017,0,0,1-1.968.337A10.185,10.185,0,0,1,68.84,17.79Zm-2.362,2.531c1.068-.45,3.149-1.012,3.149-1.012L66.7,21.9s.169-.787-.225-.731c-.394.112-2.643,1.125-2.643,1.125A15.6,15.6,0,0,1,66.478,20.321Zm-1.8,4.161a.964.964,0,0,0-.562-.506c-.394-.056-.9.337-1.068.337a.713.713,0,0,1-.337-.112,5.363,5.363,0,0,1,1.912-1.35,18.505,18.505,0,0,1,2.474-.562Zm1.743.281-2.531,1.968a2.357,2.357,0,0,1,.844-1.237A7.007,7.007,0,0,1,66.421,24.763ZM61.979,21.9c.844-.281.45.281,1.406-.394a5.007,5.007,0,0,1,2.024-.9c-.169.112-3.487,2.812-3.487,2.812s.337-.787-.056-.787H60.629A4.194,4.194,0,0,1,61.979,21.9Zm.506,1.743a8.16,8.16,0,0,1-2.193,1.687c-.844.225-1.012.056-1.012.056l-1.181.506a3.724,3.724,0,0,1,1.687-1.406A21.851,21.851,0,0,1,62.485,23.639Zm-4.555-.45a15.954,15.954,0,0,1,2.081-.619L57.93,24.482a1.393,1.393,0,0,0-.506-.169c-.281-.056-.619-.112-.619-.112A4.18,4.18,0,0,1,57.93,23.189Zm-.956,2.024c1.181-.337,1.856-.506,1.856-.506l-2.024,1.8-1.181-.169A1.74,1.74,0,0,1,56.974,25.213Zm-1.518.394s-1.181,1.068-1.462,1.237c-.281.225-1.35,1.012-1.35,1.012s-.225-.056,0-.337a5.678,5.678,0,0,1,.731-.675l-.394-.225A3.167,3.167,0,0,1,53.937,26C54.443,25.832,55.456,25.607,55.456,25.607Zm-3.88.056a6.2,6.2,0,0,1,1.518-.45l-.956.562-.9.562S51.069,25.944,51.575,25.663Zm-1.068,4.443a1.074,1.074,0,0,0-.619,0,1.635,1.635,0,0,1,1.068-.956,6.784,6.784,0,0,1,1.35-.394s-1.012.675-1.125,1.012a2.188,2.188,0,0,1-.506.619S50.732,30.218,50.507,30.106Zm0-2.643a5.8,5.8,0,0,1,1.181-.337s-.506.281-.9.562c-.394.337-1.012.9-1.012.9S50,27.688,50.507,27.463Zm-2.924.787a5.254,5.254,0,0,1,1.687-.731s-1.012,1.237-1.293,1.293a7.03,7.03,0,0,0-1.293.619S46.683,28.812,47.583,28.25Zm0,1.856c.731-.225,1.912-.731,1.912-.731L47.3,31.4s.506-.731.45-1.012S46.008,31.4,46.008,31.4A5.243,5.243,0,0,1,47.583,30.106Zm-3.318-.844a2.98,2.98,0,0,1,1.237-.169s-.619.506-.956.731a3.311,3.311,0,0,1-1.012.337A2.372,2.372,0,0,1,44.265,29.262Zm.056,1.856a2.148,2.148,0,0,1,1.237,0s-.675.506-1.068.731a2.3,2.3,0,0,1-1.012.225S43.815,31.287,44.321,31.118Zm-1.518.169s.056.506-.619.9a1.4,1.4,0,0,1-1.125.225A5.941,5.941,0,0,1,42.8,31.287Zm-4.443,3.88a4.82,4.82,0,0,1-.731.169.867.867,0,0,1-.394-.169s.337-.169.956-.562a2.659,2.659,0,0,1,.844-.45S38.641,35.055,38.36,35.167Zm2.587-.787a11.927,11.927,0,0,1-1.631.337l1.012-.731,1.237-.619S41.4,34.211,40.947,34.38Zm2.474-.619a2.844,2.844,0,0,1-1.237.281s.506-.956,1.068-1.181a2.583,2.583,0,0,1,1.518,0S43.871,33.48,43.421,33.761Zm2.812-.619a7.832,7.832,0,0,1-1.293.281,2.592,2.592,0,0,1,1.012-1.068,5.647,5.647,0,0,1,1.631-.337A6.283,6.283,0,0,1,46.233,33.143Zm3.093-.731a7.13,7.13,0,0,1-1.125,0A2.443,2.443,0,0,1,49.27,31.4a6.016,6.016,0,0,1,1.518-.337S49.719,32.355,49.326,32.411Zm2.924-.675c-.394.112-1.518.394-1.518.394h-.281a3.589,3.589,0,0,1,1.293-1.237,5.438,5.438,0,0,1,1.968-.506S52.644,31.624,52.25,31.737Zm1.125-1.8s.112-.562-.281-.562a.724.724,0,0,0-.506.225,2.582,2.582,0,0,1,1.181-1.35,12.78,12.78,0,0,1,2.418-.675s-.956.675-1.575,1.181A14.042,14.042,0,0,0,53.375,29.937Zm2.643.787a18.464,18.464,0,0,1-1.968.562l.281-.337a1.641,1.641,0,0,1,1.012-1.012,10.745,10.745,0,0,1,2.081-.506A3.941,3.941,0,0,1,56.018,30.724ZM59.9,29.6a18.466,18.466,0,0,1-1.968.562l.281-.337a1.641,1.641,0,0,1,1.012-1.012,10.746,10.746,0,0,1,2.081-.506A3.941,3.941,0,0,1,59.9,29.6Zm1.237-1.743s1.743-1.575.787-1.125c-.956.394-1.912.844-1.912.844s.112-.45-.169-.394a18.4,18.4,0,0,0-2.418,1.406s.337-.562,0-.562a2.677,2.677,0,0,0-1.012.225v-.169a5.927,5.927,0,0,1,1.856-1.125,18.835,18.835,0,0,0,3.149-.844,21.589,21.589,0,0,1,2.924-.9c.337-.056-1.125,1.125-1.125,1.125Zm2.756,1.181L90.04,9.355a.2.2,0,0,1,.056.112.174.174,0,0,1,.112-.056l23.844,23.45-.225.281S90.322,10.48,89.984,9.974c0-.056-.056-.056-.056-.112-1.575,1.181-25.7,19.4-25.7,19.4Zm.9.619L89.2,11.154s.225.225,0,.394S65.184,29.881,65.184,29.881Zm1.181.844-.394-.225,12.541-9.5.506.056C72.439,25.607,65.972,30.5,65.972,30.5Zm16.983-4.724-3.43-.337-5-.506,2.024-1.575,6.467.619v1.8Zm0-4.386v2.249l-4.668-.45L76.6,23.3,79.581,21Zm7.086-9.166c-.112.056-5.23,3.993-10.741,8.154l-.506-.056L90.04,11.829C90.04,11.773,90.209,12.054,90.04,12.223Zm21.538,21.594L90.1,12.842s.225-.225.394-.056c.225.169,21.2,20.638,21.2,20.638ZM89.59,10.986s.225-.281.45-.056c.225.169,22.775,22.213,22.775,22.213l-.169.45Zm9.279,30.03,3.824.056L98.869,40.9V37.979l4.049.281v-.169h.619v.056l8.323-2.306v8.773H111.8c-.225-.056-.787-.056-.619.731s-.225.619-.225.619-.562-.337-.562.225l-6.861-.337v-7.7l-.45.112h-.169V45.8l-4.049-.225Zm12.878,12.765c-.169,0-.281-.169-.281-.45v-.112h.225v-.281h.056a.121.121,0,0,1,.112.112v.675C111.8,53.725,111.8,53.781,111.747,53.781Zm.112,6.973v.619H111.8s-.45-.112-.225-.45C111.635,60.754,111.747,60.754,111.86,60.754Zm-.169-11.585a.363.363,0,0,1-.337-.337.324.324,0,0,1,.337-.337c.056,0,.112.056.169.056v.506h0C111.8,49.17,111.747,49.17,111.691,49.17Zm-1.968,7.142c0-.225.112-.394.225-.394s.225.169.225.394-.112.394-.225.394A.473.473,0,0,1,109.723,56.312Zm.169,2.98c0,.225-.112.394-.281.394s-.281-.169-.281-.394.112-.394.281-.394C109.779,58.842,109.892,59.067,109.892,59.292Zm-.169-4.949v-.112h.45v.056c0,.225-.112.394-.225.394C109.835,54.737,109.723,54.568,109.723,54.343Zm.562,2.306c.112,0,.225.281.225.562,0,.337-.112.562-.225.562s-.225-.281-.225-.562S110.173,56.649,110.285,56.649Zm.281-6.073h-.337v-.056c0-.169.056-.281.169-.281s.169.112.169.281Zm-.225-3.205s-.169.619-.337.562-.169-.675-.506-.562c-.112.056-.169.225-.225.45v-.562l1.237.056C110.51,47.483,110.341,47.37,110.341,47.37Zm.45,8.548c.112,0,.225.169.225.394s-.112.394-.225.394-.225-.169-.225-.394S110.679,55.918,110.791,55.918Zm.169-7.985c0-.169.112-.337.169-.337.112,0,.169.169.169.337s-.112.337-.169.337S110.96,48.1,110.96,47.933Zm.281,10.853c.112,0,.225.169.225.394s-.112.394-.225.394-.225-.169-.225-.394C110.96,58.955,111.072,58.786,111.241,58.786Zm.45-12.934a.438.438,0,0,1,.169-.394v.731Q111.691,46.189,111.691,45.852Zm-8.154,5.455v-.562l5.511.281v.562Zm5.117,1.8c-.112.169-.562-.056-.619.394v.112l-4.443-.225v-.562Zm-5.117-2.868V46.977l.956.056v3.205Zm1.406.056V47.089l1.068.056v3.205Zm1.518.056V47.145l1.012.056v3.205Zm2.306.112-.9-.056V47.2l1.012.056v2.756l-.056.056C108.654,50.294,108.711,50.351,108.767,50.463Zm-5.23,14.677h0v4.443h0Zm-.619-18.164v3.262l-1.012-.056V46.92Zm-1.462-.112v3.262l-1.068-.056V46.808Zm-2.587-.112,1.068.056v3.262l-1.068-.056Zm0,3.824,4.049.169v.562l-4.049-.169Zm0,2.081,4.049.169v.562l-4.049-.169Zm0,9.279h1.068c.956-.056.956-.619.956-.619H98.869V59.63l1.181.056-.45-.562-.731-.056V57.605l2.024-.056v-.844l-2.024-.112V53.725l4.049.169V64.072H98.869V61.935Zm3.037,6.186v-2.98h1.012v3.88Zm.731,2.474h-.731v-.619Zm-2.249-3.712v-1.8h1.068v2.643Zm1.068,2.756V70.6h-1.068V68.74Zm-2.587-4.949h0v0Zm1.068,1.856-1.068-.9v-.506h1.068Zm.281,5.174v-.675h2.924l.787.675Zm4.724-4.611V70.6h-.112l-.337-.281V65.141h.45v1.012c.169.056.281.225.281.506A.445.445,0,0,1,104.943,67.109Zm-.112-2.98h0Zm-.169-1.743c0,.506.169,1.237-.506,1.068a.934.934,0,0,1-.619-.45v1.125h0V53.95l4.78.225c.225.225.45.45.45.619.056.337-.731.169-.731.169l.169.675c.169.675-.506.337-.675.619s.394,1.125.394,1.125-.844.281-.112.844.45.337.169.844c-.281.562.562.619.844.787.337.225-.056.619-.281.844s.281.225.9.394-.169.225-.169.787.506.056.787.169-.056.9.337.956.394-.787.675-.787-.056.281.281.787c.225.394.281-.169.45-.169v1.293h-1.35c-.281-.506-1.181-.394-1.406-.337-.281.112-.225-1.293-.956-1.012-.675.337-.787-.112-1.293-1.125-.562-1.068-1.068.562-1.293-.337s-1.575-.731-1.968-.394v1.856a1.256,1.256,0,0,1,.394-.394c.731-.394.225-.619-.112-.787-.281-.169.112-.45.112-.45s.787-.337,1.012,0,.281.844.619.731,1.012.281,1.012.562.731,1.125,1.237,1.012a.726.726,0,0,1,.9.675v.056h-2.249c.056-.337.169-1.068-.281-1.068-.619-.056-.9.562-.9,0C105.336,62.5,104.662,61.823,104.662,62.385Zm5.455,6.186a.337.337,0,0,1,0-.675.309.309,0,0,1,.281.169V66.771a4.946,4.946,0,0,0-.562.562,2.551,2.551,0,0,1-.506-.281V70.6h-.45V65.141c-.394-.056-.394.562-.675.337a.474.474,0,0,1-.112-.394h2.081a2.444,2.444,0,0,1-.056,1.068,2.365,2.365,0,0,0,.281.112V65.141h.45V66.1c.225-.281.619-.45.619.562,0,.844-.394,1.012-.619.787V70.6h-.45V68.4A.309.309,0,0,1,110.116,68.571Zm-2.081-1.687c.281,0,.562.169.562.337s-.225.337-.562.337c-.056,0-.056,0-.112-.056V70.6h-.394l-.056-5.455h.45v1.8C107.98,66.884,107.98,66.884,108.036,66.884Zm-2.081,1.181c0-.056.056-.056.056-.112V65.647c0-.056-.056-.056-.056-.112s.056-.056.056-.112v-.281h.45v.169a.288.288,0,0,1,0,.562v1.856a.372.372,0,0,1,.337.394.421.421,0,0,1-.337.394v1.968h-.45V68.234C106.011,68.177,105.955,68.121,105.955,68.065Zm.787-2.924h.169c0,.056,0,.056-.056.112C106.855,65.309,106.8,65.253,106.742,65.141Zm.281,11.472v1.125h-.337V72.114h.337Zm7.536,1.35H114.5c-.787.056-1.856,0-2.98,0Zm0-.45h-7.086V72.339h.394v4.724h6.692v.45Zm-6.3-.9v-4.5h1.575v4.5Zm1.968,0v-4.5H111.3v4.5Zm1.518,0v-4.5h1.012v4.5Zm1.462,0v-4.5h1.068v4.5Zm2.98,2.812v0Zm5.286-8.379v6.467H116.19v-.45h4.78v-5.4H106.124l-.787-.675h16.14Zm-5.286,5.567v-4.5H117.2v4.5Zm2.924,0v-4.5h1.406v4.5H117.6v-4.5h1.068v4.5Zm-.169-8.941a.337.337,0,1,1,.337.337A.363.363,0,0,1,118.945,67.671Zm2.924.844a.516.516,0,1,1,.619-.506A.572.572,0,0,1,121.87,68.515Zm3.655.619c-.506-.506-.394-.844-.394-.844s-1.181-.675-.562-.956.9.562.9.562,1.068,0,1.181.731C126.818,69.3,126.031,69.639,125.525,69.133Zm3.205-3.374a.43.43,0,0,1,.112-.281C128.73,65.534,128.73,65.647,128.73,65.759Zm.225-1.068s-.394.169-1.181-.394c-.731-.562.619-1.35-.394-1.012s-.394,1.012-.394,1.012-.675.281-.956-.225-1.237-1.012-1.068-.281.506.675.506,1.012-.45.956-.956.731c-.506-.169-.506-1.237-.787-.562s-.056,1.462-.787,1.687-.225-1.125-1.012-.9-.394.844-1.575.562-.169-.956-.169-.956.056-1.181-.9-.45,0,1.8-1.068,1.406a.786.786,0,0,1-.394-1.293s-.056-1.125-.506-1.181a1.429,1.429,0,0,1,.731-.281c.112.394.056.675.562.675.675-.056,1.125-.787,1.575-.281.506.506.619,1.856.9,1.181s.787-1.575,1.237-.281.506-1.012.506-1.012.225-.619.731.281.956-.337.675-1.181c-.225-.844.45-.9,1.181-.675a.909.909,0,0,0,1.068-.506l2.024.787s1.237-.619,1.743-.281.056,1.237.45,1.518.394.506.844.506,1.068-.506,1.575-.394.956,1.237.675,1.462-.844.562-1.181,0-.787-.731-.787-.281c0,.394.169.675-.337.731-.562.056-.169-.9-.787-1.125A4.174,4.174,0,0,0,128.955,64.691Zm.394,1.575a.507.507,0,0,0,.281-.056A.421.421,0,0,1,129.349,66.265Z" transform="translate(-1.751 -3.242)"/>
    <path id="Path_2000" data-name="Path 2000" class="cls-1" d="M145.7,27.25l10.4.731L150.817,26.8Z" transform="translate(-63.765 -11.69)"/>
    <path id="Path_2001" data-name="Path 2001" class="cls-1" d="M146.873,38.073l4.049.225a.324.324,0,0,0,.337-.337V31.719a.356.356,0,0,0-.281-.337l-4.049-.281a.324.324,0,0,0-.337.337v6.355C146.535,37.961,146.7,38.073,146.873,38.073Zm.225-4.555v-.225l1.631.112V31.719h.281v1.687l1.687.112v.225l-1.687-.112v2.081l1.687.112v.225l-1.687-.112V37.68h-.281V35.936l-1.687-.112V35.6l1.631.112V33.631Z" transform="translate(-64.15 -13.572)"/>
    <path id="Path_2002" data-name="Path 2002" class="cls-1" d="M156.981,38.673l4.049.225a.324.324,0,0,0,.337-.337V32.319a.356.356,0,0,0-.281-.337l-4.049-.281a.324.324,0,0,0-.337.337v6.3A.315.315,0,0,0,156.981,38.673Zm.169-4.611v-.225l1.631.112V32.319h.281v1.631l1.687.112v.225l-1.687-.112v2.081l1.687.112v.225l-1.687-.112v1.8h-.281v-1.8l-1.687-.112v-.225l1.631.112V34.174Z" transform="translate(-68.579 -13.834)"/>
    <path id="Path_2003" data-name="Path 2003" class="cls-1" d="M115.861,91.825l-3.824-.225a.315.315,0,0,0-.337.281v5.961a.266.266,0,0,0,.281.281l3.824.225a.266.266,0,0,0,.281-.281V92.106C116.143,91.937,116.03,91.825,115.861,91.825Zm-.112,4.218v.225l-1.687-.112v1.8h-.281v-1.8l-1.687-.112v-.225l1.631.112V93.849l-1.687-.112v-.225l1.631.112V91.994h.281v1.631l1.687.112v.225l-1.687-.112V95.93Z" transform="translate(-48.885 -40.049)"/>
    <path id="Path_2004" data-name="Path 2004" class="cls-1" d="M150.037,100.923l3.824.225a.266.266,0,0,0,.281-.281V94.906a.266.266,0,0,0-.281-.281l-3.824-.225a.315.315,0,0,0-.337.281v5.961A.415.415,0,0,0,150.037,100.923Zm.169-4.386v-.225l1.631.112V94.737h.281v1.631l1.687.112v.225l-1.687-.112v2.081l1.687.112v.225l-1.687-.112v1.8h-.281V98.9l-1.687-.112v-.225l1.631.112V96.593Z" transform="translate(-65.515 -41.274)"/>
    <path id="Path_2005" data-name="Path 2005" class="cls-1" d="M131.4,98.637a.242.242,0,0,0,.225.225l1.293.056V96.612L131.4,96.5Z" transform="translate(-57.506 -42.194)"/>
    <path id="Path_2006" data-name="Path 2006" class="cls-1" d="M131.4,92.325v1.968l1.518.112V92.156l-1.293-.056A.242.242,0,0,0,131.4,92.325Z" transform="translate(-57.506 -40.268)"/>
    <path id="Path_2007" data-name="Path 2007" class="cls-1" d="M135.95,92.356,134.6,92.3v2.249l1.575.112V92.637C136.118,92.469,136.062,92.356,135.95,92.356Z" transform="translate(-58.907 -40.355)"/>
    <path id="Path_2008" data-name="Path 2008" class="cls-1" d="M134.5,98.962l1.35.056a.242.242,0,0,0,.225-.225V96.712L134.5,96.6Z" transform="translate(-58.863 -42.237)"/>
    <path id="Path_2009" data-name="Path 2009" class="cls-1" d="M159.637,101.48l3.824.225a.266.266,0,0,0,.281-.281V95.406a.266.266,0,0,0-.281-.281l-3.824-.225a.315.315,0,0,0-.337.281v5.961C159.356,101.311,159.525,101.48,159.637,101.48Zm.169-4.386v-.225l1.631.112V95.35h.281v1.631l1.687.112v.225l-1.687-.112v2.081l1.687.112v.225l-1.687-.112v1.8h-.281v-1.8L159.75,99.4v-.225l1.631.112V97.206Z" transform="translate(-69.717 -41.493)"/>
    <path id="Path_2010" data-name="Path 2010" class="cls-1" d="M76.706,64.272l-2.137.394a.309.309,0,0,0-.169.281v5.792c0,.169.169.337.281.281l2.137-.225c.112,0,.225-.169.225-.281V64.5C77.043,64.328,76.874,64.159,76.706,64.272Zm.056,4.33v.169l-1.068.056V70.4h-.169V68.827l-1.012.056v-.169l1.012-.056V66.915l-.956.112v-.169l.956-.112V64.89h.169v1.856l1.068-.112V66.8l-1.068.112v1.743Z" transform="translate(-32.561 -28.073)"/>
    <path id="Path_2011" data-name="Path 2011" class="cls-1" d="M82.712,63.072l-2.587.45a.374.374,0,0,0-.225.281v6.073a.282.282,0,0,0,.337.281l2.587-.225a.3.3,0,0,0,.281-.281v-6.3C83.105,63.128,82.937,62.96,82.712,63.072Zm-1.237,4.949v1.462h-.169V68.021l-1.125.056v-.169l1.181-.056V66l-1.181.169L80.125,66l1.237-.169V63.972h.169v1.8l1.293-.169.056.169-1.35.169v1.912l1.406-.056.056.169Z" transform="translate(-34.968 -27.548)"/>
    <path id="Path_2012" data-name="Path 2012" class="cls-1" d="M82.512,88.791l-2.587.225a.374.374,0,0,0-.225.281V95.54a.282.282,0,0,0,.337.281l2.587.169a.3.3,0,0,0,.281-.281V89.073C82.962,88.9,82.737,88.735,82.512,88.791Zm-1.181,4.836v2.024h-.169V93.628l-1.125.056v-.169l1.181-.056V91.266l-1.181.112-.056-.169,1.237-.112V89.241h.169v1.8l1.293-.112v.225l-1.35.112v2.193l1.406-.056v.169Z" transform="translate(-34.88 -38.815)"/>
    <path id="Path_2013" data-name="Path 2013" class="cls-1" d="M76.506,89.489l-2.024.225a.309.309,0,0,0-.169.281L74.2,95.731a.3.3,0,0,0,.281.281l2.081.169a.257.257,0,0,0,.225-.281V89.714C76.843,89.545,76.674,89.432,76.506,89.489Zm.169,4.33v.169H75.606v1.518h-.169V93.987H74.425v-.169h1.012V91.851l-.956.056v-.169l.956-.056V90.051h.169v1.631l1.068-.056v.169l-1.068.056v1.968Z" transform="translate(-32.473 -39.119)"/>
    <path id="Path_2014" data-name="Path 2014" class="cls-1" d="M59.3,70.5l-.9.112V71.85l.9-.056Z" transform="translate(-25.558 -30.815)"/>
    <path id="Path_2015" data-name="Path 2015" class="cls-1" d="M60.925,72.174,62.5,72c.112,0,.169-.112.169-.225V67.225A.206.206,0,0,0,62.443,67l-1.575.225c-.056,0-.112.112-.112.225v1.237l.844-.056v-.787h.169v.844l.956-.056v.112l-.956.056v1.406l.956-.056v.112l-.956.056v.956H61.6v-.956l-.9.056v1.575A.206.206,0,0,0,60.925,72.174Z" transform="translate(-26.565 -29.283)"/>
    <path id="Path_2016" data-name="Path 2016" class="cls-1" d="M61.487,70.2l-.787.112v1.35l.787-.056Z" transform="translate(-26.565 -30.683)"/>
    <path id="Path_2017" data-name="Path 2017" class="cls-1" d="M163.381,102.925V102.7H163.1Z" transform="translate(-71.38 -44.907)"/>
    <path id="Path_2018" data-name="Path 2018" class="cls-1" d="M156.864,11.394l.056-.056a.271.271,0,0,0,.056-.337A.258.258,0,0,0,156.864,11.394Z" transform="translate(-68.63 -4.775)"/>
    <path id="Path_2019" data-name="Path 2019" class="cls-1" d="M205.77,27.969S202.4,27.8,199.7,27.8s-11.7.112-11.7.112,9.841.169,12.091.169C202.34,28.025,205.77,27.969,205.77,27.969Z" transform="translate(-82.277 -12.127)"/>
    <path id="Path_2020" data-name="Path 2020" class="cls-1" d="M192.5,34.326s9.56.169,12.878.169,11.022-.056,11.022-.056-8.66-.169-11.247-.169C202.566,34.157,192.5,34.326,192.5,34.326Z" transform="translate(-84.247 -14.942)"/>
    <path id="Path_2021" data-name="Path 2021" class="cls-1" d="M41.754,45.337c2.474,0,8.154-.169,8.154-.169S49.8,45,44.341,45s-10.741.394-10.741.394S39.28,45.337,41.754,45.337Z" transform="translate(-14.705 -19.655)"/>
    <path id="Path_2022" data-name="Path 2022" class="cls-1" d="M22.748,52.925c3.543,0,7.142.112,7.142.112l8.323-.337H27.865c-5.9,0-14.565.281-14.565.281S19.2,52.981,22.748,52.925Z" transform="translate(-5.821 -23.025)"/>
    <path id="Path_2023" data-name="Path 2023" class="cls-1" d="M220.654,49c-3.543,0-9.054.112-9.054.112s7.254.112,9.11.225c1.912.056,9.166-.225,9.166-.225S224.253,49,220.654,49Z" transform="translate(-92.606 -21.405)"/>
    <path id="Path_2024" data-name="Path 2024" class="cls-1" d="M224.242,60.7c-4.668.056-7.142.337-7.142.337h12.934S228.909,60.639,224.242,60.7Z" transform="translate(-95.013 -26.522)"/>
    <path id="Path_2025" data-name="Path 2025" class="cls-1" d="M28.742,57.4c-4.668.056-7.142.337-7.142.337H34.534C34.478,57.733,33.409,57.339,28.742,57.4Z" transform="translate(-9.453 -25.077)"/>
    <path id="Path_2026" data-name="Path 2026" class="cls-1" d="M231.372,65.937A36.578,36.578,0,0,0,225.8,65.6c-2.193,0-3.936.112-5,.169Z" transform="translate(-96.632 -28.67)"/>
    <path id="Path_2027" data-name="Path 2027" class="cls-1" d="M219.012,66.056A6.89,6.89,0,0,1,220.025,66H218.9Z" transform="translate(-95.8 -28.845)"/>
    <path id="Path_2028" data-name="Path 2028" class="cls-1" d="M228.066,68.545a40.4,40.4,0,0,0-5.342-.394c-4.33-.225-5.624.225-5.624.225Z" transform="translate(-95.013 -29.759)"/>
    <path id="Path_2029" data-name="Path 2029" class="cls-1" d="M130.593,149.65c-.787.337-8.042.112-8.042.112s6.073.45,4.836.731c-1.181.281-5.511-.056-7.086,0s-5.4.225-5.4.225,10.291.562,9.279.675-5.342.225-7.2.225-6.8.619-6.8.619,5.848-.225,6.8-.169a26.416,26.416,0,0,1,3.262.169c-.394.056-9.785.562-9.785.562l-8.66.562s10.572-.225,9.729,0c-.787.225-6.58.731-6.58.731l15.69-.844h0l-4.443.225-11.135.844,10.516-.619h5.061l4.33-.112.562-.225-4.5-.056,13.384-4.274,8.548-.169-11.922,4.949h-.45c-1.35.112-12.541.9-14.171,1.125s-12.034,1.462-12.034,1.462.394.394,2.249.225c5.117-.394,15.69-1.631,16.477-1.631.562,0,6.073-.281,10.966-.45l2.193-.787,1.181-.45a.727.727,0,0,1,.45-.112,1.1,1.1,0,0,1,.394.056c.281.056.337.225.337.337a.425.425,0,0,1-.056.225.678.678,0,0,1-.281.281c-.056,0-.056.056-.112.056a.055.055,0,0,0-.056.056h.619a1.227,1.227,0,0,1-.281.225,31.917,31.917,0,0,1,3.487,0c1.181.281,1.575.112,1.406.281A31.825,31.825,0,0,1,137,156.623c-.956.169-3.824.562-7.254.956L115.634,162.7a2.11,2.11,0,0,1-.056.562,4.339,4.339,0,0,1-.337.844c1.181.056,2.756.225,3.712.225,1.406-.056,3.093-.675,4.892-.844s3.093.169,4.274,0,3.824-1.406,5.117-1.575,4.78-.506,5.624-.731c.787-.225,5.68-5.23,6.355-5.961.056-.056.056-.112.112-.169a28.239,28.239,0,0,0,3.88,0c.169-.169-1.237-.281-2.362-.225a14.879,14.879,0,0,1-1.518.112h0a.756.756,0,0,0-.394-1.068,1.042,1.042,0,0,0-.394-.112c-.675,0-3.037,0-5.624-.056a.486.486,0,0,1-.169.337c0-.056-.056-.225,0-.337a.542.542,0,0,1,.506-.225c.787,0,2.362.169,2.249-.112-.112-.225-2.024-.45-2.024-.45a.963.963,0,0,1,1.012-.45,3.124,3.124,0,0,0,1.518-.394s-1.912-.225-1.462-.337l2.024-.506s-1.518.056-1.125-.225c.337-.337,4.668-2.7,4.668-2.7H132.5s1.293.337.9.394-5.9.056-5.9.056S131.38,149.312,130.593,149.65Zm13.89-.844-12.428,5.117h0l12.2-5.117-5.624.113Zm-10.235.169h.112L121.2,153.136Z" transform="translate(-44.552 -64.864)"/>
    <path id="Path_2030" data-name="Path 2030" class="cls-1" d="M107.073,171.823c.056-.056.112-.112.112-.169a14.753,14.753,0,0,1,1.293-1.181,25.256,25.256,0,0,1,2.418-1.8,3.792,3.792,0,0,1,1.912-.562c.337,0,.619.056.787.056l8.1-2.98c-2.249.225-4.386.394-6.13.506-5.342.281-9.448.45-10.91.506l-1.856-.675a1.756,1.756,0,0,1-.9-.9l.281-1.125-2.081.506V166.2a3.883,3.883,0,0,0,.225,1.406v.056a7.163,7.163,0,0,0,2.137,3.149l.731.562a13.9,13.9,0,0,0,3.374.45A1.518,1.518,0,0,0,107.073,171.823Z" transform="translate(-43.808 -71.516)"/>
    <path id="Path_2031" data-name="Path 2031" class="cls-1" d="M112.456,170.415l.056.056c.056,0,.056.056.112.056a.421.421,0,0,0,.281.056h.169a1.557,1.557,0,0,0,.506-.056,10.146,10.146,0,0,0,1.068-.281,13.028,13.028,0,0,0,3.318,0c2.98-.337,4.049-1.068,3.824-1.406s-1.406.056-4.161.225h0c.112-.056.169-.112.281-.112.056-.056.112-.056.169-.112.112-.056.281-.169.394-.225.056-.056.112-.056.169-.112a1.226,1.226,0,0,0,.281-.225l.112-.112.225-.225c.056-.056.112-.169.169-.225a.748.748,0,0,0,.169-.394c0-.056.056-.112.056-.169a3.59,3.59,0,0,0,0-.787l12.034-4.386a1.038,1.038,0,0,0,.844-.056c.112-.056.169-.112.169-.225v-.112l9.841-3.543h0c.056,0,.112-.056.169-.112.169-.113.337-.281.337-.45,0-.056,0-.056-.056-.112l-.056-.056c-.056,0-.056-.056-.112-.056s-.112-.056-.169-.056h-.281c-.056,0-.056,0-.112.056a.2.2,0,0,0-.112.056l-10.235,3.768-.225-.112a1.3,1.3,0,0,0-1.35.056l-1.181.675a.27.27,0,0,0-.112.337l.056.056-10.01,3.712h-.056a.207.207,0,0,1-.169-.056c-.169,0-.337-.056-.619-.056a2.627,2.627,0,0,0-.956.169c-.112.056-.225.056-.281.112a1.41,1.41,0,0,0-.394.225c-.112.056-.225.169-.394.281-.225.169-.45.337-.731.562a1.492,1.492,0,0,0-.337.281c-.169.112-.337.281-.506.394-.112.112-.225.169-.337.281-.281.225-.506.45-.731.619a5.3,5.3,0,0,0-.562.562c-.112.112-.169.225-.281.281a.776.776,0,0,1-.169.225.426.426,0,0,0-.112.225c0,.056,0,.056-.056.113v.169C112.4,170.359,112.4,170.415,112.456,170.415Zm4.218-1.968c.112-.056.281-.169.394-.225s.169-.112.281-.169a2.448,2.448,0,0,0,.394-.225c.112-.056.169-.112.225-.112a1.231,1.231,0,0,0,.281-.169.174.174,0,0,1,.112-.056l-.225.225-.056.056c-.112.056-.169.169-.281.225-.056.056-.112.056-.112.112a.987.987,0,0,0-.281.225h-.056c-.225.056-.45.056-.675.112Z" transform="translate(-49.191 -68.759)"/>
  </g>
</svg>
