<svg xmlns="http://www.w3.org/2000/svg" viewBox="0 0 257.546 58.287"><defs><style>.a{fill:#fff;}</style></defs><g transform="translate(-511 -113)"><g transform="translate(511 156.205)"><path class="a" d="M7.63,273.2v.71H4.17v6.831h-.8V273.91H0v-.71Z" transform="translate(0 -269.74)"/><path class="a" d="M17.943,279.954a4.5,4.5,0,0,1-1.419.8,4.406,4.406,0,0,1-3.016,0,3.475,3.475,0,0,1-2.04-2.04,5.024,5.024,0,0,1-.266-1.6,4.144,4.144,0,0,1,.266-1.508,5.657,5.657,0,0,1,.71-1.242,2.7,2.7,0,0,1,1.153-.8,3.677,3.677,0,0,1,1.419-.266,5.989,5.989,0,0,1,1.242.177,1.766,1.766,0,0,1,1.065.71,2.7,2.7,0,0,1,.8,1.153,4.472,4.472,0,0,1,.266,1.686H12.087v.355a3.131,3.131,0,0,0,.266,1.242,2.517,2.517,0,0,0,.71.976,3.665,3.665,0,0,0,.976.621,2.732,2.732,0,0,0,1.153.266,3.678,3.678,0,0,0,1.419-.266,5.212,5.212,0,0,0,1.419-.887v.621Zm-.8-3.9c-.266-1.508-1.065-2.218-2.4-2.218a2.625,2.625,0,0,0-.887.177,1.932,1.932,0,0,0-.71.444,2.135,2.135,0,0,0-.532.71,3.178,3.178,0,0,0-.355.976h4.879Z" transform="translate(-1.264 -269.751)"/><path class="a" d="M23.287,273.632c.177-.089.444-.177.621-.266a1.261,1.261,0,0,1,.532-.177c.177,0,.355-.089.532-.089h.532a4.144,4.144,0,0,1,1.508.266,2.7,2.7,0,0,1,1.153.8,3.722,3.722,0,0,1,.8,1.242,4.3,4.3,0,0,1,.266,1.6,5.023,5.023,0,0,1-.266,1.6,3.721,3.721,0,0,1-.8,1.242,4.453,4.453,0,0,1-1.242.887,4.144,4.144,0,0,1-1.508.266h-.532c-.177,0-.355-.089-.532-.089a1.261,1.261,0,0,1-.532-.177,4.329,4.329,0,0,0-.621-.266v4.347h-.8V273.277h.8v.355Zm0,5.944.532.266c.177.089.355.089.532.177a1.126,1.126,0,0,0,.532.089h.532a2.834,2.834,0,0,0,1.242-.266,3.663,3.663,0,0,0,.976-.621,3.663,3.663,0,0,0,.621-.976,3.6,3.6,0,0,0-.089-2.484,3.665,3.665,0,0,0-.621-.976,3.939,3.939,0,0,0-.976-.71,2.834,2.834,0,0,0-1.242-.266H24.8a3.843,3.843,0,0,0-.444.089,1.261,1.261,0,0,0-.532.177l-.532.266v5.234Z" transform="translate(-2.527 -269.729)"/><path class="a" d="M34.787,273.632c.177-.089.444-.177.621-.266a1.261,1.261,0,0,1,.532-.177c.177,0,.355-.089.532-.089h.532a4.144,4.144,0,0,1,1.508.266,2.7,2.7,0,0,1,1.153.8,3.722,3.722,0,0,1,.8,1.242,4.3,4.3,0,0,1,.266,1.6,5.023,5.023,0,0,1-.266,1.6,3.72,3.72,0,0,1-.8,1.242,4.453,4.453,0,0,1-1.242.887,4.144,4.144,0,0,1-1.508.266h-.532c-.177,0-.355-.089-.532-.089a1.261,1.261,0,0,1-.532-.177,4.328,4.328,0,0,0-.621-.266v4.347h-.8V273.277h.8v.355Zm0,5.944.532.266c.177.089.355.089.532.177a1.126,1.126,0,0,0,.532.089h.532a2.834,2.834,0,0,0,1.242-.266,2.666,2.666,0,0,0,1.6-1.6,3.6,3.6,0,0,0-.089-2.484,3.665,3.665,0,0,0-.621-.976,3.939,3.939,0,0,0-.976-.71,2.834,2.834,0,0,0-1.242-.266H36.3c-.177,0-.266.089-.444.089a1.261,1.261,0,0,0-.532.177l-.532.266Z" transform="translate(-3.825 -269.729)"/><path class="a" d="M50.9,274.619l-5.057,6.3H45.4V273.2h.8v6.21l5.057-6.21H51.7v7.63h-.8Z" transform="translate(-5.122 -269.74)"/><path class="a" d="M63.141,273.2v.71H59.77v6.831h-.8V273.91H55.6v-.71Z" transform="translate(-6.273 -269.74)"/><path class="a" d="M74.53,277a5.023,5.023,0,0,1-.266,1.6,3.722,3.722,0,0,1-.8,1.242,3.008,3.008,0,0,1-1.242.8,4.506,4.506,0,0,1-1.508.266,4.144,4.144,0,0,1-1.508-.266,3.475,3.475,0,0,1-2.04-2.04A4.3,4.3,0,0,1,66.9,277a5.023,5.023,0,0,1,.266-1.6,3.476,3.476,0,0,1,2.04-2.041,4.407,4.407,0,0,1,3.016,0,3.476,3.476,0,0,1,2.041,2.041A5.023,5.023,0,0,1,74.53,277Zm-.8,0a2.833,2.833,0,0,0-.266-1.242,3.664,3.664,0,0,0-.621-.976,3.938,3.938,0,0,0-.976-.71,2.731,2.731,0,0,0-1.153-.266,3.482,3.482,0,0,0-1.242.266,2.666,2.666,0,0,0-1.6,1.6,3.031,3.031,0,0,0,0,2.484,3.663,3.663,0,0,0,.621.976,2.3,2.3,0,0,0,.976.621,2.834,2.834,0,0,0,1.242.266,2.456,2.456,0,0,0,1.153-.266,2.666,2.666,0,0,0,1.6-1.6A2.219,2.219,0,0,0,73.731,277Z" transform="translate(-7.548 -269.729)"/><path class="a" d="M80.087,273.632c.177-.089.444-.177.621-.266a1.261,1.261,0,0,1,.532-.177c.177,0,.355-.089.532-.089h.532a4.144,4.144,0,0,1,1.508.266,2.7,2.7,0,0,1,1.153.8,3.722,3.722,0,0,1,.8,1.242,4.3,4.3,0,0,1,.266,1.6,5.023,5.023,0,0,1-.266,1.6,3.721,3.721,0,0,1-.8,1.242,4.453,4.453,0,0,1-1.242.887,4.144,4.144,0,0,1-1.508.266h-.532c-.177,0-.355-.089-.532-.089a1.261,1.261,0,0,1-.532-.177,4.327,4.327,0,0,0-.621-.266v4.347h-.8V273.277H80v.355Zm0,5.944.532.266c.177.089.355.089.532.177a1.126,1.126,0,0,0,.532.089h.532a2.834,2.834,0,0,0,1.242-.266,2.666,2.666,0,0,0,1.6-1.6,3.6,3.6,0,0,0-.089-2.484,3.665,3.665,0,0,0-.621-.976,3.939,3.939,0,0,0-.976-.71,2.834,2.834,0,0,0-1.242-.266H81.6a3.843,3.843,0,0,0-.444.089,1.261,1.261,0,0,0-.532.177l-.532.266Z" transform="translate(-8.936 -269.729)"/><path class="a" d="M96.2,274.619l-5.057,6.3H90.7V273.2h.8v6.21l5.057-6.21H97v7.63h-.8Z" transform="translate(-10.233 -269.74)"/><path class="a" d="M107.376,280.841h-.8v-3.194h-1.242a1.73,1.73,0,0,0-.71.089c-.177.089-.444.177-.621.266a2.352,2.352,0,0,0-.532.444,1.592,1.592,0,0,0-.444.621l-1.153,1.774H100.9l1.331-1.952c.089-.177.177-.266.266-.444s.266-.266.355-.355l.355-.355a.673.673,0,0,1,.355-.177,2.108,2.108,0,0,1-1.331-.887,2.455,2.455,0,0,1-.444-1.419,1.5,1.5,0,0,1,.266-.887,2.073,2.073,0,0,1,.621-.621,3.179,3.179,0,0,1,.976-.355,5.458,5.458,0,0,1,1.242-.089h2.484Zm-.8-3.815v-3.105H105.07a3.325,3.325,0,0,0-.976.089,2.069,2.069,0,0,0-1.331.71,1.772,1.772,0,0,0-.177.8,1.315,1.315,0,0,0,.089.621,1.631,1.631,0,0,0,.887.887,2.456,2.456,0,0,0,.8.089h2.218Z" transform="translate(-11.384 -269.751)"/><path class="a" d="M124.744,280.53c-.177.089-.444.089-.621.177a1.126,1.126,0,0,1-.532.089c-.177,0-.355.089-.532.089h-.532a4.144,4.144,0,0,1-1.508-.266,2.7,2.7,0,0,1-1.153-.8,3.007,3.007,0,0,1-.8-1.242,4.3,4.3,0,0,1-.266-1.6,5.165,5.165,0,0,1,.266-1.686,4.1,4.1,0,0,1,.8-1.331,2.482,2.482,0,0,1,1.153-.8,4.144,4.144,0,0,1,1.508-.266h.444a.8.8,0,0,1,.444.089c.177,0,.355.089.532.089a5.645,5.645,0,0,0,.621.177v.887c-.177-.089-.444-.177-.621-.266s-.355-.089-.532-.177c-.177,0-.266-.089-.444-.089h-.444a2.456,2.456,0,0,0-1.153.266,3.187,3.187,0,0,0-.887.621,3.664,3.664,0,0,0-.621.976,3.03,3.03,0,0,0-.177,1.331,6.847,6.847,0,0,0,.177,1.331,3.664,3.664,0,0,0,.621.976,3.186,3.186,0,0,0,.887.621,2.82,2.82,0,0,0,1.242.177h.532a.665.665,0,0,0,.444-.089,1.26,1.26,0,0,0,.532-.177,5.653,5.653,0,0,1,.621-.177Z" transform="translate(-13.404 -269.706)"/><path class="a" d="M135.243,279.954a4.5,4.5,0,0,1-1.419.8,4.406,4.406,0,0,1-3.016,0,3.475,3.475,0,0,1-2.04-2.04,5.024,5.024,0,0,1-.266-1.6,4.144,4.144,0,0,1,.266-1.508,5.657,5.657,0,0,1,.71-1.242,2.7,2.7,0,0,1,1.153-.8,3.677,3.677,0,0,1,1.419-.266,5.989,5.989,0,0,1,1.242.177,1.766,1.766,0,0,1,1.065.71,2.7,2.7,0,0,1,.8,1.153,4.472,4.472,0,0,1,.266,1.686h-6.033v.355a3.131,3.131,0,0,0,.266,1.242,2.517,2.517,0,0,0,.71.976,3.664,3.664,0,0,0,.976.621,2.732,2.732,0,0,0,1.153.266,3.678,3.678,0,0,0,1.419-.266,5.212,5.212,0,0,0,1.419-.887v.621Zm-.8-3.9c-.266-1.508-1.065-2.218-2.4-2.218a2.625,2.625,0,0,0-.887.177,1.932,1.932,0,0,0-.71.444,2.135,2.135,0,0,0-.532.71,3.178,3.178,0,0,0-.355.976h4.879Z" transform="translate(-14.498 -269.751)"/><path class="a" d="M143.858,279.41l3.194-6.21h.444l.532,7.63h-.8l-.355-5.678-3.016,5.678-3.105-5.678-.355,5.678h-.8l.532-7.63h.444Z" transform="translate(-15.751 -269.74)"/><path class="a" d="M159.343,279.954a4.5,4.5,0,0,1-1.419.8,4.406,4.406,0,0,1-3.016,0,3.475,3.475,0,0,1-2.04-2.04,5.025,5.025,0,0,1-.266-1.6,4.145,4.145,0,0,1,.266-1.508,5.658,5.658,0,0,1,.71-1.242,2.7,2.7,0,0,1,1.153-.8,3.678,3.678,0,0,1,1.419-.266,5.989,5.989,0,0,1,1.242.177,1.766,1.766,0,0,1,1.065.71,2.7,2.7,0,0,1,.8,1.153,4.472,4.472,0,0,1,.266,1.686h-6.033v.355a3.131,3.131,0,0,0,.266,1.242,2.517,2.517,0,0,0,.71.976,3.665,3.665,0,0,0,.976.621,2.732,2.732,0,0,0,1.153.266,3.678,3.678,0,0,0,1.42-.266,5.211,5.211,0,0,0,1.419-.887v.621Zm-.8-3.9c-.266-1.508-1.065-2.218-2.4-2.218a2.625,2.625,0,0,0-.887.177,1.932,1.932,0,0,0-.71.444,2.135,2.135,0,0,0-.532.71,3.178,3.178,0,0,0-.355.976h4.879Z" transform="translate(-17.217 -269.751)"/><path class="a" d="M169.4,274.179l-5.057,6.3H163.9V272.76h.8v6.21l5.057-6.21h.444v7.63h-.8Zm-3.992-4.791a1.667,1.667,0,0,0,1.6,1.153,1.788,1.788,0,0,0,.976-.266,1.853,1.853,0,0,0,.71-.887h.621a3.552,3.552,0,0,1-.887,1.419,1.742,1.742,0,0,1-1.331.444,2.59,2.59,0,0,1-.8-.177,1.592,1.592,0,0,1-.621-.444,3.859,3.859,0,0,1-.532-.621c-.177-.266-.266-.444-.444-.71h.71Z" transform="translate(-18.492 -269.3)"/><path class="a" d="M181.488,273.2v7.63h-.8v-3.637H175.9v3.637h-.8V273.2h.8v3.371h4.7V273.2Z" transform="translate(-19.756 -269.74)"/><path class="a" d="M193.73,277a5.023,5.023,0,0,1-.266,1.6,3.722,3.722,0,0,1-.8,1.242,3.008,3.008,0,0,1-1.242.8,4.405,4.405,0,0,1-3.016,0,3.475,3.475,0,0,1-2.04-2.04,4.3,4.3,0,0,1-.266-1.6,5.023,5.023,0,0,1,.266-1.6,3.476,3.476,0,0,1,2.04-2.041,4.407,4.407,0,0,1,3.016,0,3.476,3.476,0,0,1,2.04,2.041A5.023,5.023,0,0,1,193.73,277Zm-.887,0a2.833,2.833,0,0,0-.266-1.242,3.663,3.663,0,0,0-.621-.976,3.938,3.938,0,0,0-.976-.71,2.731,2.731,0,0,0-1.153-.266,3.131,3.131,0,0,0-1.242.266,2.666,2.666,0,0,0-1.6,1.6,3.031,3.031,0,0,0,0,2.484,3.663,3.663,0,0,0,.621.976,2.3,2.3,0,0,0,.976.621,2.834,2.834,0,0,0,1.242.266,2.456,2.456,0,0,0,1.153-.266,2.666,2.666,0,0,0,1.6-1.6A2.219,2.219,0,0,0,192.842,277Z" transform="translate(-20.997 -269.729)"/><path class="a" d="M203.3,273.189v.71h-3.9v6.831h-.8V273.1h4.7Z" transform="translate(-22.408 -269.729)"/><path class="a" d="M214.33,277a5.024,5.024,0,0,1-.266,1.6,3.721,3.721,0,0,1-.8,1.242,3.007,3.007,0,0,1-1.242.8,4.405,4.405,0,0,1-3.016,0,3.475,3.475,0,0,1-2.04-2.04,4.3,4.3,0,0,1-.266-1.6,5.023,5.023,0,0,1,.266-1.6,3.476,3.476,0,0,1,2.04-2.041,4.407,4.407,0,0,1,3.016,0,3.476,3.476,0,0,1,2.04,2.041A5.023,5.023,0,0,1,214.33,277Zm-.887,0a2.833,2.833,0,0,0-.266-1.242,3.664,3.664,0,0,0-.621-.976,3.938,3.938,0,0,0-.976-.71,2.731,2.731,0,0,0-1.153-.266,3.13,3.13,0,0,0-1.242.266,2.666,2.666,0,0,0-1.6,1.6,3.031,3.031,0,0,0,0,2.484,3.663,3.663,0,0,0,.621.976,2.3,2.3,0,0,0,.976.621,2.834,2.834,0,0,0,1.242.266,2.456,2.456,0,0,0,1.153-.266,2.666,2.666,0,0,0,1.6-1.6A2.22,2.22,0,0,0,213.443,277Z" transform="translate(-23.321 -269.729)"/><path class="a" d="M233.43,277a5.024,5.024,0,0,1-.266,1.6,3.722,3.722,0,0,1-.8,1.242,3.008,3.008,0,0,1-1.242.8,4.505,4.505,0,0,1-1.508.266,4.143,4.143,0,0,1-1.508-.266,3.475,3.475,0,0,1-2.04-2.04,4.3,4.3,0,0,1-.266-1.6,5.023,5.023,0,0,1,.266-1.6,3.476,3.476,0,0,1,2.04-2.041,4.407,4.407,0,0,1,3.016,0,3.476,3.476,0,0,1,2.04,2.041A10,10,0,0,1,233.43,277Zm-.887,0a2.833,2.833,0,0,0-.266-1.242,3.663,3.663,0,0,0-.621-.976,3.938,3.938,0,0,0-.976-.71,2.731,2.731,0,0,0-1.153-.266,3.482,3.482,0,0,0-1.242.266,2.666,2.666,0,0,0-1.6,1.6,3.031,3.031,0,0,0,0,2.484,3.664,3.664,0,0,0,.621.976,2.3,2.3,0,0,0,.976.621,2.834,2.834,0,0,0,1.242.266,2.456,2.456,0,0,0,1.153-.266,2.666,2.666,0,0,0,1.6-1.6A2.219,2.219,0,0,0,232.543,277Z" transform="translate(-25.476 -269.729)"/><path class="a" d="M244.63,273.2v.71h-3.371v6.831h-.8V273.91H237v-.71Z" transform="translate(-26.74 -269.74)"/><path class="a" d="M255.507,280.1v2.661h-.71v-2.04H248.41v2.04h-.71V280.1h.621l3.194-7.1h.532l3.016,7.1Zm-3.815-5.678-2.573,5.767h5.057Z" transform="translate(-27.947 -269.717)"/><path class="a" d="M259.6,280.83V273.2h.8v2.839h2.04a5.561,5.561,0,0,1,1.419.177,7.805,7.805,0,0,1,.887.532,3.113,3.113,0,0,1,.444.71,2.457,2.457,0,0,1,.089.8,1.892,1.892,0,0,1-.266,1.065,4.878,4.878,0,0,1-.621.8,2.776,2.776,0,0,1-.887.443,4.452,4.452,0,0,1-1.065.177H259.6Zm.8-4.081v3.46h2.218a1.771,1.771,0,0,0,.8-.177,1.364,1.364,0,0,0,.532-.355,1.855,1.855,0,0,0,.355-.532,1.729,1.729,0,0,0,.089-.71,1.611,1.611,0,0,0-.532-1.242,1.833,1.833,0,0,0-1.419-.444Zm7.009-3.549v7.63h-.8V273.2Z" transform="translate(-29.29 -269.74)"/><path class="a" d="M275.381,277.458l-3.016,3.371H271.3l3.46-3.9L271.3,273.2h1.065l3.016,3.194L278.4,273.2h1.065L276,276.926l3.46,3.9H278.4Z" transform="translate(-30.61 -269.74)"/><path class="a" d="M287.247,275.307c0-1.065-.532-1.6-1.686-1.6a1.51,1.51,0,0,0-.621.089,1.261,1.261,0,0,0-.532.177l-.532.266a2.7,2.7,0,0,0-.621.444v-.8a5.1,5.1,0,0,1,.621-.355c.177-.089.444-.177.621-.266a5.669,5.669,0,0,1,.621-.177c.177,0,.355-.089.621-.089a2.455,2.455,0,0,1,.8.089l.8.266a1.4,1.4,0,0,1,.621.621,1.788,1.788,0,0,1,.266.976v5.057c0,.089.089.089.177.089a.275.275,0,0,0,.177-.089c.089,0,.177-.089.266-.177a.461.461,0,0,1,.355-.177c.177,0,.177-.177.266-.266v.71l-.089.089a1.857,1.857,0,0,1-.532.355c-.177.089-.266.177-.355.177a.326.326,0,0,1-.266.089h-.532c-.089,0-.089-.089-.177-.177,0-.089-.089-.177-.089-.266a3.841,3.841,0,0,1-.089-.444,4.447,4.447,0,0,1-1.242.71,3.064,3.064,0,0,1-1.153.266,2.589,2.589,0,0,1-.8-.177,2.321,2.321,0,0,1-1.065-1.065,2.087,2.087,0,0,1-.177-.71,2.624,2.624,0,0,1,.177-.887,1.932,1.932,0,0,1,.444-.71,4.916,4.916,0,0,1,.71-.532,3.708,3.708,0,0,1,.887-.355c.266-.089.71-.177,1.065-.266a4.317,4.317,0,0,1,1.065-.089v-.8Zm0,1.6a7.169,7.169,0,0,0-1.419.089,4.459,4.459,0,0,0-1.153.444,2.1,2.1,0,0,0-.8.71,1.5,1.5,0,0,0-.266.887,1.126,1.126,0,0,0,.089.532,1.559,1.559,0,0,0,.355.444,1.941,1.941,0,0,0,.444.266,1.316,1.316,0,0,0,.621.089,1.126,1.126,0,0,0,.532-.089,1.261,1.261,0,0,0,.532-.177l.532-.266a2.353,2.353,0,0,0,.532-.444V276.9Z" transform="translate(-31.919 -269.717)"/></g><g transform="translate(512.686 113)"><path class="a" d="M12.546,228.23a.588.588,0,0,1-.177-.621,1.444,1.444,0,0,1,.266-.532,1.655,1.655,0,0,1,.887-.444,3.27,3.27,0,0,1,1.331-.089,6.377,6.377,0,0,1,1.686.355,6.671,6.671,0,0,1,1.863,1.065,7.528,7.528,0,0,1,1.774,1.952,10.415,10.415,0,0,1,1.331,2.4,14.044,14.044,0,0,1,.8,2.75,16.115,16.115,0,0,1,.266,2.839,14.964,14.964,0,0,1-.71,4.968,13.947,13.947,0,0,1-1.952,3.992,9.175,9.175,0,0,1-3.194,2.661,10.3,10.3,0,0,1-4.525.976,10.422,10.422,0,0,1-4.613-.976,8.788,8.788,0,0,1-3.194-2.75,10.346,10.346,0,0,1-1.863-3.992A17.1,17.1,0,0,1,1.9,237.9a15.149,15.149,0,0,1,.71-4.791,15.7,15.7,0,0,1,1.686-3.46,8.5,8.5,0,0,1,2.307-2.4,20.479,20.479,0,0,1,2.484-1.686q1.2-.8,2.129-1.331a6.927,6.927,0,0,0,1.419-1.331,2.656,2.656,0,0,1-.71-.355,1.084,1.084,0,0,1-.266-.8.865.865,0,0,1,.355-.8,1.3,1.3,0,0,1,1.952.177,2.516,2.516,0,0,1,.355,1.153,2.209,2.209,0,0,1-.621,1.686,11.479,11.479,0,0,1-1.508,1.331,15.448,15.448,0,0,0-1.952,1.6,8.617,8.617,0,0,0-1.952,2.307,11.856,11.856,0,0,0-1.419,3.549,26.679,26.679,0,0,0-.089,9.227,14.3,14.3,0,0,0,1.065,3.46,7.924,7.924,0,0,0,1.863,2.484,4.336,4.336,0,0,0,2.75.976,5.066,5.066,0,0,0,2.839-.8,5.846,5.846,0,0,0,1.863-2.04,11.858,11.858,0,0,0,1.153-2.839,19.5,19.5,0,0,0,.532-3.283,19.2,19.2,0,0,0,0-3.194,17.688,17.688,0,0,0-.355-2.662,22.913,22.913,0,0,0-.71-2.307,11.573,11.573,0,0,0-1.065-1.863,5.149,5.149,0,0,0-1.331-1.153,1.531,1.531,0,0,0-1.508.089.665.665,0,0,1-.444.089C13.256,228.939,12.812,228.407,12.546,228.23Z" transform="translate(-1.9 -220.6)"/><path class="a" d="M39.564,243.921a6.664,6.664,0,0,0-.444-2.307,4.949,4.949,0,0,0-1.242-1.774,3.948,3.948,0,0,0-1.863-1.065,5.022,5.022,0,0,0-2.307-.266,3.638,3.638,0,0,0-.976.089c-.355.089-.621.089-.976.177.089-.355.177-.71.266-.976a4.326,4.326,0,0,1,.355-.976H33.62a4.076,4.076,0,0,0,2.04-.266,5.714,5.714,0,0,0,1.774-.976,5.526,5.526,0,0,0,1.242-1.6,4.522,4.522,0,0,0,.444-2.218,3.687,3.687,0,0,0-1.153-2.928,4.174,4.174,0,0,0-3.016-1.065,5.762,5.762,0,0,0-1.952.444,3.928,3.928,0,0,0-1.331,1.065,6.811,6.811,0,0,0-.887,1.6,13.708,13.708,0,0,0-.532,2.041l-.089.089a26.669,26.669,0,0,0-1.508-3.194c-.532-.976-1.065-1.952-1.686-2.928l.177-.089a8.238,8.238,0,0,0,.887.444,3.9,3.9,0,0,0,.887.177,6.9,6.9,0,0,0,1.419-.177c.355-.177.8-.266,1.242-.444s.976-.355,1.508-.532A7.327,7.327,0,0,1,35.217,226a13.539,13.539,0,0,1,2.662.266,7.172,7.172,0,0,1,2.4.976,4.816,4.816,0,0,1,2.4,4.613,6.175,6.175,0,0,1-1.065,3.726,5.342,5.342,0,0,1-3.194,1.952v.177a12.835,12.835,0,0,1,2.218.887,8.3,8.3,0,0,1,1.686,1.242,5.906,5.906,0,0,1,1.065,1.774,7,7,0,0,1,.355,2.484,6.175,6.175,0,0,1-1.065,3.726,6.787,6.787,0,0,1-2.75,2.218,9.5,9.5,0,0,1-2.4.8,13.775,13.775,0,0,1-2.75.266,20.186,20.186,0,0,1-2.307-.177,14.938,14.938,0,0,1-2.129-.532,7.428,7.428,0,0,1-2.573-1.774,4.03,4.03,0,0,1-1.065-2.839,3.353,3.353,0,0,1,3.549-3.549,3.2,3.2,0,0,1,1.774.532,3.048,3.048,0,0,1,1.153,1.419,4.322,4.322,0,0,0-.621-.266,1.8,1.8,0,0,0-2.218.532,2.125,2.125,0,0,0-.444,1.686,3.29,3.29,0,0,0,.355,1.242,2.36,2.36,0,0,0,.887.976,4.5,4.5,0,0,0,1.6.8,7.29,7.29,0,0,0,3.9,0,4.5,4.5,0,0,0,1.6-.8h0a5.861,5.861,0,0,0,1.242-1.774C39.475,245.7,39.564,244.9,39.564,243.921Z" transform="translate(-4.698 -221.209)"/><path class="a" d="M50.749,238.554A5.6,5.6,0,0,0,48.8,239a7.382,7.382,0,0,0-1.6,1.153,3.353,3.353,0,0,1,3.549-3.549v-7.718L48,226.4H67.96a25.929,25.929,0,0,0-1.863,2.839c-.532.976-1.065,1.952-1.6,3.016l-.8-1.6a4.662,4.662,0,0,0-.976-1.242,3.7,3.7,0,0,0-1.419-.8,6.491,6.491,0,0,0-1.952-.266H54.564v8.339h4.968l2.4-3.105H62.1v8.073h-.089l-2.4-3.105H54.652v10.2h3.194a22.458,22.458,0,0,0,2.573-.089,4.22,4.22,0,0,0,1.863-.621,7.065,7.065,0,0,0,1.508-1.331,23.248,23.248,0,0,0,1.508-2.4c.266.71.444,1.331.71,1.863s.532,1.065.8,1.508a12.429,12.429,0,0,0,.887,1.419c.355.444.71.976,1.153,1.508H48.087l2.75-2.484v-9.581Z" transform="translate(-7.011 -221.254)"/><path class="a" d="M76.171,239.985a4.115,4.115,0,0,0-1.863.355A5.83,5.83,0,0,0,72.8,241.4a3.338,3.338,0,0,1,.976-2.484,4.217,4.217,0,0,1,2.484-.976v-8.96L73.51,226.5h9.936c1.065,0,2.218.089,3.371.177a9.4,9.4,0,0,1,3.194.8,5.709,5.709,0,0,1,2.4,1.952,6.133,6.133,0,0,1,.887,3.637,6.935,6.935,0,0,1-.976,3.815,6.375,6.375,0,0,1-2.4,2.218,7.5,7.5,0,0,1-3.105.976c-1.153.089-2.129.266-3.105.266a14.407,14.407,0,0,1-1.863-.089c-.71-.089-1.242-.089-1.774-.177v8.073l2.75,2.484h-9.4l2.75-2.4Zm3.815-1.863c.444.089.887.089,1.419.177.532,0,1.153.089,1.686.089a7.562,7.562,0,0,0,2.04-.266,5.915,5.915,0,0,0,1.863-.8,4.749,4.749,0,0,0,1.331-1.6,5.791,5.791,0,0,0,.532-2.573,5.478,5.478,0,0,0-.444-2.218,4.877,4.877,0,0,0-1.153-1.508,3.643,3.643,0,0,0-1.774-.8,8.938,8.938,0,0,0-2.218-.266H79.986Z" transform="translate(-9.899 -221.266)"/><path class="a" d="M118.371,238.487a14.964,14.964,0,0,1-.71,4.968,13.945,13.945,0,0,1-1.952,3.992,9.175,9.175,0,0,1-3.194,2.662,10.3,10.3,0,0,1-4.525.976,10.422,10.422,0,0,1-4.613-.976,8.789,8.789,0,0,1-3.194-2.75,10.346,10.346,0,0,1-1.863-3.992,17.1,17.1,0,0,1-.621-4.879,15.5,15.5,0,0,1,.71-5.057,11.972,11.972,0,0,1,1.952-3.992,9.2,9.2,0,0,1,7.718-3.637,10.053,10.053,0,0,1,4.791,1.065,8.24,8.24,0,0,1,3.194,2.839,11.675,11.675,0,0,1,1.774,3.992A28.284,28.284,0,0,1,118.371,238.487Zm-4.347,0a23.207,23.207,0,0,0-.266-3.283,16.169,16.169,0,0,0-.976-3.549,8.765,8.765,0,0,0-1.863-2.839,3.944,3.944,0,0,0-2.928-1.153,4.215,4.215,0,0,0-2.129.532,4.861,4.861,0,0,0-1.6,1.419,10.3,10.3,0,0,0-1.153,1.952,9.958,9.958,0,0,0-.71,2.307,22.285,22.285,0,0,0-.355,2.4,18.568,18.568,0,0,0-.089,2.129,18.8,18.8,0,0,0,.355,3.9,14.3,14.3,0,0,0,1.065,3.46,9.106,9.106,0,0,0,1.863,2.484,4.363,4.363,0,0,0,5.5,0,5.939,5.939,0,0,0,1.863-2.484,9.909,9.909,0,0,0,1.065-3.46A27.726,27.726,0,0,0,114.024,238.487Z" transform="translate(-12.709 -221.187)"/><path class="a" d="M137.011,250.809a1.886,1.886,0,0,1-1.863-.355,3.9,3.9,0,0,1-1.065-1.6,3.645,3.645,0,0,1,0-1.952,2.382,2.382,0,0,1,1.331-1.6,2.72,2.72,0,0,0,0,1.686,1.476,1.476,0,0,0,1.331.8,2.269,2.269,0,0,0,1.508-1.153,9.246,9.246,0,0,0,1.153-2.662,31.267,31.267,0,0,0,.887-3.637,30.159,30.159,0,0,0,.532-4.081l.266-3.992a20.137,20.137,0,0,0,0-3.283l-2.75-2.484h17.122l-2.662,2.484v19.163l2.662,2.484h-9.315l2.75-2.484V228.274H143.31v2.573c0,1.242-.089,2.661-.177,4.258a49.857,49.857,0,0,1-.532,4.968,39.392,39.392,0,0,1-1.065,4.879,15.8,15.8,0,0,1-1.774,3.9A4.246,4.246,0,0,1,137.011,250.809Z" transform="translate(-16.799 -221.266)"/><path class="a" d="M171.785,245.408a12.638,12.638,0,0,1-1.774,3.637,4.018,4.018,0,0,1-2.573,1.686,2.413,2.413,0,0,1-1.952-.444,3.385,3.385,0,0,1-1.065-1.508,2.7,2.7,0,0,1,.089-1.863,2.781,2.781,0,0,1,1.508-1.508,3.639,3.639,0,0,0-.089.976,2.735,2.735,0,0,0,.089.887,1.592,1.592,0,0,0,.444.621,1.325,1.325,0,0,0,.887.266,2.665,2.665,0,0,0,.976-.532,6.152,6.152,0,0,0,1.065-1.686l-8.428-16.856L158.3,226.6h9.049l-1.952,2.307,6.121,12.243c.444-1.065.887-2.129,1.242-3.105s.8-1.952,1.153-2.928.8-1.863,1.153-2.839.8-1.952,1.242-2.928l-2.129-2.662h8.251l-3.9,2.484Z" transform="translate(-19.546 -221.277)"/><path class="a" d="M206.66,228.973v19.163l2.75,2.484h-9.315l2.75-2.484v-8.96h-9.759v8.96l2.75,2.484h-9.315l2.75-2.484v-8.783a6.911,6.911,0,0,0-1.863.355,3.709,3.709,0,0,0-1.508.976,3.927,3.927,0,0,1,.976-2.661,3.469,3.469,0,0,1,2.484-1.153v-7.985l-2.75-2.484h9.315l-2.75,2.484v8.073h9.67v-7.985l-2.75-2.484h9.315l-2.75,2.484Z" transform="translate(-22.66 -221.254)"/><path class="a" d="M234.06,228.973v19.163l2.75,2.484h-9.315l2.75-2.484v-8.96h-9.67v8.96l2.75,2.484h-9.4l2.75-2.484v-8.783a6.911,6.911,0,0,0-1.863.355,3.71,3.71,0,0,0-1.508.976,3.927,3.927,0,0,1,.976-2.661,3.469,3.469,0,0,1,2.484-1.153v-7.985l-2.75-2.484h9.315l-2.75,2.484v8.073h9.67v-7.985l-2.75-2.484h9.315l-2.75,2.484Z" transform="translate(-25.752 -221.254)"/><path class="a" d="M261.582,238.487a17.729,17.729,0,0,1-.621,4.968,11.972,11.972,0,0,1-1.952,3.992,9.175,9.175,0,0,1-3.194,2.662,10.3,10.3,0,0,1-4.525.976,10.421,10.421,0,0,1-4.613-.976,8.789,8.789,0,0,1-3.194-2.75,10.346,10.346,0,0,1-1.863-3.992,17.1,17.1,0,0,1-.621-4.879,18.377,18.377,0,0,1,.621-5.057,11.973,11.973,0,0,1,1.952-3.992,9.2,9.2,0,0,1,7.718-3.637,10.053,10.053,0,0,1,4.791,1.065,8.24,8.24,0,0,1,3.194,2.839,11.674,11.674,0,0,1,1.774,3.992A20.863,20.863,0,0,1,261.582,238.487Zm-4.347,0a23.212,23.212,0,0,0-.266-3.283,16.168,16.168,0,0,0-.976-3.549,8.765,8.765,0,0,0-1.863-2.839,3.944,3.944,0,0,0-2.928-1.153,4.215,4.215,0,0,0-2.129.532,4.861,4.861,0,0,0-1.6,1.419,14.124,14.124,0,0,0-1.153,1.952,9.957,9.957,0,0,0-.71,2.307,22.289,22.289,0,0,0-.355,2.4,18.577,18.577,0,0,0-.089,2.129,18.8,18.8,0,0,0,.355,3.9,14.3,14.3,0,0,0,1.065,3.46,7.924,7.924,0,0,0,1.863,2.484,4.363,4.363,0,0,0,5.5,0,5.939,5.939,0,0,0,1.863-2.484,13.176,13.176,0,0,0,1.065-3.46A27.724,27.724,0,0,0,257.235,238.487Z" transform="translate(-28.877 -221.187)"/><path class="a" d="M269.549,238.554A5.6,5.6,0,0,0,267.6,239a7.381,7.381,0,0,0-1.6,1.153,3.353,3.353,0,0,1,3.549-3.549v-7.718L266.8,226.4H286.76a25.925,25.925,0,0,0-1.863,2.839c-.532.976-1.065,1.952-1.6,3.016l-.8-1.6a4.663,4.663,0,0,0-.976-1.242,3.7,3.7,0,0,0-1.419-.8,6.491,6.491,0,0,0-1.952-.266h-4.791v8.339h4.968l2.4-3.105h.089v8.073h-.089l-2.4-3.105h-4.968v10.2h3.194a22.458,22.458,0,0,0,2.573-.089,4.22,4.22,0,0,0,1.863-.621,7.066,7.066,0,0,0,1.508-1.331,23.253,23.253,0,0,0,1.508-2.4c.266.71.444,1.331.71,1.863s.532,1.065.8,1.508a12.433,12.433,0,0,0,.887,1.419c.355.444.71.976,1.153,1.508H266.8l2.75-2.484Z" transform="translate(-31.698 -221.254)"/></g></g></svg>