<svg id="iconfinder_36_social_2609570" xmlns="http://www.w3.org/2000/svg" viewBox="0 0 40 40">
  <defs>
    <style>
      .cls-1 {
        fill: #59b749;
      }

      .cls-2 {
        fill: #fff;
      }
    </style>
  </defs>
  <path id="Path_2032" data-name="Path 2032" class="cls-1" d="M40,31.023A8.977,8.977,0,0,1,31.023,40H8.977A8.982,8.982,0,0,1,0,31.023V8.977A8.982,8.982,0,0,1,8.977,0H31.023A8.982,8.982,0,0,1,40,8.977Z"/>
  <g id="Group_513" data-name="Group 513" transform="translate(5.078 11.039)">
    <path id="Path_2033" data-name="Path 2033" class="cls-2" d="M92.852,147.277c1.992-.492,1.992-1.992,1.992-1.992H89.867a12.78,12.78,0,0,0-9.953-3.984,12.775,12.775,0,0,0-9.945,3.984H65s0,1.492,1.992,1.992a13.5,13.5,0,0,0-1.117,1.875,7.617,7.617,0,0,0-.875,3.1,6.659,6.659,0,0,0,6.969,6.961,8.057,8.057,0,0,0,5.969-2.984l1.992,2.984,1.992-2.984a8.071,8.071,0,0,0,5.969,2.984,6.657,6.657,0,0,0,6.961-6.961,7.392,7.392,0,0,0-.8-2.961A13.207,13.207,0,0,0,92.852,147.277Zm-20.891,9.945a4.973,4.973,0,0,1,0-9.945,4.973,4.973,0,1,1,0,9.945Zm7.961-1.984a11.291,11.291,0,0,0-3.2-7.641,6.888,6.888,0,0,0-4.758-2.312,12.11,12.11,0,0,1,15.922,0,6.906,6.906,0,0,0-4.781,2.336A11.272,11.272,0,0,0,79.922,155.238Zm7.961,1.984a4.967,4.967,0,1,1,4.977-4.969A4.971,4.971,0,0,1,87.883,157.222Z" transform="translate(-65 -141.3)"/>
    <path id="XMLID_83_" class="cls-2" d="M346.192,268.7a1,1,0,1,0,.992,1A1,1,0,0,0,346.192,268.7Z" transform="translate(-323.309 -258.747)"/>
    <path id="Path_2034" data-name="Path 2034" class="cls-2" d="M322.684,243.3a2.988,2.988,0,1,0,2.984,2.992A2.986,2.986,0,0,0,322.684,243.3Zm0,4.977a1.988,1.988,0,1,1,1.992-1.984A1.989,1.989,0,0,1,322.684,248.277Z" transform="translate(-299.802 -235.331)"/>
    <path id="XMLID_80_" class="cls-2" d="M142.392,268.7a1,1,0,1,0,.992,1A1,1,0,0,0,142.392,268.7Z" transform="translate(-135.431 -258.747)"/>
    <path id="Path_2035" data-name="Path 2035" class="cls-2" d="M118.884,243.3a2.988,2.988,0,1,0,2.984,2.992A2.986,2.986,0,0,0,118.884,243.3Zm0,4.977a1.988,1.988,0,1,1,1.992-1.984A1.989,1.989,0,0,1,118.884,248.277Z" transform="translate(-111.923 -235.331)"/>
  </g>
</svg>
