<svg xmlns="http://www.w3.org/2000/svg" viewBox="0 0 40 40">
  <defs>
    <style>
      .cls-1 {
        fill: #003382;
      }

      .cls-2 {
        fill: #fff;
        fill-rule: evenodd;
      }
    </style>
  </defs>
  <g id="Group_933" data-name="Group 933" transform="translate(-383 -3362)">
    <g id="iconfinder_36_social_2609570" transform="translate(383 3362)">
      <g id="Group_932" data-name="Group 932" transform="translate(0)">
        <path id="Path_2032" data-name="Path 2032" class="cls-1" d="M40,31.023A8.977,8.977,0,0,1,31.023,40H8.977A8.982,8.982,0,0,1,0,31.023V8.977A8.982,8.982,0,0,1,8.977,0H31.023A8.982,8.982,0,0,1,40,8.977Z"/>
      </g>
    </g>
    <g id="iconfinder_social-59_1591871" transform="translate(396 3372)">
      <path id="Path_2038" data-name="Path 2038" class="cls-1" d="M0,42.254Z" transform="translate(0 -31.727)"/>
      <g id="Group_514" data-name="Group 514" transform="translate(-0.026 -1)">
        <path id="Path_2036" data-name="Path 2036" class="cls-2" d="M43.956,42.767c.351.211.7.391,1.011.612a4.783,4.783,0,0,1,1.974,3.2,5.953,5.953,0,0,1-.6,3.981,5.662,5.662,0,0,1-2.771,2.478,8,8,0,0,1-3.2.711c-2.569.028-5.138.022-7.708.028-.049,0-.1-.009-.172-.014v-.206q0-9.227,0-18.458a2.192,2.192,0,0,1,2.132-2.141c1.794-.006,3.588-.023,5.383.006a7.088,7.088,0,0,1,4.18,1.271,4.788,4.788,0,0,1,2.013,3.709,5.128,5.128,0,0,1-.936,3.506,9.379,9.379,0,0,1-.893.956C44.25,42.534,44.1,42.641,43.956,42.767Zm-7.406,7.44a.625.625,0,0,0,.1.018c1.262,0,2.527.03,3.788-.019a2.305,2.305,0,0,0,2.1-1.3,3.178,3.178,0,0,0,0-2.975,2.505,2.505,0,0,0-2.34-1.328c-.825-.025-1.651-.01-2.476,0a1.107,1.107,0,0,0-1.117.945,2.983,2.983,0,0,0-.047.54q-.006,1.958,0,3.92C36.55,50.069,36.55,50.131,36.55,50.207Zm.01-8.845c1.009,0,1.99,0,2.969,0,.139,0,.275,0,.414-.007a2.163,2.163,0,0,0,1.746-.977,2.949,2.949,0,0,0,.413-1.887,2.124,2.124,0,0,0-2.016-2.069,22.229,22.229,0,0,0-2.3-.028,1.1,1.1,0,0,0-1.123.746,2.488,2.488,0,0,0-.1.735c-.011,1.093,0,2.188,0,3.282C36.551,41.219,36.556,41.28,36.56,41.362Z" transform="translate(-32.497 -32.947)"/>
        <path id="Path_2037" data-name="Path 2037" class="cls-2" d="M59.383,61.45a2.507,2.507,0,0,1,5.013.036,2.529,2.529,0,0,1-2.463,2.475A2.5,2.5,0,0,1,59.383,61.45Z" transform="translate(-42.786 -42.908)"/>
      </g>
    </g>
  </g>
</svg>
