<svg xmlns="http://www.w3.org/2000/svg" viewBox="0 0 18.282 19.651">
  <defs>
    <style>
      .cls-1 {
        fill: #126276;
      }
    </style>
  </defs>
  <g id="sauna_1_" data-name="sauna (1)" transform="translate(0)">
    <g id="Group_50" data-name="Group 50" transform="translate(7.664 8.182)">
      <g id="Group_49" data-name="Group 49">
        <path id="Path_434" data-name="Path 434" class="cls-1" d="M218.44,213.541a.477.477,0,0,0-.026-.086.472.472,0,0,0-.042-.079.437.437,0,0,0-.057-.07.463.463,0,0,0-.414-.126.471.471,0,0,0-.086.026.463.463,0,0,0-.079.042.438.438,0,0,0-.07.057.444.444,0,0,0-.057.07.469.469,0,0,0-.042.079.479.479,0,0,0-.026.086.461.461,0,0,0,.126.414.437.437,0,0,0,.07.057.462.462,0,0,0,.079.042.476.476,0,0,0,.086.026.459.459,0,0,0,.549-.45A.45.45,0,0,0,218.44,213.541Z" transform="translate(-217.531 -213.172)"/>
      </g>
    </g>
    <g id="Group_52" data-name="Group 52" transform="translate(3.356 8.339)">
      <g id="Group_51" data-name="Group 51" transform="translate(0)">
        <path id="Path_435" data-name="Path 435" class="cls-1" d="M106.177,217.645a.447.447,0,0,0-.026-.086.467.467,0,0,0-.042-.079.433.433,0,0,0-.057-.07.44.44,0,0,0-.07-.057.455.455,0,0,0-.079-.042.428.428,0,0,0-.086-.026.45.45,0,0,0-.179,0,.439.439,0,0,0-.086.026.471.471,0,0,0-.079.042.438.438,0,0,0-.07.057.456.456,0,0,0-.1.149.482.482,0,0,0-.026.086.465.465,0,0,0,0,.179.463.463,0,0,0,.026.086.455.455,0,0,0,.042.079.468.468,0,0,0,.057.07.443.443,0,0,0,.07.057.47.47,0,0,0,.079.042.484.484,0,0,0,.086.026.443.443,0,0,0,.179,0,.463.463,0,0,0,.086-.026.458.458,0,0,0,.079-.042.447.447,0,0,0,.127-.127.453.453,0,0,0,.042-.079.434.434,0,0,0,.026-.086.44.44,0,0,0,0-.179Z" transform="translate(-105.268 -217.276)"/>
      </g>
    </g>
    <g id="Group_54" data-name="Group 54" transform="translate(11.973 8.339)">
      <g id="Group_53" data-name="Group 53">
        <path id="Path_436" data-name="Path 436" class="cls-1" d="M330.692,217.634a.484.484,0,0,0-.026-.086.468.468,0,0,0-.042-.079.463.463,0,0,0-.057-.07.481.481,0,0,0-.07-.057.469.469,0,0,0-.079-.042.481.481,0,0,0-.086-.027.455.455,0,0,0-.179,0,.473.473,0,0,0-.086.027.441.441,0,0,0-.149.1.437.437,0,0,0-.057.07.465.465,0,0,0-.042.079.475.475,0,0,0-.026.086.442.442,0,0,0,0,.179.462.462,0,0,0,.026.086.45.45,0,0,0,.042.079.429.429,0,0,0,.057.07.468.468,0,0,0,.07.057.5.5,0,0,0,.079.042.432.432,0,0,0,.086.026.454.454,0,0,0,.09.009.459.459,0,0,0,.09-.009.441.441,0,0,0,.086-.026.476.476,0,0,0,.079-.042.438.438,0,0,0,.07-.057.469.469,0,0,0,.057-.07.453.453,0,0,0,.042-.079.471.471,0,0,0,.026-.086.464.464,0,0,0,0-.179Z" transform="translate(-329.783 -217.265)"/>
      </g>
    </g>
    <g id="Group_56" data-name="Group 56" transform="translate(0)">
      <g id="Group_55" data-name="Group 55" transform="translate(0)">
        <path id="Path_437" data-name="Path 437" class="cls-1" d="M36.069,9.4a.459.459,0,0,0-.618-.2A9.447,9.447,0,0,0,33.6,10.447l.48-3.362a.459.459,0,0,0-.454-.524h-5.5l-.177-.972a3.147,3.147,0,1,0-3.97,0l-.177.972H18.3a.459.459,0,0,0-.454.524l.565,3.955a.458.458,0,0,0-.428.526l.435,2.869a.459.459,0,0,0,.454.39h.08l.633,4.431a.459.459,0,0,0,.454.394H31.886a.459.459,0,0,0,.454-.394l.633-4.431h.08a.459.459,0,0,0,.454-.39l.435-2.869a.459.459,0,0,0-.01-.185,8.511,8.511,0,0,1,1.938-1.363A.459.459,0,0,0,36.069,9.4ZM23.732,3.147a2.229,2.229,0,1,1,3.458,1.86.459.459,0,0,0-.2.465l.2,1.089H24.732l.2-1.089a.459.459,0,0,0-.2-.465A2.226,2.226,0,0,1,23.732,3.147ZM19.346,13.908h-.083l-.3-1.951H32.194a9.335,9.335,0,0,0-1.112,1.951Zm11.405.918q-.094.311-.167.632h-.648l.082-.632Zm-1.659,0-.082.632H26.42v-.632Zm-8.659,3.908-.558-3.908H21.9l.305,2.525a.459.459,0,0,0,.455.4.47.47,0,0,0,.056,0,.459.459,0,0,0,.4-.511l-.292-2.415H25.5v.861a.456.456,0,0,0-.062.23v.665a3,3,0,0,0,.91,2.152H20.434Zm10.1-2.152a2.088,2.088,0,1,1-4.176,0v-.207h4.176Zm.955,2.152h-.947a3,3,0,0,0,.91-2.152v-.665a.465.465,0,0,0-.009-.092,8.58,8.58,0,0,1,.273-1h.331Zm1.171-4.825h-.571a8.417,8.417,0,0,1,.768-1.3Zm-.071-2.869H30.478l.107-.889a.459.459,0,1,0-.911-.11l-.121,1H26.42V9.945a.459.459,0,0,0-.918,0v1.094H22.368l-.121-1a.459.459,0,1,0-.911.11l.107.889H19.334l-.509-3.56H33.1Z" transform="translate(-17.838)"/>
      </g>
    </g>
    <g id="Group_58" data-name="Group 58" transform="translate(6.525 1.573)">
      <g id="Group_57" data-name="Group 57" transform="translate(0)">
        <path id="Path_438" data-name="Path 438" class="cls-1" d="M189.435,40.976a1.6,1.6,0,1,0,1.6,1.6A1.6,1.6,0,0,0,189.435,40.976Zm0,2.279a.681.681,0,1,1,.681-.681A.681.681,0,0,1,189.435,43.255Z" transform="translate(-187.837 -40.976)"/>
      </g>
    </g>
  </g>
</svg>
