<svg id="snowflake" xmlns="http://www.w3.org/2000/svg" viewBox="0 0 22.06 25.241">
  <defs>
    <style>
      .cls-1 {
        fill: #126276;
      }
    </style>
  </defs>
  <path id="Path_1237" data-name="Path 1237" class="cls-1" d="M65.794,17.872,63.069,16.3l2.3-1.37a.747.747,0,0,0,.274-1.04.738.738,0,0,0-1.027-.248l-3.068,1.8L56.673,12.6l4.876-2.808,3.068,1.794a.6.6,0,0,0,.356.111.831.831,0,0,0,.671-.356.75.75,0,0,0-.274-1.04l-2.3-1.37,2.725-1.575a.77.77,0,0,0,.274-1.04.756.756,0,0,0-1.041-.275L62.288,7.629l-.041-2.741a.758.758,0,0,0-.753-.766.768.768,0,0,0-.753.766l.027,3.617L55.92,11.313v-5.7l3.054-1.741a.772.772,0,0,0,.3-1.04.736.736,0,0,0-1.027-.275L55.92,3.874V.765A.765.765,0,0,0,55.153,0,.753.753,0,0,0,54.4.765V3.9l-2.41-1.344a.729.729,0,0,0-1.014.275.754.754,0,0,0,.287,1.04L54.4,5.642v5.642l-4.958-2.86.027-3.535a.732.732,0,0,0-.739-.766H48.7a.774.774,0,0,0-.753.766l-.027,2.659-2.67-1.534a.738.738,0,0,0-1.027.272A.76.76,0,0,0,44.5,7.328l2.7,1.56L44.84,10.3a.732.732,0,0,0-.26,1.04.7.7,0,0,0,.644.356.739.739,0,0,0,.4-.111L48.7,9.764,53.646,12.6,48.7,15.462l-3.082-1.823a.745.745,0,0,0-1.041.248.769.769,0,0,0,.26,1.04l2.356,1.4L44.5,17.9a.751.751,0,0,0-.274,1.043.7.7,0,0,0,.644.383,1.373,1.373,0,0,0,.384-.111l2.67-1.534.027,2.659a.761.761,0,0,0,.753.751h.027a.751.751,0,0,0,.739-.78l-.027-3.532L54.4,13.942v5.613l-3.136,1.768a.748.748,0,0,0-.287,1.04.7.7,0,0,0,.644.386.732.732,0,0,0,.37-.085L54.4,21.3v3.191a.744.744,0,0,0,.753.754.755.755,0,0,0,.767-.754V21.349l2.328,1.315a.781.781,0,0,0,1.027-.3.761.761,0,0,0-.3-1.04L55.92,19.611v-5.7l4.848,2.808-.027,3.588a.762.762,0,0,0,.753.78.745.745,0,0,0,.753-.751l.041-2.755,2.739,1.6a.8.8,0,0,0,.4.082.705.705,0,0,0,.644-.356A.754.754,0,0,0,65.794,17.872Z" transform="translate(-44.116 0)"/>
</svg>
