<svg xmlns="http://www.w3.org/2000/svg" viewBox="0 0 24.931 24.866">
  <defs>
    <style>
      .cls-1 {
        fill: #126276;
      }
    </style>
  </defs>
  <path id="maple-leaf" class="cls-1" d="M24.8,8.592a.73.73,0,0,0-.705-.3l-3.86.591-.06-1.171a.729.729,0,0,0-1.187-.53L16.693,9.033l.293-5.188a.729.729,0,0,0-1.118-.658l-1.012.64L13.135.4a.729.729,0,0,0-.652-.4h-.035A.729.729,0,0,0,11.8.4L10.075,3.827l-1.012-.64a.729.729,0,0,0-1.118.658l.293,5.188L5.947,7.182a.729.729,0,0,0-1.187.53L4.7,8.884.84,8.293A.729.729,0,0,0,.086,9.357l1.786,3.358-1.038.4a.729.729,0,0,0-.111,1.308l5.8,3.446-.9,1.968a.729.729,0,0,0,.663,1.032h5.453v3.269a.729.729,0,1,0,1.459,0V20.868h5.453a.729.729,0,0,0,.663-1.032l-.9-1.968,5.8-3.446a.729.729,0,0,0-.111-1.308l-1.038-.4,1.786-3.358A.729.729,0,0,0,24.8,8.592Zm-3.412,4.165a.729.729,0,0,0,.382,1.023l.4.155-5.065,3.012a.729.729,0,0,0-.291.93l.7,1.531H13.2V17.884l3.122-2.077a.729.729,0,1,0-.808-1.214L13.2,16.132v-2.2a.729.729,0,1,0-1.459,0v2.2L9.422,14.593a.729.729,0,1,0-.808,1.214l3.122,2.077v1.524H7.418l.7-1.531a.73.73,0,0,0-.291-.93L2.761,13.936l.4-.155a.73.73,0,0,0,.383-1.024l-1.491-2.8,3.221.493a.73.73,0,0,0,.839-.684l.028-.547L8.6,11.2a.729.729,0,0,0,1.187-.608L9.481,5.177l.494.313A.729.729,0,0,0,11.017,5.2l1.449-2.882L13.914,5.2a.729.729,0,0,0,1.042.289l.494-.313-.306,5.415a.729.729,0,0,0,1.187.608l2.457-1.984.028.547a.729.729,0,0,0,.839.684l3.221-.493Zm0,0" transform="translate(0)"/>
</svg>
