<svg id="flower" xmlns="http://www.w3.org/2000/svg" viewBox="0 0 25.217 25.212">
  <defs>
    <style>
      .cls-1 {
        fill: #126276;
      }
    </style>
  </defs>
  <g id="Group_288" data-name="Group 288" transform="translate(0 0)">
    <path id="Path_1252" data-name="Path 1252" class="cls-1" d="M24.96,9.236a5.177,5.177,0,0,0-6.515-3.32,6.126,6.126,0,0,0-1.079.477,6.121,6.121,0,0,0,.12-1.174A4.886,4.886,0,0,0,12.66.049,4.969,4.969,0,0,0,7.731,5.22a6.122,6.122,0,0,0,.12,1.174,6.129,6.129,0,0,0-1.079-.477A5.177,5.177,0,0,0,.256,9.236a5.351,5.351,0,0,0,3.32,6.688,6.127,6.127,0,0,0,1.153.249,6.128,6.128,0,0,0-.787.879,5.176,5.176,0,0,0,1.144,7.222,4.888,4.888,0,0,0,6.981-1.144,6.129,6.129,0,0,0,.593-1.02,6.124,6.124,0,0,0,.593,1.02,4.771,4.771,0,0,0,6.877,1.144,5.176,5.176,0,0,0,1.144-7.222,6.125,6.125,0,0,0-.787-.879,6.135,6.135,0,0,0,1.153-.249A5.351,5.351,0,0,0,24.96,9.236Zm-12.3-7.71A3.417,3.417,0,0,1,16.009,5.22,6.443,6.443,0,0,1,15,8.4a.736.736,0,0,0-.109.4l-.769,1.331a3.751,3.751,0,0,0-.733-.228V6.869a.73.73,0,0,0-.729-.739.739.739,0,0,0-.739.739V9.9a3.665,3.665,0,0,0-.739.235l-.859-1.406a.736.736,0,0,0-.107-.331A6.443,6.443,0,0,1,9.208,5.22,3.5,3.5,0,0,1,12.66,1.526ZM4.033,14.519A3.9,3.9,0,0,1,1.661,9.693,3.7,3.7,0,0,1,6.315,7.321,6.205,6.205,0,0,1,8.7,8.91l1.268,2.078a3.712,3.712,0,0,0-.524.709L6.566,10.76a.739.739,0,1,0-.457,1.4l2.881.936a3.6,3.6,0,0,0,0,.845l-1.845.644A6.339,6.339,0,0,1,4.033,14.519Zm7.889,4.6a6.433,6.433,0,0,1-1.049,3.14,3.414,3.414,0,0,1-4.918.817,3.7,3.7,0,0,1-.817-5.159,7.088,7.088,0,0,1,2.806-2.042l1.513-.528a3.712,3.712,0,0,0,.481.659L8.155,18.461a.739.739,0,1,0,1.2.868l1.781-2.452a3.661,3.661,0,0,0,.79.258v1.986Zm.739-3.388a2.216,2.216,0,1,1,2.216-2.216A2.218,2.218,0,0,1,12.66,15.733Zm6.6,7.345a3.3,3.3,0,0,1-4.814-.817,6.439,6.439,0,0,1-1.059-3.14V17.136a3.745,3.745,0,0,0,.8-.258L15.97,19.33a.739.739,0,0,0,1.2-.868l-1.782-2.452a3.713,3.713,0,0,0,.477-.653l1.377.5a7.347,7.347,0,0,1,2.841,2.067A3.7,3.7,0,0,1,19.262,23.078ZM18.125,14.6l-1.8-.648a3.6,3.6,0,0,0,0-.852l2.881-.936a.739.739,0,1,0-.457-1.4l-2.883.937a3.712,3.712,0,0,0-.535-.721l1.22-2.111A6.169,6.169,0,0,1,18.9,7.321a3.7,3.7,0,0,1,4.654,2.371,3.9,3.9,0,0,1-2.371,4.826h0A6.309,6.309,0,0,1,18.125,14.6Z" transform="translate(0 -0.049)"/>
  </g>
</svg>
