<svg id="facebook-logo" xmlns="http://www.w3.org/2000/svg" viewBox="0 0 22.986 22.986">
  <defs>
    <style>
      .cls-1 {
        fill: #126276;
      }
    </style>
  </defs>
  <path id="Facebook__x28_alt_x29_" class="cls-1" d="M22.986,3.831A3.97,3.97,0,0,0,19.155,0H3.831A3.97,3.97,0,0,0,0,3.831V19.155a3.971,3.971,0,0,0,3.831,3.831h7.662V14.3H8.684V10.471h2.809V8.979c0-2.574,1.933-4.892,4.31-4.892h3.1V7.917H15.8c-.339,0-.734.411-.734,1.028v1.526H18.9V14.3H15.068v8.683h4.086a3.97,3.97,0,0,0,3.831-3.831Z" transform="translate(0 0)"/>
</svg>
