<svg id="Asset_2" data-name="Asset 2" xmlns="http://www.w3.org/2000/svg" viewBox="0 0 22.428 22.986">
  <defs>
    <style>
      .cls-1 {
        fill: #126276;
      }
    </style>
  </defs>
  <g id="Layer_2" data-name="Layer 2" transform="translate(0 0)">
    <path id="Path_1235" data-name="Path 1235" class="cls-1" d="M0,17.822V5.165C.016,5.109.031,5.054.046,5a9.414,9.414,0,0,1,.422-1.52A5.462,5.462,0,0,1,5.7.01C9.366-.013,13.027.008,16.688,0a5.364,5.364,0,0,1,2.671.64,5.462,5.462,0,0,1,3.03,4.873c.068,3.985.029,7.972.007,11.958a4.953,4.953,0,0,1-.266,1.536,5.578,5.578,0,0,1-4.139,3.848c-.2.051-.409.088-.613.131H5.034c-.047-.015-.093-.035-.141-.046a8.631,8.631,0,0,1-.976-.225,5.652,5.652,0,0,1-3.785-4.24C.08,18.258.044,18.039,0,17.822ZM15.866,11.5a4.659,4.659,0,1,0-9.316-.032,4.716,4.716,0,0,0,4.654,4.8A4.594,4.594,0,0,0,14.5,14.878,4.831,4.831,0,0,0,15.866,11.5Zm2.8-6.266a1.388,1.388,0,1,0-1.327,1.454,1.4,1.4,0,0,0,1.327-1.454Z" transform="translate(0 0.002)"/>
  </g>
</svg>
