<svg id="vkontakte-logo" xmlns="http://www.w3.org/2000/svg" viewBox="0 0 22.986 22.986">
  <defs>
    <style>
      .cls-1 {
        fill: #126276;
      }
    </style>
  </defs>
  <path id="Path_1236" data-name="Path 1236" class="cls-1" d="M12.732,12.668a2.665,2.665,0,0,0-1.3-.215H10.069v2.816h1.254a2.582,2.582,0,0,0,1.457-.248,1.461,1.461,0,0,0,.576-1.2A1.435,1.435,0,0,0,12.732,12.668Zm-.516-2.4a1.309,1.309,0,0,0,.464-1.025,1.185,1.185,0,0,0-.544-1.024,3.362,3.362,0,0,0-1.473-.165h-.6v2.478h.788A2.163,2.163,0,0,0,12.216,10.263ZM18.945,0H4.04A4.04,4.04,0,0,0,0,4.04v14.9a4.041,4.041,0,0,0,4.04,4.04H18.945a4.041,4.041,0,0,0,4.04-4.04V4.04A4.041,4.041,0,0,0,18.945,0ZM12.116,17.367h-4.7V6.034h5.131a2.657,2.657,0,0,1,2.857,2.615,2.411,2.411,0,0,1-1.637,2.445v.033a2.58,2.58,0,0,1,2.332,2.8C16.1,15.579,14.981,17.367,12.116,17.367Z"/>
</svg>
